<svg preserveAspectRatio="none" width="100%" height="100%" overflow="visible" style="display: block;" viewBox="0 0 50 50" fill="none" xmlns="http://www.w3.org/2000/svg">
<g id="image">
<path id="Vector" d="M5.70435 11.917C6.01182 11.5416 6.5103 11.2511 6.93574 11.0259C9.47729 9.6811 12.2418 8.6043 14.85 7.38394L19.3869 5.22368C21.0479 4.41768 22.5065 3.55915 24.3946 3.38527C25.0874 3.32146 26.1064 3.58679 26.8044 3.73738C29.6649 4.80154 32.4397 6.329 35.194 7.62227L40.0163 9.86943C41.3124 10.4751 42.7096 10.9432 43.83 11.8673C44.2842 12.242 44.6783 12.7246 45.0642 13.1713C45.8735 13.9907 45.5663 17.4262 45.5143 18.5332C45.4533 19.842 45.4247 21.1522 45.4284 22.4625C45.4361 23.8602 45.4579 25.2578 45.4937 26.655C45.5042 27.2241 45.5463 28.1174 45.5138 28.6586C45.6505 30.1318 45.6567 31.7893 45.7121 33.2733C45.7285 33.7122 45.5788 34.2157 45.4567 34.6333C44.9304 36.4654 43.8594 37.7277 41.9892 38.2874C41.8997 38.3142 41.8071 38.4705 41.7486 38.5412C41.2042 38.7782 41.0653 38.6776 40.6853 39.1646C40.463 39.198 40.2312 39.226 40.0166 39.2896L39.7109 39.6271C39.4452 39.6802 39.2741 39.6946 39.0558 39.8576C38.5813 40.2118 38.5823 40.1899 38.0297 40.2565L37.7889 40.6158C37.5522 40.6755 37.264 40.7568 37.0286 40.8017L36.7957 41.1776C36.5784 41.195 36.3609 41.2105 36.1434 41.2243C36.0714 41.3005 35.8438 41.5445 35.768 41.5803C35.3027 41.7997 35.1705 41.7071 34.832 42.1221C34.6041 42.1596 34.3769 42.2007 34.1502 42.2453C34.0373 42.3582 33.9171 42.4748 33.8081 42.5906C33.6704 42.6214 33.1342 42.7327 33.0843 42.7976C32.7599 43.2197 32.2661 43.0803 31.9479 43.4328C31.798 43.6105 30.4074 44.194 30.0963 44.2607C29.9017 44.4889 29.9163 44.4929 29.6693 44.626C28.8724 45.0555 28.0326 45.3505 27.2052 45.7174C26.8866 45.8587 26.9607 45.9933 26.6608 46.0278C25.989 46.1052 24.7931 46.187 24.1607 45.9104C24.0719 45.8443 23.3557 45.6009 23.1872 45.5326C22.7573 45.3548 22.3338 45.1619 21.9175 44.9541L10.2601 39.1187C9.03247 38.4949 7.69448 37.9804 6.50127 37.306C5.71255 36.8602 4.3902 35.4641 4.28937 34.5458C4.13074 33.1011 4.1971 31.5245 4.19962 30.0629L4.22306 21.8006C4.24907 19.3453 4.10244 16.8786 4.21525 14.4172C4.2626 13.3841 4.96645 12.5656 5.70435 11.917Z" fill="url(#paint0_linear_0_138)"/>
<path id="Vector_2" d="M5.70435 11.917C6.01182 11.5416 6.5103 11.2511 6.93574 11.0259C9.4773 9.6811 12.2418 8.6043 14.85 7.38394L19.3869 5.22368C21.0479 4.41768 22.5065 3.55915 24.3946 3.38527C25.0875 3.32146 26.1064 3.58679 26.8044 3.73738C29.6649 4.80154 32.4397 6.329 35.194 7.62227L40.0163 9.86943C41.3124 10.4751 42.7096 10.9432 43.83 11.8673C44.2842 12.242 44.6783 12.7246 45.0642 13.1713C44.9005 13.4562 44.6001 13.4282 44.2986 13.5574C41.7201 14.6623 39.1981 15.871 36.6725 17.0905C35.8465 17.4894 35.2743 17.7872 34.6365 18.4732C34.5442 18.3076 34.3322 18.0393 34.2124 17.8781C34.0438 18.1861 33.9843 18.3648 33.9472 18.7161C33.7856 18.6522 33.716 18.635 33.6358 18.5089C33.6159 18.5475 33.5896 18.5985 33.5569 18.6618C31.6599 19.6434 29.7011 20.523 27.7578 21.4103C27.7379 21.4145 27.7181 21.4187 27.6982 21.4228C27.0186 21.5037 26.3839 21.714 25.7011 21.7801C25.658 21.8241 25.6148 21.868 25.5716 21.912C25.5791 22.1026 25.601 22.2205 25.506 22.385C25.1922 22.5864 24.9072 22.2762 24.6175 22.1319C23.8506 21.4745 22.7686 21.1633 21.8478 20.7142L15.26 17.5242C13.7285 16.7864 12.2213 16.0099 10.6744 15.2833C9.6895 14.8207 8.73701 14.2596 7.71934 13.7989C7.35522 13.6593 6.86689 13.4128 6.50425 13.2427C5.6499 13.0612 5.26045 12.8058 5.70435 11.917Z" fill="url(#paint1_linear_0_138)"/>
<path id="Vector_3" d="M20.0377 10.2938C20.3435 9.94331 22.2121 8.84741 22.687 8.60249C23.0874 8.396 23.1287 8.08892 23.3757 8.01636C23.9036 7.99224 24.9469 8.57959 25.4399 8.84155C27.4522 9.91099 29.5283 10.863 31.4967 12.0119C31.6225 12.0854 31.7946 12.136 31.9311 12.1915L31.9739 12.2086C30.6978 12.9245 29.2826 13.2596 27.9958 14.001C27.8769 14.0695 27.5039 14.2588 27.4236 14.3311C27.0207 14.4388 26.6372 14.4172 26.4307 14.7918C25.8412 15.2327 25.0708 14.5167 24.5399 14.2301C23.6669 13.7587 22.5791 13.0016 21.6007 12.8534C21.5958 12.6812 21.6051 12.5513 21.5326 12.3949C21.3014 12.3278 21.2169 12.315 21.0396 12.158C21.83 12.0026 21.7217 12.1758 22.5562 11.75C22.033 11.5751 20.748 10.9674 20.3476 10.5895L20.0377 10.2938Z" fill="var(--fill-0, #FEFEFE)"/>
<path id="Vector_4" d="M7.25142 12.8469C7.4978 12.9746 7.74165 13.1249 8.01411 13.1607C9.87822 14.1529 11.7733 15.0833 13.6553 16.0403C14.9591 16.7033 16.356 17.2313 17.657 17.883C20.1743 19.1439 22.6399 20.465 25.2252 21.5894C25.3564 21.6464 25.5264 21.7703 25.5716 21.912C25.5791 22.1026 25.601 22.2205 25.506 22.385C25.1922 22.5864 24.9072 22.2762 24.6175 22.1319C23.8506 21.4745 22.7686 21.1633 21.8478 20.7142L15.26 17.5242C13.7285 16.7864 12.2213 16.0099 10.6744 15.2833C9.6895 14.8207 8.73701 14.2596 7.71934 13.7989C7.44287 13.4949 6.97515 13.4015 6.89927 13.158C6.94985 13.012 7.11602 12.9332 7.25142 12.8469Z" fill="url(#paint2_linear_0_138)"/>
<path id="Vector_5" d="M17.3496 11.2907C17.131 11.0228 16.3805 11.1594 15.9782 10.9948C15.8463 10.8357 15.8278 10.3275 15.8088 10.1076C16.8336 10.0168 17.115 10.5436 17.8799 10.6271C18.5702 10.9538 19.0556 11.2482 19.817 11.3791C20.0888 11.0013 19.9712 10.8267 20.3476 10.5895C20.748 10.9674 22.033 11.5751 22.5563 11.75C21.7217 12.1758 21.83 12.0026 21.0396 12.158C21.2169 12.315 21.3014 12.3278 21.5326 12.3949C21.5421 12.6442 21.5813 12.6617 21.4813 12.8543C21.1057 13.0221 20.6394 12.6213 20.2634 12.4673C19.6096 12.281 19.045 11.9106 18.4198 11.6384C18.0516 11.478 17.7387 11.3925 17.3496 11.2907Z" fill="var(--fill-0, #6139F6)"/>
<path id="Vector_6" d="M27.4236 14.3311C27.6639 14.5067 27.772 14.3733 28.0069 14.5086C28.7265 14.9233 29.4486 15.3275 30.2168 15.6377C30.3813 15.7041 31.4036 16.0951 31.3913 16.0652C31.6146 16.6089 32.0806 16.2875 32.4503 16.4955C32.4612 16.5983 32.4714 16.6444 32.5269 16.7321C33.3042 17.1174 33.5679 17.126 34.2124 17.8781C34.0438 18.1861 33.9843 18.3648 33.9472 18.7161C33.7856 18.6522 33.716 18.635 33.6358 18.5089C33.4183 17.9207 32.7423 17.4159 32.1883 17.1489C30.8532 16.5053 29.3999 15.9153 27.9922 15.4567C27.7799 15.3875 26.7595 15.3871 26.4468 15.362C26.3746 15.2127 26.312 15.1222 26.3405 14.9602C26.402 14.8971 26.4124 14.878 26.4307 14.7918C26.6372 14.4172 27.0207 14.4388 27.4236 14.3311Z" fill="var(--fill-0, #6139F6)"/>
<path id="Vector_7" d="M14.3201 10.0971C15.5692 9.8896 16.7875 9.87778 17.8799 10.6271C17.115 10.5436 16.8336 10.0168 15.8088 10.1076C15.8278 10.3275 15.8463 10.8357 15.9782 10.9948C16.3805 11.1594 17.131 11.0228 17.3496 11.2907C17.1096 11.2923 14.8259 10.9936 14.5181 10.84C14.4076 10.7849 14.3444 10.2621 14.3201 10.0971Z" fill="var(--fill-0, #926DFC)"/>
<path id="Vector_8" d="M6.50425 13.2427C6.27437 13.0767 5.66729 12.6423 6.1311 12.3772C6.63604 12.3498 7.59429 12.8831 8.01411 13.1607C7.74165 13.1249 7.4978 12.9746 7.25142 12.8469C7.11602 12.9332 6.94985 13.012 6.89927 13.158C6.97515 13.4015 7.44287 13.4949 7.71934 13.7989C7.35522 13.6593 6.86689 13.4128 6.50425 13.2427Z" fill="var(--fill-0, #C5B0FB)"/>
<path id="Vector_9" d="M20.0377 10.2938L20.3476 10.5895C19.9712 10.8267 20.0888 11.0013 19.817 11.3791C19.6135 10.9028 19.702 10.6586 20.0377 10.2938Z" fill="var(--fill-0, #926DFC)"/>
<path id="Vector_10" d="M39.9222 24.7383L40.0598 24.8257C39.9354 25.4732 39.9333 26.6301 39.9265 27.3032L39.9035 30.1847C39.9026 30.5666 39.9773 31.9128 39.7067 32.1439C39.3647 32.2497 39.1549 32.3434 38.8272 32.4917C37.8833 32.95 35.6147 33.899 35.0144 34.6143C34.9802 35.9673 35.3949 36.5149 33.7885 37.0659C33.3708 37.2092 32.5247 38.0424 32.0308 37.6885C31.9696 37.5563 31.9744 37.2877 31.98 37.1374C32.0823 34.4072 32.1781 31.6674 32.3128 28.941C32.3318 28.5547 33.6864 27.9672 34.079 27.6956C34.2366 27.6252 35.4086 27.218 35.3198 27.3117C35.8339 26.7696 38.7971 25.6353 39.0148 25.1118C39.2148 24.9359 39.6574 24.8232 39.9222 24.7383Z" fill="var(--fill-0, #201463)"/>
<path id="Vector_11" d="M34.2124 17.8781C34.3322 18.0393 34.5442 18.3076 34.6365 18.4732C34.6958 18.8193 34.7713 19.1959 34.781 19.544C35.0356 20.3438 34.9107 26.3683 34.827 27.409C35.2143 27.2326 35.3605 27.0951 35.7099 26.909C36.4522 26.5138 37.1905 26.125 37.9274 25.7189C38.1978 25.5699 38.7578 25.2225 39.0148 25.1118C38.7971 25.6353 35.8339 26.7696 35.3198 27.3117C35.4086 27.218 34.2366 27.6252 34.079 27.6956C34.0256 26.3209 34.0488 24.9831 34.0291 23.6118C34.0112 22.3601 33.9525 21.1213 33.9759 19.8653C33.9375 19.5369 33.9486 19.0582 33.9472 18.7161C33.9843 18.3648 34.0438 18.1861 34.2124 17.8781Z" fill="var(--fill-0, #39267F)"/>
<path id="Vector_12" d="M34.2124 17.8781C34.3322 18.0393 34.5442 18.3076 34.6365 18.4732C34.6958 18.8193 34.7713 19.1959 34.781 19.544L34.7397 19.6099C34.6569 19.2791 34.6 18.5929 34.4075 18.3683C34.2184 18.3527 34.278 18.3318 34.149 18.4165C34.1212 18.4986 34.0975 18.5198 34.1145 18.5886C34.2248 19.0376 34.2077 19.597 34.1343 20.0509L34.1122 20.0147C34.0901 20.1796 34.0957 20.6908 34.0593 20.7624C34.0462 20.5553 34.0251 20.0396 33.9759 19.8653C33.9375 19.5369 33.9486 19.0582 33.9472 18.7161C33.9843 18.3648 34.0438 18.1861 34.2124 17.8781Z" fill="var(--fill-0, #201463)"/>
<path id="Vector_13" d="M24.1607 45.9104C24.9995 45.7066 26.1135 45.7955 26.9775 45.6928C27.0947 45.6789 27.6605 45.2789 27.8128 45.2306C28.5192 45.0064 29.0224 44.9465 29.4755 44.3064C29.6829 44.0198 30.0156 44.207 30.2272 44.1191C30.6735 43.9338 31.4477 43.3887 31.948 43.4328C31.798 43.6105 30.4074 44.194 30.0963 44.2607C29.9017 44.4889 29.9163 44.4929 29.6693 44.626C28.8724 45.0555 28.0326 45.3505 27.2052 45.7174C26.8866 45.8587 26.9607 45.9933 26.6608 46.0278C25.989 46.1052 24.7931 46.187 24.1607 45.9104Z" fill="var(--fill-0, #6139F6)"/>
<path id="Vector_14" d="M25.5716 21.912C25.6148 21.868 25.658 21.8241 25.7011 21.7801C26.3839 21.714 27.0186 21.5037 27.6982 21.4228C27.3047 21.938 26.4864 22.5458 25.8913 22.7038C25.8909 22.5969 25.8913 22.6298 25.9596 22.5248C25.6678 22.5646 25.4807 22.5877 25.1843 22.595C24.8728 22.4325 24.8187 22.4119 24.6175 22.1319C24.9072 22.2762 25.1922 22.5864 25.506 22.385C25.601 22.2205 25.5791 22.1026 25.5716 21.912Z" fill="var(--fill-0, #C5B0FB)"/>
<path id="Vector_15" d="M45.5138 28.6586C45.6505 30.1318 45.6567 31.7893 45.7121 33.2733C45.7285 33.7122 45.5788 34.2157 45.4567 34.6334C45.4767 33.133 45.3007 31.6137 45.4727 30.0916C45.5229 29.6474 45.469 29.1292 45.5138 28.6586Z" fill="var(--fill-0, #6139F6)"/>
<path id="Vector_16" d="M39.7067 32.1439C39.8093 32.2795 39.7835 32.2166 39.8074 32.3826C39.6115 32.6622 39.1085 32.6336 38.8272 32.4917C39.1549 32.3434 39.3647 32.2497 39.7067 32.1439Z" fill="var(--fill-0, #926DFC)"/>
<path id="Vector_17" d="M39.9222 24.7383C40.0546 24.565 40.0457 24.5213 40.2205 24.4434C40.2887 24.5825 40.1491 24.7101 40.0598 24.8257L39.9222 24.7383Z" fill="var(--fill-0, #39267F)"/>
<path id="Vector_18" d="M8.2083 17.4709C8.70977 17.3959 8.56538 17.3633 8.94307 17.0365C9.10225 17.0825 9.0854 17.1259 9.20527 17.3004C9.91338 17.5337 11.3755 18.3439 12.1181 18.7273C13.114 19.1638 14.3693 19.8623 15.416 20.3507L18.1222 21.5962C18.9456 21.9747 21.3046 23.0459 21.4694 24.0086C21.6165 24.8679 21.6668 27.5473 21.5056 28.3913C21.2537 28.6207 21.1765 28.6784 20.8824 28.8495C20.2143 28.4639 18.8556 27.8253 18.3177 27.4095C18.0046 27.2864 17.9587 27.273 17.6161 27.2463C17.5488 27.7853 17.5904 28.5429 17.5794 29.1021C17.5518 30.5142 17.6197 31.9229 17.6435 33.3302L17.5313 33.3814C16.6804 33.3418 12.3318 31.2239 11.6749 30.6437C11.6702 30.3886 11.6802 30.1167 11.6851 29.8603C11.832 29.0924 11.9091 26.4701 11.9001 25.6183C11.8989 25.4992 11.7315 25.1685 11.6825 24.9576L11.6725 24.9138C11.29 24.5755 10.8475 24.1957 10.4002 23.9447C9.56016 23.4731 8.98345 23.3001 8.24946 22.6506C8.18198 22.0446 8.20708 21.2306 8.20742 20.6057L8.2083 17.4709Z" fill="var(--fill-0, #C5B0FB)"/>
<path id="Vector_19" d="M8.2083 17.4709C8.70977 17.3959 8.56538 17.3633 8.94307 17.0365C9.10225 17.0825 9.0854 17.1259 9.20527 17.3004C9.91338 17.5337 11.3755 18.3439 12.1181 18.7273C13.114 19.1638 14.3693 19.8623 15.416 20.3507L18.1222 21.5962C18.9456 21.9747 21.3046 23.0459 21.4694 24.0086C21.6165 24.8679 21.6668 27.5473 21.5056 28.3913C21.2537 28.6207 21.1765 28.6784 20.8824 28.8495C20.2143 28.4639 18.8556 27.8253 18.3177 27.4095C18.0046 27.2864 17.9587 27.273 17.6161 27.2463C17.6635 25.7617 17.6031 24.0981 17.6161 22.5908C17.6379 22.608 16.9269 22.2199 16.8288 22.1656C15.6662 21.521 14.3704 20.7289 13.1159 20.3072C12.9545 20.2529 12.4865 20.3473 12.3211 20.3909C12.2147 20.6192 11.881 21.2109 11.8423 21.4006C11.6482 22.3511 11.6636 23.929 11.6725 24.9138C11.29 24.5755 10.8475 24.1957 10.4002 23.9447C9.56016 23.4731 8.98345 23.3001 8.24946 22.6506C8.18198 22.0446 8.20708 21.2306 8.20742 20.6057L8.2083 17.4709Z" fill="url(#paint3_linear_0_138)"/>
<path id="Vector_20" d="M8.2083 17.4709C8.70977 17.3959 8.56538 17.3633 8.94307 17.0365C9.10225 17.0825 9.0854 17.1259 9.20527 17.3004C9.91338 17.5337 11.3755 18.3439 12.1181 18.7273C11.5712 18.7556 11.0026 18.1229 10.553 18.2385C10.2769 18.5648 10.6049 18.7507 10.4163 19.0173L10.4701 19.0056L10.4845 18.9688L10.3701 19.0024C10.215 18.8816 10.1298 18.8092 9.99019 18.6713C9.97817 18.791 10.4164 19.2083 10.5077 19.3765C10.7257 19.7783 10.6453 20.5153 10.9315 20.8412C10.9375 20.5197 10.7282 19.9885 10.7616 19.7617C10.9151 20.2445 11.1794 20.9748 11.5229 21.3476L11.6294 21.3882C11.8295 21.1684 12.1384 20.4118 12.3135 20.3671L12.3211 20.3909C12.2147 20.6192 11.881 21.2109 11.8423 21.4006C11.6482 22.3511 11.6636 23.929 11.6725 24.9138C11.29 24.5755 10.8475 24.1957 10.4002 23.9447C9.56016 23.4731 8.98345 23.3001 8.24946 22.6506C8.18198 22.0446 8.20708 21.2306 8.20742 20.6057L8.2083 17.4709Z" fill="url(#paint4_linear_0_138)"/>
<path id="Vector_21" d="M17.6161 22.5908C17.7 22.8985 17.9012 23.3612 17.915 23.626C17.9552 24.396 17.8452 25.15 18.0213 25.9142C18.1732 26.5733 18.0895 27.1328 18.9377 27.0868C19.0412 27.5443 19.14 27.4798 19.2529 27.7852C18.9616 27.7787 18.6558 27.4072 18.3177 27.4095C18.0046 27.2864 17.9587 27.273 17.6161 27.2463C17.6635 25.7617 17.6031 24.0981 17.6161 22.5908Z" fill="var(--fill-0, #201463)"/>
<path id="Vector_22" d="M8.2728 28.3698C9.64097 28.2178 9.67402 28.7896 10.8559 29.2852C10.9917 29.3421 11.4446 29.4119 11.6158 29.441C11.6982 29.5674 11.6754 29.6886 11.6851 29.8603C11.6802 30.1167 11.6702 30.3886 11.6749 30.6437C12.3318 31.2239 16.6804 33.3418 17.5313 33.3814L17.6435 33.3302C18.0224 33.2875 19.0317 34.0241 19.4047 34.2163C19.4903 34.2756 19.9436 34.3088 19.9838 34.3757C20.2793 34.8658 20.3998 34.7896 21.0366 34.8089C21.0893 36.4321 21.0924 38.0566 21.046 39.6801C20.8124 39.6932 20.3972 39.7146 20.182 39.6339C19.4364 39.354 18.7083 38.9057 17.9954 38.5538L13.9047 36.5586C12.5416 35.8843 11.1449 35.2633 9.80298 34.5509C7.86357 33.5213 8.21465 32.1755 8.21997 30.3187C8.22183 29.6619 8.22603 29.0212 8.2728 28.3698Z" fill="url(#paint5_linear_0_138)"/>
</g>
<defs>
<linearGradient id="paint0_linear_0_138" x1="43.7738" y1="37.492" x2="5.67866" y2="11.7165" gradientUnits="userSpaceOnUse">
<stop stop-color="#623BF0"/>
<stop offset="1" stop-color="#8E6AFD"/>
</linearGradient>
<linearGradient id="paint1_linear_0_138" x1="26.7804" y1="3.7328" x2="23.9874" y2="21.4013" gradientUnits="userSpaceOnUse">
<stop stop-color="#A284FF"/>
<stop offset="1" stop-color="#B4A1FE"/>
</linearGradient>
<linearGradient id="paint2_linear_0_138" x1="16.7172" y1="15.8675" x2="15.6235" y2="19.2803" gradientUnits="userSpaceOnUse">
<stop stop-color="#EDCDF4"/>
<stop offset="1" stop-color="#F8F5FD"/>
</linearGradient>
<linearGradient id="paint3_linear_0_138" x1="16.9288" y1="20.5822" x2="14.7301" y2="26.3151" gradientUnits="userSpaceOnUse">
<stop/>
<stop offset="1" stop-color="#2B2346"/>
</linearGradient>
<linearGradient id="paint4_linear_0_138" x1="11.4605" y1="20.7067" x2="8.0644" y2="21.5087" gradientUnits="userSpaceOnUse">
<stop stop-color="#070713"/>
<stop offset="1" stop-color="#291B52"/>
</linearGradient>
<linearGradient id="paint5_linear_0_138" x1="15.9825" y1="31.8782" x2="13.122" y2="36.4672" gradientUnits="userSpaceOnUse">
<stop stop-color="#020208"/>
<stop offset="1" stop-color="#141333"/>
</linearGradient>
</defs>
</svg>
