<svg preserveAspectRatio="none" width="100%" height="100%" overflow="visible" style="display: block;" viewBox="0 0 21 21" fill="none" xmlns="http://www.w3.org/2000/svg">
<g id="image">
<path id="Vector" d="M9.87906 1.21034C10.0613 1.3165 10.1385 1.31646 10.3315 1.37019C10.4721 1.38303 10.6645 1.39528 10.7997 1.41814C11.2449 1.37663 11.3887 1.32569 11.5876 1.75639C11.7927 1.9051 12.3447 1.81031 12.6619 1.95336C12.7168 2.02927 12.8126 2.20008 12.8803 2.24762C13.0298 2.34037 13.214 2.33278 13.3843 2.3858C13.5202 2.42812 13.6417 2.64032 13.7226 2.67824C14.0563 2.83471 14.0622 2.77891 14.2559 3.09912C14.3495 3.21722 14.5785 3.27961 14.6071 3.32458C14.8404 3.69118 14.9541 3.64479 15.3096 3.80266C15.3997 3.84267 15.5941 4.16719 15.6667 4.25754C15.8429 4.44903 15.9703 4.74122 16.1223 4.92735C16.2919 5.1352 16.3906 5.14734 16.5464 5.40768C16.6257 5.50944 16.7659 5.57657 16.8172 5.64242C16.9419 5.80219 16.9043 6.13834 16.9436 6.34709C17.6263 6.57074 17.3069 6.68612 17.398 7.27652C17.4787 7.31274 17.737 7.41117 17.7609 7.49591C17.8176 7.6972 17.8246 7.94454 17.8218 8.15481C17.8148 8.67905 17.83 9.19679 17.8508 9.72023C17.8611 9.97849 17.8362 10.2781 17.8216 10.537C17.8226 10.9125 17.848 11.9573 17.7562 12.2727C17.6881 12.3048 17.5245 12.3741 17.4718 12.4128C17.2367 12.5855 17.4834 12.9226 17.3455 13.1464C17.2553 13.2928 17.1168 13.3335 16.9626 13.3903C16.8543 13.7197 16.9529 14.0043 16.6812 14.1415C16.6472 14.1585 16.613 14.1749 16.5785 14.1906C16.4874 14.3502 16.4637 14.4471 16.3922 14.59C16.2948 14.6385 16.197 14.6862 16.0989 14.7332C15.8915 15.0814 15.4672 15.5588 15.1649 15.8278C15.0811 16.13 15.0739 16.5566 15.0993 16.8737C15.2679 16.9045 15.3863 16.9023 15.4943 17.0294C15.5753 17.2965 15.5766 17.8317 15.6147 18.1234C15.6342 18.273 15.3986 18.4555 15.3341 18.5629C14.9446 18.83 14.6711 18.7447 14.2275 18.752C13.9552 18.7565 13.6698 18.7731 13.3973 18.7896C13.2603 19.1623 13.1862 19.0871 12.917 19.3295C12.7161 19.5104 12.7912 19.6546 12.4625 19.7695C12.2116 19.9047 12.4704 20.2002 11.9298 20.0939C11.3743 19.9845 11.581 19.4265 11.344 19.2732L11.0954 19.1834C11.0357 19.0871 10.9657 18.9481 10.9118 18.8463C10.794 18.7968 10.6723 18.7167 10.5665 18.6462C10.5091 18.5236 10.4827 18.4672 10.4456 18.3357L10.418 18.3015C10.2155 18.2803 10.049 18.3137 9.84988 18.3479C9.69735 18.359 9.54485 18.3552 9.42705 18.4587C9.40665 18.4877 9.3538 18.5587 9.33971 18.5861C9.20834 18.6915 8.9628 18.7519 8.79838 18.8014C8.74207 18.8611 8.63422 19.1121 8.59312 19.2004C8.51093 19.2353 8.38653 19.2926 8.30411 19.3159C8.20632 19.3731 8.22894 19.517 8.22977 19.6261C8.22722 19.7872 8.22189 19.9518 8.18582 20.1098C8.03305 20.13 7.91993 20.1385 7.76582 20.1453C7.41677 20.1486 7.41357 20.0963 7.29451 19.7785C7.03145 19.6388 6.94917 19.6165 6.82808 19.3449C6.51517 19.1433 6.39696 19.191 6.15794 18.8574C5.88297 18.7829 5.57337 18.69 5.29303 18.6468C5.17162 18.6281 4.87132 18.6967 4.75851 18.6486C4.5811 18.5729 4.35894 18.426 4.18532 18.3276C3.89152 18.2041 3.72291 18.049 3.68544 17.714C3.65825 17.4707 3.82376 17.3654 4.04804 17.3462L4.11233 17.3004C4.17488 17.163 4.14924 15.886 4.14186 15.6526C3.93481 15.5906 3.87278 15.5563 3.70433 15.4288L3.60724 15.1841C3.1063 14.9153 3.23254 14.7985 3.23189 14.2642C2.68671 14.1653 2.74647 14.0065 2.78098 13.5306L2.78361 13.4085C2.65404 13.1893 2.33986 13.4034 2.31377 12.9879C2.27832 12.423 2.35881 11.8523 2.26978 11.2924C2.21683 11.0826 2.0168 10.7823 1.98201 10.6237C1.86609 10.0953 1.85907 8.90199 1.92571 8.37076C2.08134 8.01255 2.27549 8.33891 2.27983 7.70444C2.33186 7.37451 2.26868 7.04605 2.3659 6.73005C2.3948 6.63608 2.45817 6.59062 2.53421 6.53182C2.58899 6.5098 2.62285 6.47393 2.66753 6.43472L2.71343 6.39007C2.82782 6.09049 2.64821 5.58766 3.00312 5.51572C3.30323 5.40879 3.23074 5.21577 3.22114 4.9367C3.26589 4.56592 3.39472 4.72028 3.55271 4.54552C3.70623 4.37571 3.84478 4.17724 4.03122 4.023C4.09535 3.96994 4.17533 3.83921 4.23946 3.77684C4.27206 3.73326 4.4802 3.6242 4.49781 3.59451C4.64767 3.34185 4.71842 3.26056 4.97813 3.13897C4.99886 3.12927 5.16479 2.86016 5.20277 2.81234C5.29774 2.79548 5.46763 2.78818 5.57033 2.78106C6.07735 2.82274 5.79301 2.32561 6.29393 2.31859C6.55182 2.3035 6.74313 2.40458 6.84766 2.11335C7.00772 1.79276 7.13418 1.84148 7.47048 1.84085C7.97336 1.88592 7.67294 1.57234 8.03968 1.47805C8.71929 1.30333 9.23863 1.58022 9.87906 1.21034Z" fill="url(#paint0_linear_0_6)"/>
<path id="Vector_2" d="M9.35989 2.74401C9.64035 2.73662 11.1778 2.70182 11.3141 2.93668C11.5878 3.40811 12.1275 3.14588 12.2188 3.28506C12.7162 4.04324 13.7012 4.20997 14.1844 4.9769C14.5683 5.58625 15.0907 6.06441 15.493 6.66524C15.603 6.83132 15.5123 7.06738 15.666 7.31212C15.6629 7.37373 15.6139 7.45572 15.5538 7.47592C15.4972 7.22012 15.4848 6.69664 15.2869 6.52407C15.3089 6.58079 15.3294 6.63748 15.3314 6.69879C15.3406 6.99349 15.4653 7.28887 15.5025 7.57678C15.555 7.96759 15.5454 8.3619 15.561 8.75388C15.5934 9.56273 15.5948 10.3896 15.3024 11.1577C15.2742 11.2318 15.1627 11.5052 15.1657 11.5634C15.1963 11.5321 15.1984 11.5266 15.2196 11.4878C15.2616 11.5191 15.2579 11.5784 15.2672 11.6284C15.2937 11.7708 14.6355 12.7527 14.5105 12.9308C14.3493 13.1605 13.7368 13.8885 13.5246 14.0531C13.3741 14.1697 13.1866 14.2382 13.0214 14.3308C12.7223 14.4985 12.398 14.8137 12.187 15.0827C11.9062 15.1256 11.6057 15.1317 11.338 15.227C11.1901 15.2761 10.9629 15.5239 10.816 15.5335C9.95615 15.59 9.06109 15.5874 8.20134 15.5299C7.9976 15.5163 7.81739 15.2771 7.65419 15.1853C7.47042 15.082 7.25778 15.0249 7.08079 14.9037C6.8144 14.7616 6.55977 14.4962 6.30769 14.3558C5.88181 14.1414 5.49437 13.9052 5.14557 13.584C4.83482 13.2978 4.1476 12.7099 4.14715 12.2534C4.1465 11.6093 3.91794 11.6916 3.73978 11.271L3.73423 11.2582C3.61093 10.9673 3.68679 8.77386 3.67078 8.35847C3.66657 8.25005 3.68618 7.82125 3.66852 7.71976L3.67022 7.64418C3.68562 7.03834 3.72949 7.07796 4.00109 6.56484C4.16551 6.25419 4.24622 5.9391 4.47464 5.62499C4.62798 5.41408 4.61672 5.26741 4.84753 5.04806C5.02456 4.90516 5.39979 4.40649 5.65339 4.25156C5.74672 4.19454 5.93037 4.11204 6.03688 4.05565L6.89559 3.59535C7.20085 3.43448 7.40513 3.24591 7.7634 3.20545C8.06876 3.17098 8.2528 2.9982 8.47803 2.80969C8.71194 2.77225 9.11045 2.75881 9.35989 2.74401Z" fill="var(--fill-0, #6744FD)"/>
<path id="Vector_3" d="M7.00971 9.99239C6.99835 10.0176 6.99655 10.0155 6.97253 10.0303C6.85964 9.98089 6.50678 9.60695 6.45125 9.50488C6.44895 9.76041 6.32289 9.97096 6.31358 10.2162C6.31518 10.3116 6.31493 10.436 6.30623 10.5283C6.29961 10.5985 6.23829 10.8123 6.14826 10.7374C6.13838 10.7292 6.00278 10.7998 5.97528 10.7836C5.95498 10.7717 5.89626 10.7819 5.87276 10.7813C5.81132 10.7697 5.80876 10.69 5.75767 10.6654C5.75738 10.6653 5.69168 10.6676 5.69157 10.6675C5.68302 10.6592 5.62199 10.5964 5.61879 10.5964C5.49068 10.5999 5.46876 10.3169 5.33537 10.2776C5.26762 10.2576 5.27082 10.1572 5.25775 10.0875C5.24713 10.1256 5.24432 10.1785 5.24059 10.219C5.17629 10.2226 5.2168 10.1416 5.09832 10.0747C5.07382 9.96202 5.10503 9.52112 5.19576 9.42389C5.1993 9.42008 5.28954 9.42227 5.34064 9.37956C5.33092 9.33936 5.31766 9.30608 5.30338 9.26767C5.32055 9.18885 5.30576 9.22952 5.39054 9.17462C5.3961 9.00172 5.55985 8.64529 5.49698 8.47022C5.49355 8.46068 5.47844 8.43589 5.47782 8.42576C5.44124 7.82428 5.53381 7.19923 5.94419 6.73089C6.04406 6.62534 6.65425 6.34405 6.80217 6.29139C6.79375 6.25172 6.79541 6.25222 6.80273 6.21436C7.13403 6.03487 7.13947 5.92823 7.42073 5.70542C7.42713 5.70035 7.5091 5.68372 7.54087 5.67189L7.53814 5.60921C7.57665 5.53254 7.73629 5.53336 7.79996 5.47557C7.86169 5.41952 8.02604 5.14387 8.09134 5.11223C8.2571 5.03194 8.88567 4.86246 9.01392 4.76571C9.0259 4.71448 9.04261 4.70244 9.08002 4.6676L9.09238 4.6562C9.08147 4.5934 9.07114 4.52909 9.06341 4.46588C9.04368 4.30445 9.26463 4.19434 9.39988 4.19233L9.40533 4.17945C9.37808 4.1651 8.84369 4.19735 8.77437 4.21198C8.74554 4.21805 8.73793 4.22646 8.68223 4.22151C8.83011 4.14959 9.77056 4.10925 10.0463 3.99502C10.2579 3.90735 11.2517 4.1765 11.519 4.18532C11.6594 4.18995 12.0471 4.45612 12.1749 4.52999C12.7693 4.80512 13.1662 5.10423 13.6265 5.56125C14.3025 6.23245 14.8139 6.49275 14.5617 7.54956C14.5539 7.26245 14.5959 6.96728 14.5628 6.68348C14.561 6.6677 14.4525 6.48986 14.4355 6.44267C14.4002 6.45906 14.4258 6.5972 14.4275 6.64521C14.4342 6.83878 14.4387 7.03463 14.4093 7.22669C14.3291 7.75126 14.024 8.07042 13.7273 8.48353C13.6605 8.56601 13.6099 8.63172 13.5487 8.71953C13.5214 8.85189 13.4298 9.04253 13.3793 9.17314C13.226 9.57001 13.0388 9.97451 12.8539 10.357C12.7593 10.5526 12.5095 11.2504 12.4004 11.3885C12.3052 11.8933 11.973 12.3075 11.4708 12.4473C10.6955 12.6393 10.0063 12.7577 9.18844 12.7313C9.08549 12.728 8.87113 12.6363 8.77921 12.6333C8.57768 12.6268 8.60409 12.7207 8.38021 12.6605C7.9462 12.5285 7.78815 12.4672 7.52452 12.0825C7.31594 11.6952 7.42202 10.932 7.3096 10.4159C7.20462 10.292 7.16473 10.4674 7.09021 10.2232L7.00971 9.99239Z" fill="var(--fill-0, #9575FE)"/>
<path id="Vector_4" d="M11.5141 7.76979C11.9905 7.78616 12.4686 7.78766 12.9431 7.81661C13.2251 7.83384 13.6429 8.2311 13.7273 8.48353C13.6605 8.56601 13.6099 8.63172 13.5487 8.71953C13.5214 8.85189 13.4298 9.04253 13.3793 9.17314C13.226 9.57001 13.0388 9.97451 12.8539 10.357C12.7593 10.5526 12.5095 11.2504 12.4004 11.3885C12.3052 11.8933 11.973 12.3075 11.4708 12.4473C10.6955 12.6393 10.0063 12.7577 9.18844 12.7313C9.08549 12.728 8.87113 12.6363 8.77921 12.6333C8.57768 12.6268 8.60409 12.7207 8.38021 12.6605C7.9462 12.5285 7.78815 12.4672 7.52452 12.0825C7.31594 11.6952 7.42202 10.932 7.3096 10.4159C7.20462 10.292 7.16473 10.4674 7.09021 10.2232C7.18003 10.2255 7.22119 10.2274 7.30911 10.2129C7.28517 9.67587 7.13467 9.58726 6.76561 9.22134L6.75784 9.13633C6.79748 9.07719 6.95018 9.08691 7.0303 9.06484C7.30414 8.98939 7.57208 8.91155 7.85088 8.85478C7.96893 8.83077 8.14882 8.82406 8.25169 8.79098L8.22933 8.70606L8.28942 8.7442L8.34063 8.89651C8.47315 9.20643 8.61304 9.53913 8.90014 9.73625C9.13543 9.7787 9.76346 9.85087 9.97633 9.79853C10.221 9.65617 10.6578 9.47984 10.8315 9.34451C11.338 8.94975 10.848 8.3709 11.0789 7.92186C11.1416 7.7998 11.3695 7.79701 11.5141 7.76979Z" fill="url(#paint1_linear_0_6)"/>
<path id="Vector_5" d="M9.23963 12.2892C9.39243 12.3075 9.54678 12.3242 9.69894 12.3466C10.0183 12.3935 10.3435 12.3915 10.6659 12.4071C10.984 12.4596 11.1482 12.4642 11.4708 12.4473C10.6955 12.6393 10.0063 12.7577 9.18844 12.7313C9.08549 12.728 8.87113 12.6363 8.77921 12.6333C8.57768 12.6268 8.60409 12.7207 8.38021 12.6605C8.53923 12.6445 8.58145 12.6381 8.71791 12.5535C8.90665 12.4735 9.06195 12.3879 9.23963 12.2892Z" fill="var(--fill-0, #5A197A)"/>
<path id="Vector_6" d="M7.30911 10.2129C7.33886 10.3618 7.37779 10.5215 7.55779 10.5163C7.81085 10.509 7.75739 10.8886 7.73286 11.071C7.69068 11.3848 7.54083 11.5753 7.58112 11.9084C7.52629 11.9815 7.52897 11.9788 7.52452 12.0825C7.31594 11.6952 7.42202 10.932 7.3096 10.4159C7.20462 10.292 7.16473 10.4674 7.09021 10.2232C7.18003 10.2255 7.22119 10.2274 7.30911 10.2129Z" fill="var(--fill-0, #AB2A26)"/>
<path id="Vector_7" d="M13.5487 8.71953C13.5214 8.85189 13.4298 9.04253 13.3793 9.17314C13.226 9.57001 13.0388 9.97451 12.8539 10.357C12.7593 10.5526 12.5095 11.2504 12.4004 11.3885C12.4103 11.206 12.4891 10.6604 12.5944 10.5379C12.891 10.193 12.878 10.0456 12.9253 9.61265C12.9518 9.37057 13.3729 8.93568 13.5487 8.71953Z" fill="var(--fill-0, #47010B)"/>
<path id="Vector_8" d="M9.23963 12.2892C9.46241 12.1283 9.68114 11.9365 9.97235 11.9697C10.2154 11.9973 10.5267 12.3771 10.6659 12.4071C10.3435 12.3915 10.0183 12.3935 9.69894 12.3466C9.54678 12.3242 9.39243 12.3075 9.23963 12.2892Z" fill="var(--fill-0, #AB2A26)"/>
<path id="Vector_9" d="M8.90014 9.73625C9.13543 9.7787 9.76346 9.85087 9.97633 9.79853C9.89873 9.89955 9.72439 10.1611 9.59684 10.1645L9.58798 10.1492C9.65163 10.1194 9.72973 10.0643 9.75124 9.9958C9.54036 9.97968 9.38497 9.97629 9.1753 9.9768C9.05157 9.89178 8.99809 9.84871 8.90014 9.73625Z" fill="var(--fill-0, #FDFB43)"/>
<path id="Vector_10" d="M7.52452 12.0825C7.52897 11.9788 7.52629 11.9815 7.58112 11.9084C7.76996 12.5254 8.11662 12.6066 8.71791 12.5535C8.58145 12.6381 8.53923 12.6445 8.38021 12.6605C7.9462 12.5285 7.78815 12.4672 7.52452 12.0825Z" fill="var(--fill-0, #47010B)"/>
<path id="Vector_11" d="M8.66898 6.78507C8.976 6.32787 9.35177 5.96935 9.70975 5.56609C9.75179 5.51875 9.8095 5.53153 9.8797 5.52856C10.1658 5.60323 10.348 5.79873 10.5163 6.02815C10.5779 6.13106 10.6012 6.1933 10.6283 6.31079C10.8266 6.54605 10.8766 6.65493 10.9301 6.96304L11.0163 7.21223C11.172 7.48554 11.4676 7.60836 11.5141 7.7698C11.3695 7.79701 11.1416 7.7998 11.0789 7.92186C10.848 8.3709 11.338 8.94975 10.8315 9.34451C10.6578 9.47984 10.221 9.65617 9.97633 9.79853C9.76346 9.85087 9.13543 9.7787 8.90014 9.73625C8.61304 9.53913 8.47315 9.20643 8.34063 8.89652L8.28942 8.7442L8.22933 8.70606L8.25169 8.79098C8.14882 8.82406 7.96893 8.83077 7.85088 8.85478C7.57208 8.91155 7.30414 8.9894 7.0303 9.06484C6.95018 9.08691 6.79748 9.07719 6.75784 9.13633L6.76561 9.22134C6.65583 9.13151 6.58272 9.07696 6.46433 8.99909C6.41197 8.77503 6.40182 8.60077 6.39954 8.37178C6.56133 8.14072 6.87391 7.86606 7.16723 7.81253C7.34522 7.76774 7.55498 7.77681 7.69511 7.72509C7.78029 7.54275 7.70442 7.5518 7.91362 7.45334C8.2771 7.23602 8.41805 7.12595 8.66898 6.78507Z" fill="var(--fill-0, #FEFC82)"/>
<path id="Vector_12" d="M11.0163 7.21223C11.172 7.48554 11.4676 7.60836 11.5141 7.76979C11.3695 7.79701 11.1416 7.7998 11.0789 7.92186C10.848 8.3709 11.338 8.94975 10.8315 9.34451C10.6578 9.47984 10.221 9.65617 9.97633 9.79853C9.76346 9.85087 9.13543 9.7787 8.90014 9.73625C8.61304 9.53913 8.47315 9.20643 8.34063 8.89652C8.3247 8.65725 8.53654 8.54501 8.70676 8.40326C9.03966 8.12606 9.03053 7.73694 9.43829 7.53268C9.69773 7.40273 9.96784 7.55106 10.1041 7.47485L10.1052 7.44524C9.95367 7.21569 9.24271 7.40508 9.15204 7.6407C9.12097 7.72146 9.09423 7.79682 9.04345 7.86854C9.02947 7.84818 9.03787 7.84336 9.05303 7.80899C9.08867 7.7474 9.06628 7.65669 9.07981 7.59872C9.18073 7.16625 10.0821 7.35884 10.4014 7.33105C10.5902 7.31462 10.744 7.203 10.9259 7.23612C10.9291 7.31458 10.931 7.40195 10.9866 7.45818L11.0184 7.42889C10.9977 7.34046 10.9944 7.32225 11.0121 7.23251L11.0163 7.21223Z" fill="var(--fill-0, #FDFBD2)"/>
<path id="Vector_13" d="M7.16723 7.81253C7.4922 7.83052 7.73856 7.83597 8.05432 7.76383C8.115 7.74996 8.38735 7.99062 8.41688 8.06974C8.40098 8.1229 8.39614 8.16588 8.35316 8.19628L8.32556 8.1682L8.31104 8.23858C8.25466 8.18106 8.25251 8.16158 8.23022 8.0851C8.17659 8.05256 8.15551 8.05781 8.09468 8.06125L8.06546 8.08951C8.10202 8.12425 8.13112 8.12118 8.18245 8.12686C8.24779 8.19326 8.24978 8.57147 8.28942 8.7442L8.22933 8.70606L8.25169 8.79098C8.14882 8.82406 7.96893 8.83077 7.85088 8.85478C7.57208 8.91155 7.30414 8.98939 7.0303 9.06484C6.95018 9.08691 6.79748 9.07719 6.75784 9.13633L6.76561 9.22134C6.65583 9.13151 6.58272 9.07696 6.46433 8.99909C6.41197 8.77503 6.40182 8.60077 6.39954 8.37178C6.56133 8.14072 6.87391 7.86606 7.16723 7.81253Z" fill="var(--fill-0, #FDFB43)"/>
<path id="Vector_14" d="M7.91362 7.45334C8.2771 7.23602 8.41805 7.12595 8.66898 6.78507C8.75604 6.96886 8.84785 7.18381 8.59569 7.27607C8.39781 7.34848 8.12226 7.40332 7.91362 7.45334Z" fill="var(--fill-0, #F2D0CA)"/>
<path id="Vector_15" d="M10.6283 6.31079C10.8266 6.54605 10.8766 6.65493 10.9301 6.96304C10.8824 6.88611 10.6984 6.80474 10.6036 6.75279C10.5944 6.60731 10.6141 6.45656 10.6283 6.31079Z" fill="var(--fill-0, #ED5D2A)"/>
<path id="Vector_16" d="M6.46433 8.99909C6.58272 9.07696 6.65583 9.13151 6.76561 9.22134C7.13467 9.58726 7.28517 9.67587 7.30911 10.2129C7.22119 10.2274 7.18003 10.2255 7.09021 10.2232L7.00971 9.99239C6.93347 9.8054 6.6222 9.64878 6.52612 9.41555L6.52038 9.40142C6.46993 9.27935 6.47122 9.13237 6.46433 8.99909Z" fill="var(--fill-0, #47010B)"/>
<path id="Vector_17" d="M17.8216 10.537C17.8226 10.9125 17.848 11.9573 17.7562 12.2727C17.6881 12.3048 17.5245 12.3741 17.4718 12.4128C17.2367 12.5855 17.4834 12.9226 17.3455 13.1464C17.2553 13.2928 17.1168 13.3335 16.9626 13.3903C16.8543 13.7197 16.9529 14.0043 16.6812 14.1415C16.6472 14.1585 16.613 14.1749 16.5785 14.1906C16.4874 14.3502 16.4637 14.4471 16.3922 14.59C16.2948 14.6385 16.197 14.6862 16.0989 14.7332C15.8915 15.0814 15.4672 15.5588 15.1649 15.8278C15.0811 16.13 15.0739 16.5566 15.0993 16.8737C15.2679 16.9045 15.3863 16.9023 15.4944 17.0294C15.5753 17.2965 15.5766 17.8317 15.6147 18.1234C15.6342 18.273 15.3986 18.4555 15.3341 18.5629C14.9446 18.83 14.6711 18.7447 14.2275 18.752C13.9552 18.7565 13.6698 18.7731 13.3973 18.7896C13.2603 19.1623 13.1862 19.0871 12.917 19.3295C12.7161 19.5104 12.7912 19.6546 12.4625 19.7695C12.2116 19.9047 12.4704 20.2002 11.9298 20.0939C11.3743 19.9845 11.581 19.4265 11.344 19.2732L11.0954 19.1834C11.0357 19.0871 10.9657 18.9481 10.9118 18.8463C10.794 18.7968 10.6723 18.7167 10.5665 18.6462C10.5091 18.5236 10.4827 18.4672 10.4456 18.3357L10.418 18.3015C10.2155 18.2803 10.049 18.3137 9.84988 18.3479C9.69735 18.359 9.54485 18.3552 9.42705 18.4587C9.40665 18.4877 9.3538 18.5587 9.33971 18.5861C9.20834 18.6915 8.9628 18.7519 8.79838 18.8014C8.74207 18.8611 8.63422 19.1121 8.59312 19.2004C8.51093 19.2353 8.38653 19.2926 8.30411 19.3159C8.20632 19.3731 8.22894 19.517 8.22976 19.6261C8.22722 19.7872 8.22189 19.9518 8.18582 20.1098C8.03305 20.13 7.91993 20.1385 7.76582 20.1453C7.41677 20.1486 7.41357 20.0963 7.29451 19.7785C7.03145 19.6388 6.94918 19.6165 6.82808 19.3449C6.51517 19.1433 6.39696 19.191 6.15794 18.8574C5.88297 18.7829 5.57337 18.69 5.29303 18.6468C5.17162 18.6281 4.87132 18.6967 4.75851 18.6486C4.5811 18.5729 4.35894 18.426 4.18532 18.3276C3.89152 18.2041 3.72291 18.049 3.68544 17.714C3.65825 17.4707 3.82376 17.3654 4.04804 17.3462L4.11233 17.3004C4.17488 17.163 4.14924 15.886 4.14186 15.6526C3.93481 15.5906 3.87278 15.5563 3.70433 15.4288L3.60724 15.1841C3.1063 14.9153 3.23254 14.7985 3.23189 14.2642C2.68671 14.1653 2.74647 14.0065 2.78098 13.5306L2.79759 13.6519L2.80129 13.5979C2.93793 13.6551 3.03294 13.7643 3.18138 13.7142C3.20554 13.6599 3.20307 13.6106 3.20498 13.5517C3.24083 13.5108 3.21917 13.5234 3.27167 13.5121C3.29204 13.5626 3.24417 13.5984 3.22883 13.6794C3.27383 13.6844 3.29095 13.6838 3.3253 13.7111C3.4286 13.7946 3.53848 13.8697 3.65388 13.9355C4.09391 14.1924 4.09562 14.0589 4.28751 14.6069C4.33954 14.7555 4.99084 15.1708 5.13823 15.0389C5.09697 14.9416 4.56969 14.5504 4.48393 14.4372C4.38707 14.3094 3.57623 13.4742 3.63794 13.3542C4.11735 14.0269 4.5941 14.5293 5.22783 15.0508C5.35722 15.1573 5.4663 15.3246 5.59211 15.4344C5.78521 15.603 6.10825 15.5988 6.31493 15.7579C6.62763 15.9699 6.87869 16.2027 7.21699 16.3669C7.52428 16.5159 7.76012 16.4567 8.0456 16.5161C8.63974 16.6398 9.04571 16.8363 9.6746 16.7576C9.97184 16.7204 10.0751 16.6298 10.3261 16.5631C10.5202 16.5114 10.9932 16.5119 11.2068 16.5006C11.6758 16.4757 11.7949 16.2675 12.1892 16.0884C12.3077 16.0381 12.5465 16.0322 12.6525 15.9739C12.948 15.8113 13.2414 15.6124 13.54 15.4497C13.6552 15.387 13.7962 15.2102 13.9119 15.1399C14.0767 15.0397 14.2733 15.02 14.4256 14.8953C14.8094 14.5402 15.1196 14.1153 15.419 13.6916C15.5944 13.4434 15.7809 13.2375 15.9457 12.9703C16.1273 12.6758 16.2163 12.4424 16.4475 12.1843C16.4753 11.9035 16.4554 11.5746 16.4823 11.3451C16.4842 11.415 16.5155 12.1842 16.4753 12.2146C16.341 12.3161 16.3112 12.3856 16.2272 12.5374L16.2651 12.5415C16.5227 12.3792 16.7434 12.0273 16.9016 11.7576L16.9069 11.7483C17.031 11.7377 17.0675 11.6387 17.1893 11.6178C17.2626 11.6052 17.2816 11.6447 17.3503 11.7004C17.4097 11.6742 17.7544 11.4966 17.7785 11.4922C17.7807 11.2398 17.761 10.7822 17.8172 10.5542L17.8216 10.537Z" fill="var(--fill-0, #6744FD)"/>
<path id="Vector_18" d="M8.64261 18.7133C8.6447 18.325 8.70153 18.1908 9.13639 18.195C9.18479 18.2225 9.22124 18.2387 9.25907 18.2798C9.24867 18.3367 9.24094 18.3428 9.20011 18.3848C9.07975 18.4387 8.95416 18.3338 8.81009 18.2861L8.78356 18.3074C8.77948 18.355 8.77782 18.3867 8.77864 18.4344C8.75103 18.5364 8.68836 18.7294 8.79838 18.8014C8.74207 18.8611 8.63422 19.1121 8.59312 19.2004C8.51093 19.2353 8.38653 19.2926 8.30411 19.3159C8.22985 19.2473 8.20192 18.9175 8.19131 18.8126C8.38292 18.7272 8.43613 18.7296 8.64261 18.7133Z" fill="var(--fill-0, #8061FA)"/>
<path id="Vector_19" d="M4.04804 17.3462C4.14233 17.5516 4.10413 18.056 4.18532 18.3276C3.89152 18.2041 3.72291 18.049 3.68544 17.714C3.65825 17.4707 3.82376 17.3654 4.04804 17.3462Z" fill="var(--fill-0, #3714F7)"/>
<path id="Vector_20" d="M10.4456 18.3357C10.5161 18.3025 10.8034 18.2245 10.8748 18.2568C11.0561 18.3387 10.9754 18.5594 11.0802 18.7203L11.0611 18.7907C11.0014 18.8219 10.9391 18.8294 10.9118 18.8463C10.794 18.7968 10.6723 18.7167 10.5665 18.6462C10.5091 18.5236 10.4827 18.4672 10.4456 18.3357Z" fill="var(--fill-0, #9575FE)"/>
<path id="Vector_21" d="M7.76582 20.1453C7.76444 20.0025 7.66812 19.7628 7.78114 19.6581C7.90681 19.5916 8.08432 19.6188 8.22976 19.6261C8.22722 19.7872 8.22189 19.9518 8.18582 20.1098C8.03305 20.13 7.91993 20.1385 7.76582 20.1453Z" fill="var(--fill-0, #8061FA)"/>
<path id="Vector_22" d="M11.0802 18.7203L11.0968 18.7242C11.2392 18.757 11.3559 18.7147 11.4496 18.8161C11.5002 18.9219 11.4371 19.2192 11.344 19.2732L11.0954 19.1834C11.0357 19.0871 10.9657 18.9481 10.9118 18.8463C10.9391 18.8294 11.0014 18.8219 11.0611 18.7907L11.0802 18.7203Z" fill="var(--fill-0, #9575FE)"/>
<path id="Vector_23" d="M8.77864 18.4344C8.78979 18.4914 8.79435 18.5107 8.77226 18.565L8.79478 18.5918C8.8805 18.5372 8.83101 18.3942 9.00558 18.4204C9.0962 18.434 9.19862 18.523 9.26258 18.5847C9.3054 18.5371 9.36569 18.4749 9.39676 18.4215L9.42705 18.4587C9.40665 18.4877 9.3538 18.5587 9.33971 18.5861C9.20834 18.6915 8.9628 18.7519 8.79838 18.8014C8.68836 18.7294 8.75103 18.5364 8.77864 18.4344Z" fill="var(--fill-0, #9575FE)"/>
<path id="Vector_24" d="M9.87906 1.21034C10.0613 1.3165 10.1385 1.31646 10.3315 1.37019C10.24 1.4247 10.1944 1.34276 10.163 1.38792C10.4023 1.54096 10.6348 1.71189 10.8686 1.86931C10.9683 1.93635 11.8876 2.02006 11.729 2.31988C11.5817 2.35319 11.4998 2.53641 11.3803 2.57572C11.2927 2.41504 11.0609 2.55644 10.9502 2.34158C10.9058 2.25524 10.8867 2.11048 10.8225 2.06368C10.6749 2.06483 10.6528 2.19386 10.4542 2.23006C10.0159 2.30992 9.98318 2.14561 9.55371 2.3559C9.51618 2.40608 9.29904 2.69175 9.29619 2.72641L9.31106 2.72114C9.37461 2.69899 9.44221 2.69087 9.50921 2.69729L9.50123 2.71255C9.45098 2.72219 9.40935 2.73158 9.35989 2.74401C9.11045 2.75881 8.71194 2.77225 8.47803 2.80969C8.2528 2.9982 8.06876 3.17098 7.7634 3.20545C7.40513 3.24592 7.20085 3.43448 6.89559 3.59535L6.03688 4.05565C5.93037 4.11204 5.74672 4.19454 5.65339 4.25156C5.39979 4.40649 5.02456 4.90516 4.84753 5.04806L4.82102 5.04326C4.84885 5.00561 4.84042 5.02612 4.84667 4.97926C4.78312 4.98869 4.73624 5.00235 4.67654 4.98192C4.56196 4.76466 4.46806 4.71046 4.28099 4.55302C4.0854 4.38841 4.49099 4.12925 4.52318 3.98512C4.47011 4.01715 4.29282 4.26355 4.13805 4.36738C4.17131 4.27188 4.90192 3.55573 5.02968 3.44874C5.44446 3.10131 6.10163 2.80535 6.42493 2.35508C6.37088 2.38323 6.33146 2.3877 6.27533 2.36564L6.29393 2.31859C6.55182 2.3035 6.74313 2.40458 6.84766 2.11335C7.00772 1.79276 7.13418 1.84148 7.47048 1.84085C7.97336 1.88592 7.67294 1.57234 8.03968 1.47805C8.71929 1.30333 9.23863 1.58022 9.87906 1.21034Z" fill="var(--fill-0, #D6C2FD)"/>
<path id="Vector_25" d="M3.66852 7.71976C3.6233 7.54724 3.66282 7.45953 3.64405 7.3L3.61309 7.28917C3.52962 7.33663 3.40676 7.49325 3.31263 7.57485C3.24015 7.58506 3.17475 7.55537 3.13501 7.49382C3.10224 7.12152 2.95302 6.64775 3.17652 6.35705C3.26413 6.24311 3.41398 6.05003 3.4779 5.93467C3.52296 5.85336 3.51529 5.5504 3.55649 5.44261C3.72135 5.32317 4.09701 5.01143 4.27122 4.98309C4.45885 5.07097 4.42421 5.22024 4.42503 5.40241C4.48014 5.32483 4.3985 5.22592 4.51557 5.19902L4.56034 5.24161C4.50774 5.34477 4.40426 5.54544 4.39858 5.65509L4.4126 5.66662C4.42251 5.65052 4.45171 5.60038 4.46203 5.58824C4.60058 5.42528 4.54869 5.18179 4.72707 5.06108C4.76893 5.05938 4.78033 5.05485 4.82102 5.04326L4.84753 5.04806C4.61672 5.26741 4.62798 5.41408 4.47464 5.62499C4.24622 5.9391 4.16551 6.25419 4.00109 6.56484C3.72949 7.07796 3.68562 7.03834 3.67022 7.64418L3.66852 7.71976Z" fill="var(--fill-0, #D6C2FD)"/>
<path id="Vector_26" d="M2.71343 6.39007C2.69772 6.62126 2.62162 7.63881 2.51668 7.77359C2.41676 7.70066 2.41621 7.68752 2.27983 7.70444C2.33186 7.37451 2.26868 7.04605 2.3659 6.73005C2.3948 6.63608 2.45817 6.59062 2.53421 6.53182C2.58899 6.50979 2.62285 6.47393 2.66753 6.43472L2.71343 6.39007Z" fill="var(--fill-0, #9575FE)"/>
<path id="Vector_27" d="M2.26978 11.2924C2.35657 11.3846 2.38252 11.7072 2.36203 11.8177C2.28892 12.2122 2.43171 12.297 2.53146 12.6429C2.57024 12.7774 2.57326 13.0918 2.5846 13.2488C2.75369 13.3609 2.89544 13.2208 2.80129 13.5979L2.79759 13.6519L2.78098 13.5306L2.78361 13.4085C2.65404 13.1893 2.33986 13.4034 2.31377 12.9879C2.27832 12.423 2.35881 11.8523 2.26978 11.2924Z" fill="var(--fill-0, #6744FD)"/>
<path id="Vector_28" d="M10.7997 1.41814C11.2449 1.37663 11.3887 1.32569 11.5876 1.75639C11.2335 1.72858 11.039 1.80026 10.7997 1.41814Z" fill="var(--fill-0, #9575FE)"/>
<path id="Vector_29" d="M12.0896 2.46752C12.1873 2.46969 12.3714 2.52763 12.4112 2.62549C12.4047 2.71778 12.4011 2.69672 12.3415 2.78295C12.0477 2.8657 11.8386 2.70266 12.0896 2.46752Z" fill="var(--fill-0, #D6C2FD)"/>
<path id="Vector_30" d="M9.42705 18.4587C9.54485 18.3552 9.69735 18.359 9.84988 18.3479L9.76722 18.3851L9.76402 18.4023C9.83112 18.4212 9.89709 18.427 9.96622 18.4354C9.92236 18.7184 9.98827 18.797 10.0024 19.0719C10.003 19.0823 9.9855 19.161 9.98218 19.1777C9.98534 19.3025 10.0128 19.5546 9.93893 19.6405C9.86338 19.6585 9.84385 19.6368 9.78428 19.5817C10.0867 19.5126 9.91399 19.0661 9.80823 18.8908C9.78418 19.0446 9.77242 19.1237 9.71798 19.2694C9.72923 18.8912 9.75797 18.9118 9.4889 18.6677C9.43601 18.6497 9.42041 18.6243 9.39225 18.5774L9.33971 18.5861C9.3538 18.5587 9.40665 18.4877 9.42705 18.4587Z" fill="var(--fill-0, #8061FA)" fill-opacity="0.278431"/>
<path id="Vector_31" d="M9.80823 18.8908C9.91399 19.0661 10.0867 19.5126 9.78428 19.5817C9.69712 19.4677 9.71262 19.4108 9.71798 19.2694C9.77242 19.1237 9.78417 19.0446 9.80823 18.8908Z" fill="var(--fill-0, #9575FE)" fill-opacity="0.831373"/>
</g>
<defs>
<linearGradient id="paint0_linear_0_6" x1="15.6649" y1="14.0813" x2="3.61672" y2="4.36244" gradientUnits="userSpaceOnUse">
<stop stop-color="#9C73FF"/>
<stop offset="1" stop-color="#C09EFC"/>
</linearGradient>
<linearGradient id="paint1_linear_0_6" x1="11.8133" y1="12.2446" x2="9.17052" y2="7.69707" gradientUnits="userSpaceOnUse">
<stop stop-color="#FFA800"/>
<stop offset="1" stop-color="#FFF910"/>
</linearGradient>
</defs>
</svg>
