<svg preserveAspectRatio="none" width="100%" height="100%" overflow="visible" style="display: block;" viewBox="0 0 22 18.5625" fill="none" xmlns="http://www.w3.org/2000/svg">
<path id="Vector" d="M8.18555 0.89375L9.68086 3.4375H9.625H6.53125C5.58164 3.4375 4.8125 2.66836 4.8125 1.71875C4.8125 0.769141 5.58164 0 6.53125 0H6.62578C7.26602 0 7.86328 0.339453 8.18555 0.89375ZM1.03125 3.4375C0.459766 3.4375 0 3.89727 0 4.46875V6.53125C0 7.10273 0.459766 7.5625 1.03125 7.5625H10.3125V3.4375H1.03125ZM11.6875 3.4375V7.5625H20.9688C21.5402 7.5625 22 7.10273 22 6.53125V4.46875C22 3.89727 21.5402 3.4375 20.9688 3.4375H11.6875ZM20.9688 8.9375H11.6875V18.5625H19.9375C21.0762 18.5625 22 17.6387 22 16.5V8.9375H20.9688ZM10.3125 8.9375H1.03125V16.5C1.03125 17.6387 1.95508 18.5625 3.09375 18.5625H10.3125V8.9375ZM12.3191 3.4375L13.8145 0.89375C14.1367 0.339453 14.734 0 15.3742 0H15.4688C16.4184 0 17.1875 0.769141 17.1875 1.71875C17.1875 2.66836 16.4184 3.4375 15.4688 3.4375H12.375H12.3191Z" fill="var(--fill-0, #9A9DB2)"/>
</svg>
