<svg preserveAspectRatio="none" width="100%" height="100%" overflow="visible" style="display: block;" viewBox="0 0 23 23" fill="none" xmlns="http://www.w3.org/2000/svg">
<g id="image" clip-path="url(#clip0_0_61)">
<path id="Vector" d="M10.6418 3.83204C10.7005 3.77526 10.8049 3.67358 10.8734 3.64024C11.1255 3.51763 11.6817 3.51451 11.9638 3.52634C12.1995 3.53623 12.7936 3.49128 12.9406 3.65693C13.0259 3.75298 13.0835 3.90162 13.1359 4.02343C13.2705 4.05099 13.6031 4.06233 13.7319 4.02592C14.2483 4.09759 14.1664 4.29469 14.4734 4.4465L14.4894 4.45122C14.6331 4.54796 14.9274 4.55564 15.0941 4.54418C15.4413 4.52031 15.5273 4.74894 15.6417 5.02977C16.1424 5.08004 16.4596 4.95643 16.9597 5.08682C17.0974 5.21875 17.1377 5.29247 17.2303 5.46293C17.4179 5.4941 17.5321 5.50619 17.7166 5.52586C18.0759 5.56425 18.6194 5.50983 18.8938 5.75874L18.9993 5.87028C19.2422 6.24232 19.7205 5.84784 19.9733 6.22853C20.0208 6.29998 20.0672 6.41749 20.1024 6.49692C20.2079 6.56457 20.3831 6.65632 20.4698 6.71798C20.5376 7.12243 20.5149 7.54825 20.6048 7.94535C20.6353 8.08014 20.7561 8.17035 20.8186 8.28979C20.9565 8.55355 20.9494 8.96888 20.9587 9.2644C20.9835 10.0458 20.6427 10.2312 20.5733 10.865C20.4917 11.61 20.6637 15.0633 20.4081 15.3907C20.3552 15.4584 20.2256 15.5089 20.1459 15.5398C20.0905 15.5672 20.0937 15.5549 20.0681 15.5994C20.0301 15.9398 20.083 16.2442 19.9707 16.5583C19.9027 16.6356 19.7948 16.7371 19.7408 16.8076C19.5943 16.9986 19.5794 17.2761 19.4768 17.4838C19.3456 17.5485 19.2136 17.6156 19.0797 17.6739C19.0553 17.7647 19.0255 17.8664 19.0058 17.9574C18.9838 17.973 18.8712 18.0502 18.8604 18.0643C18.8664 18.0992 18.8666 18.0967 18.8887 18.1248C18.7427 18.2925 18.58 18.2324 18.5742 18.6225C18.5739 18.6402 18.5807 18.6542 18.5876 18.6707C18.5652 18.7733 18.5214 18.8733 18.4823 18.9711C18.0908 19.1622 18.1947 19.1468 17.9154 19.471C17.8766 19.516 17.7001 19.6112 17.6447 19.665C17.5669 19.7405 17.5141 19.8834 17.4439 19.9569C17.377 20.0269 17.1961 20.1167 17.1126 20.1712C16.6977 20.4416 16.6345 20.4816 16.1696 20.5942C16.138 20.6446 16.0182 20.8548 15.9979 20.8743C15.6773 21.181 15.6245 21.1462 15.3913 21.5386C15.1551 21.5417 14.8825 21.5512 14.6494 21.5464C14.5963 21.6773 14.5007 21.9329 14.4381 22.0481C14.192 22.0633 13.823 22.0603 13.572 22.0507C13.5253 22.4058 13.5361 22.6426 13.5402 23H10.0516C10.0357 22.7078 10.0464 22.3515 10.0489 22.0536C9.80645 22.056 9.55666 22.0611 9.31163 22.0577C9.00641 22.0534 9.07613 21.7308 8.94354 21.5921C8.86908 21.5143 8.30787 21.5615 8.15485 21.5561C8.1002 21.4435 8.04088 21.2945 7.99021 21.177C7.57001 20.9068 7.58252 21.0463 7.4002 20.6035C7.32033 20.5682 6.89616 20.5775 6.68835 20.5308C6.4873 20.2737 6.53575 20.2225 6.2217 19.9825C6.04684 19.8488 5.81947 19.5543 5.63264 19.3984C5.46338 19.2572 5.29045 19.027 5.11361 18.8791C5.01337 18.7834 5.01759 18.7138 4.87948 18.6235L4.78083 18.5403C4.54675 18.4541 4.51263 18.17 4.39154 18.0888C4.02832 17.8456 4.05952 17.9713 4.06262 17.4729C4.05135 17.3554 4.07731 17.1899 4.01691 17.1004L3.92381 17.0854C3.60561 16.9983 3.53196 16.8835 3.53549 16.5498C3.5385 16.2654 3.51428 15.9948 3.45467 15.7172C3.37428 15.6809 3.16944 15.5954 3.14671 15.5166C2.97488 14.9204 3.034 14.0117 3.03452 13.4026L3.03169 10.976C3.02672 9.67121 2.95781 8.37151 3.01132 7.06882C2.94463 6.55415 3.26106 6.57066 3.37026 6.41345C3.77937 5.82453 3.80203 6.14055 4.41319 5.99851C4.54459 5.96798 4.52433 5.62413 4.7973 5.56688C5.18322 5.4859 5.54531 5.59158 5.92259 5.51326C6.20778 5.32093 6.04267 5.16907 6.45325 5.08736C6.94647 4.9892 7.40438 5.04843 7.89401 4.99437C8.04106 4.97813 8.06588 4.6796 8.24298 4.61617C8.63416 4.47606 9.04378 4.60094 9.43559 4.50793C9.55908 4.47763 9.70816 4.25006 9.85442 4.17565L9.86781 4.16895C10.0486 4.07682 10.2765 4.05418 10.496 3.96029C10.5691 3.91737 10.5855 3.89446 10.6418 3.83204Z" fill="url(#paint0_linear_0_61)"/>
<path id="Vector_2" d="M4.06262 17.4729C4.29206 17.458 4.50034 17.6052 4.62192 17.7934L4.61586 17.8066C4.5007 17.703 4.33656 17.5401 4.1871 17.5026L4.13825 17.5149C4.11289 17.5811 4.11397 17.5519 4.14054 17.6262C4.18261 17.6631 4.38067 17.8126 4.38386 17.8234C4.48323 18.159 4.5226 18.2697 4.78056 18.5044L4.78083 18.5403C4.54675 18.4541 4.51263 18.17 4.39154 18.0888C4.02832 17.8456 4.05952 17.9713 4.06262 17.4729Z" fill="var(--fill-0, #5C5E77)"/>
<path id="Vector_3" d="M11.2873 8.0504C11.5323 8.02475 12.1311 8.00465 12.317 8.15372C12.7588 8.50784 12.536 9.64592 12.6701 10.1729C12.7452 10.4679 12.8262 10.573 12.9308 10.8298C12.9854 10.9639 13.039 11.313 13.0644 11.4569C13.5526 11.9922 13.8045 11.9529 14.4722 12.0673C14.6355 12.1161 14.7528 12.1324 14.8353 12.2891C15.2204 13.0209 14.79 13.4669 14.6085 14.129C14.4996 14.5261 14.6074 15.1673 14.4969 15.5847C14.4373 15.8099 14.2561 15.9839 14.1635 16.1953C14.0777 16.4106 14.0583 16.6589 13.9982 16.8952C13.7921 17.039 13.5777 17.3211 13.44 17.5288C13.1681 17.5937 12.5502 17.641 12.2466 17.6711C11.354 17.7279 11.0106 17.7048 10.1345 17.5155C9.96938 17.1711 9.92639 17.1325 9.6127 16.8998C9.58357 16.8238 9.55598 16.6907 9.54314 16.6089C9.48278 16.2251 9.35296 16.1493 9.08529 15.9003C9.01984 15.6017 9.02054 14.9767 8.99125 14.6337C8.67228 14.333 8.57765 14.1222 8.5598 13.6829C8.54695 13.3668 8.55708 13.0532 8.56373 12.7374C8.6254 12.6291 9.02764 12.1834 9.13486 12.0602C9.50026 11.9858 9.80287 12.0834 10.1646 11.8422C10.6783 11.4997 10.5393 11.2408 10.6524 10.7238C10.7078 10.4705 10.9573 10.1324 10.9793 9.85867C11.0138 9.42928 11.0183 8.98554 11.0376 8.55447C11.0437 8.41964 11.04 8.21655 11.0666 8.09162C11.1245 8.0502 11.2124 8.05469 11.2873 8.0504Z" fill="var(--fill-0, #FEFEFE)"/>
<path id="Vector_4" d="M15.045 20.9458C15.106 20.9433 15.1134 20.9468 15.1687 20.9732C15.3208 21.2314 14.9183 21.319 14.7251 21.2858C14.6346 21.2812 14.5701 21.2861 14.5016 21.2285C14.4309 21.074 14.5546 21.0219 14.6735 20.9543L15.045 20.9458Z" fill="var(--fill-0, #8C90A6)"/>
<path id="Vector_5" d="M4.33748 16.9372C4.63782 16.9463 4.66361 17.1631 4.56433 17.3961C4.2636 17.4005 4.27766 17.1665 4.33748 16.9372Z" fill="var(--fill-0, #8C90A6)"/>
<path id="Vector_6" d="M15.5695 20.4701C15.6291 20.4504 15.6947 20.4649 15.7404 20.5079C15.7862 20.5509 15.8048 20.6155 15.7888 20.6762C15.7729 20.7369 15.7251 20.7841 15.6642 20.7991C15.5748 20.8212 15.484 20.7686 15.4585 20.6802C15.433 20.5917 15.482 20.4989 15.5695 20.4701Z" fill="var(--fill-0, #8C90A6)"/>
<path id="Vector_7" d="M17.745 18.9507C17.8504 19.0256 17.8068 19.1465 17.7448 19.24C17.7004 19.307 17.6488 19.2988 17.574 19.3104L17.5037 19.2557C17.4715 19.1757 17.4733 19.2097 17.4958 19.1278C17.5595 19.0466 17.6547 19.002 17.745 18.9507Z" fill="var(--fill-0, #8C90A6)"/>
<path id="Vector_8" d="M18.5876 18.6707C18.5807 18.6542 18.5739 18.6402 18.5742 18.6225C18.58 18.2324 18.7427 18.2925 18.8887 18.1248C18.8666 18.0967 18.8664 18.0992 18.8604 18.0643C18.8712 18.0502 18.9838 17.973 19.0058 17.9574C18.99 18.0743 18.9744 18.2233 18.9446 18.3349C18.7549 18.4469 18.6928 18.4725 18.5876 18.6707Z" fill="var(--fill-0, #5C5E77)" fill-opacity="0.988235"/>
</g>
<defs>
<linearGradient id="paint0_linear_0_61" x1="17.0047" y1="20.9898" x2="7.71093" y2="3.91528" gradientUnits="userSpaceOnUse">
<stop stop-color="#7B8197"/>
<stop offset="1" stop-color="#9EA3B8"/>
</linearGradient>
<clipPath id="clip0_0_61">
<rect width="23" height="23" fill="white"/>
</clipPath>
</defs>
</svg>
