<svg preserveAspectRatio="none" width="100%" height="100%" overflow="visible" style="display: block;" viewBox="0 0 18 18" fill="none" xmlns="http://www.w3.org/2000/svg">
<g id="image">
<path id="Vector" d="M4.24143 4.35788C4.57546 4.18361 4.52468 3.93154 5.06204 3.93019C5.6276 3.92876 6.19745 3.93195 6.76362 3.93574L9.44497 3.93676L11.5339 3.93968C11.9151 3.93945 12.3316 3.92945 12.713 3.95838C12.8249 3.96686 12.8737 4.06343 12.9352 4.15041L12.9439 4.17155C13.0312 4.31698 13.1844 4.33696 13.2543 4.42756C13.6139 4.89319 14.0423 5.28363 14.4716 5.68188C14.4973 5.70574 14.5658 5.82659 14.588 5.86436C14.6961 5.91567 14.7801 5.9429 14.8627 6.03211C14.912 6.20578 14.9355 6.38866 14.9426 6.56882C15.1927 6.65053 15.3044 6.65471 15.3052 6.95238C15.306 7.25739 15.3034 7.56348 15.3033 7.86853L15.3038 9.78156L15.3058 15.7863L15.3016 16.6966C15.301 16.7799 15.2917 17.0312 15.2971 17.1021C15.2756 17.2521 15.2654 17.3793 15.1972 17.5164C15.1304 17.5637 15.0581 17.6129 14.9947 17.6641C14.9506 17.7954 14.9386 17.856 14.9345 18H4.64314C4.65221 17.974 4.67731 17.9024 4.65933 17.8813C4.50234 17.6973 4.42078 17.6307 4.32956 17.4058C4.27152 17.2628 4.15753 17.192 4.02142 17.1249C4.00549 16.9915 3.97951 16.8762 3.96596 16.7323C3.94675 16.4561 3.9561 16.1085 3.95627 15.8265L3.95703 14.3449L3.95684 9.67632L3.9561 6.38819C3.95604 5.84128 3.94313 5.25419 3.97782 4.70853C3.98424 4.60749 4.00978 4.50598 4.09217 4.44273C4.16322 4.41195 4.17929 4.40371 4.24143 4.35788Z" fill="var(--fill-0, #8388A0)"/>
<path id="Vector_2" d="M3.96596 16.7323C4.01432 16.794 4.01006 16.7872 4.09059 16.8007C4.22425 16.8233 4.32475 16.8686 4.43976 16.9363C4.37846 17.0644 4.29242 17.2612 4.32956 17.4058C4.27152 17.2628 4.15753 17.192 4.02142 17.1249C4.00549 16.9915 3.97951 16.8762 3.96596 16.7323Z" fill="var(--fill-0, #686A87)"/>
<path id="Vector_3" d="M8.17638 10.885C8.5564 10.8406 9.1923 10.9372 9.60066 10.9497C10.709 10.9835 11.9257 10.8734 13.0099 11.0537C12.8525 11.3551 12.7981 11.5478 12.522 11.7532C12.273 11.8016 11.4278 11.7909 11.1357 11.7916L8.74413 11.7923C7.89098 11.7965 7.18843 11.8199 6.33201 11.7562C6.33359 11.4944 6.33844 11.2327 6.3466 10.971C6.63126 10.9637 6.91601 10.9605 7.20076 10.9613C7.6057 10.9615 7.78191 10.9542 8.17638 10.885Z" fill="var(--fill-0, #FEFEFE)"/>
<path id="Vector_4" d="M10.5832 7.83139C11.2622 7.81944 12.3224 7.78778 12.9591 7.891C12.9635 8.129 12.9325 8.37459 12.906 8.61128C12.3817 8.67359 11.6983 8.66081 11.167 8.66211L8.65644 8.66853C7.85863 8.67646 7.10604 8.65633 6.31137 8.64478C6.33698 8.45181 6.32607 8.05755 6.32398 7.85814C7.72107 7.81775 9.18026 7.84174 10.5832 7.83139Z" fill="var(--fill-0, #FEFEFE)"/>
<path id="Vector_5" d="M6.74687 13.7031C7.34808 13.6634 8.1482 13.7071 8.76414 13.7057C9.3027 13.7045 10.1129 13.6734 10.6126 13.7914C10.5932 13.9507 10.5374 14.2737 10.4346 14.391C10.3217 14.5198 10.231 14.5175 10.0766 14.5303C9.77941 14.5523 9.43833 14.5235 9.14015 14.538C8.65443 14.5771 8.15745 14.5581 7.67424 14.5815C7.15006 14.6068 6.823 14.5655 6.31202 14.4762C6.33025 14.2436 6.32957 13.9689 6.33386 13.7322C6.45827 13.7117 6.61809 13.7088 6.74687 13.7031Z" fill="var(--fill-0, #FEFEFE)"/>
</g>
</svg>
