<svg preserveAspectRatio="none" width="100%" height="100%" overflow="visible" style="display: block;" viewBox="0 0 23 23" fill="none" xmlns="http://www.w3.org/2000/svg">
<g id="image">
<path id="Vector" d="M5.79827 4.94466C5.92414 4.84345 6.1078 4.79006 6.21975 4.67971C6.298 4.60254 6.31137 4.46703 6.41055 4.40816C6.6032 4.29374 6.86467 4.36697 7.07131 4.29419C7.41979 4.17147 7.54926 3.87954 7.9717 3.83509C8.22944 3.80796 8.7825 3.8901 8.97514 3.81775C9.17278 3.74352 9.14686 3.46341 9.36158 3.40193C9.61746 3.32871 12.7079 3.32712 12.9944 3.3985C13.2734 3.46799 13.3817 3.78959 13.6715 3.8375C14.0057 3.8927 14.36 3.74821 14.6911 3.86395C14.8916 3.93403 14.8841 4.21776 15.0519 4.2818C15.297 4.37532 15.5537 4.2722 15.7999 4.40484L15.8127 4.4189C15.9851 4.61128 15.9303 4.79166 16.2711 4.78699C16.397 4.78526 16.6879 4.81075 16.7383 4.91634C16.8704 5.19299 16.9359 5.21442 17.206 5.36214C17.2906 5.42429 17.3649 5.58316 17.4415 5.64284C17.5835 5.75339 17.6944 5.80487 17.8356 5.93281C18.3101 6.36287 18.7156 6.91543 19.1507 7.37849C19.2476 7.48167 19.6692 8.21673 19.6851 8.30017L19.7355 8.53549C19.8939 8.61712 20.0139 8.66601 20.1413 8.79204C20.1958 9.03496 20.2107 9.22381 20.2521 9.45697C20.3948 9.52907 20.474 9.56344 20.595 9.66907C20.7078 9.98797 20.6505 10.1492 20.7082 10.4698C21.1929 10.7107 21.1127 10.7901 21.1223 11.3281C21.1311 11.819 21.1362 12.3088 21.1598 12.7993C21.1602 13.408 21.1186 14.0211 21.1121 14.63C21.1259 14.8441 21.1076 15.0634 21.1194 15.2593C21.1178 15.5417 21.1431 15.936 21.0481 16.208C20.9804 16.4021 20.7785 16.2315 20.6648 16.4151C20.6698 16.9358 20.7429 17.1876 20.2955 17.5388C20.211 17.8219 20.2317 17.9557 20.0599 18.2017C19.9558 18.2442 19.8514 18.2861 19.7468 18.3272C19.7122 18.4203 19.6167 18.7732 19.586 18.8164C19.3642 19.1279 19.2869 19.2207 19.1566 19.5975C18.6656 19.9645 18.281 20.3677 17.8476 20.799C17.5487 21.0965 17.2405 21.4918 16.8765 21.7083C16.8257 21.8146 16.5904 22.3663 16.5079 22.4028C16.2847 22.5016 13.6748 22.4794 13.2847 22.4582C12.2566 22.4868 11.2102 22.4432 10.1804 22.4627C9.82861 22.4695 9.4599 22.467 9.1082 22.4583C8.7924 22.4755 5.9221 22.4883 5.83398 22.4126C5.8367 22.2117 5.80209 21.9071 5.79937 21.677C5.28313 21.5796 4.94493 21.1394 4.58304 20.7711C4.48105 20.6393 4.38341 20.5178 4.29635 20.3754C3.95425 20.0343 3.6238 19.7198 3.30719 19.3498C3.09808 19.1054 2.99526 19.1417 2.85456 18.7987C2.76263 18.7439 2.64147 18.6975 2.56142 18.626C2.38708 18.4704 2.44492 18.0688 2.45289 17.8229C1.77721 17.6856 1.99447 17.3776 1.95837 16.8263C1.89993 16.7977 1.84206 16.768 1.78478 16.7371C1.68455 16.6823 1.5928 16.6312 1.5616 16.5145C1.45658 16.1219 1.49195 15.719 1.45786 15.3139C1.42382 14.9096 1.3429 14.4661 1.3339 14.0659C1.32258 13.562 1.41831 13.0244 1.45402 12.5193C1.47873 12.1596 1.46957 11.8022 1.49562 11.4422C1.52201 11.0775 1.6059 11.0591 1.88689 10.8449C1.9703 10.517 1.9141 10.0496 1.98831 9.70737C2.03509 9.49161 2.28477 9.33703 2.35561 9.16703C2.43623 8.97357 2.46558 8.56981 2.4946 8.34799C2.57238 8.26643 2.74333 8.16199 2.84477 8.09521C2.98854 7.6241 3.03665 7.75338 3.28929 7.40077C3.51161 7.10206 3.77602 6.72022 4.05442 6.46981C4.44632 6.11733 4.90621 5.80139 5.29717 5.44168C5.48766 5.26642 5.69149 5.19146 5.79827 4.94466Z" fill="url(#paint0_linear_0_189)"/>
<path id="Vector_2" d="M21.1121 14.63C21.1259 14.8441 21.1076 15.0634 21.1194 15.2593C21.1178 15.5417 21.1431 15.936 21.0481 16.208C20.9804 16.4021 20.7785 16.2315 20.6648 16.4151C20.6698 16.9358 20.7429 17.1876 20.2955 17.5388C20.211 17.8219 20.2317 17.9557 20.0599 18.2017C19.9558 18.2442 19.8514 18.2861 19.7468 18.3272C19.7122 18.4203 19.6167 18.7732 19.586 18.8164C19.3642 19.1279 19.2869 19.2207 19.1566 19.5975C18.6656 19.9645 18.281 20.3677 17.8476 20.799C17.5487 21.0965 17.2405 21.4918 16.8765 21.7083C16.8257 21.8146 16.5904 22.3663 16.5079 22.4028C16.2847 22.5016 13.6748 22.4794 13.2847 22.4582C13.5791 22.3943 14.0203 22.4764 14.3236 22.406C14.3666 22.396 14.5339 22.1629 14.5994 22.1007C14.7527 22.0779 15.1406 22.027 15.2701 21.9748C15.6191 21.8341 15.9733 21.459 16.2768 21.2297C16.4192 21.1222 16.5252 21.0555 16.6748 20.9565C16.7823 20.8853 16.9288 20.7369 17.0387 20.6684C17.1399 20.6054 17.2201 20.7391 17.3425 20.7898C17.456 20.7491 17.5236 20.5566 17.582 20.4385C18.0374 20.1778 17.8815 20.0552 18.18 19.8212C18.2422 19.8419 18.2728 19.8588 18.3368 19.8466C18.4542 19.7116 18.4593 19.6158 18.5498 19.4724C18.6265 19.3509 18.7505 19.3771 18.863 19.3569C18.9042 19.2762 18.8263 19.0971 18.8237 18.9982C18.8224 18.9507 18.8351 18.9129 18.827 18.8759L18.7468 18.9062L18.7271 18.8941C18.9381 18.6428 19.239 18.6191 19.3672 18.2941L19.3959 18.3114C19.4237 18.366 19.4145 18.3523 19.4108 18.4225C19.9274 17.9634 20.0191 17.2839 20.5646 16.8779C20.6064 16.8468 20.6258 16.5187 20.6499 16.4203C20.6403 16.2595 20.7412 15.7491 20.7631 15.5613C20.7962 15.2759 20.8024 15.062 20.8099 14.7749C20.842 14.8092 20.7786 15.084 20.861 15.2225C20.8889 15.2351 20.9049 15.2486 20.9357 15.2415C21.2305 15.1741 20.9999 14.8115 21.1121 14.63Z" fill="var(--fill-0, #7A5BF9)"/>
<path id="Vector_3" d="M4.29635 20.3754C4.44908 20.4471 5.06703 21.2573 5.31992 21.4199C5.48732 21.5276 5.7995 21.6229 5.84589 21.6956C5.86233 21.8984 5.78097 22.1384 6.09594 22.0965C6.31287 22.0675 6.43894 21.9446 6.66497 22.0273C6.97331 22.1401 7.37698 22.1433 7.59018 22.4163C8.04412 22.4153 8.49832 22.4465 8.95232 22.4492C9.00459 22.4495 9.05638 22.4506 9.1082 22.4583C8.7924 22.4755 5.9221 22.4883 5.83398 22.4126C5.8367 22.2117 5.80209 21.9071 5.79937 21.677C5.28313 21.5796 4.94493 21.1394 4.58304 20.7711C4.48105 20.6393 4.38341 20.5178 4.29635 20.3754Z" fill="var(--fill-0, #7A5BF9)"/>
<path id="Vector_4" d="M11.1466 7.77991C11.1683 7.77883 11.19 7.77822 11.2117 7.77807C11.5045 7.77656 11.7265 7.91487 12.0174 7.99607C12.2904 8.07228 12.6883 8.12567 12.9334 8.20172C13.4544 8.36329 13.9898 8.99224 14.3843 9.38508C14.5026 9.92342 14.506 10.5433 14.5156 11.0862C14.5298 11.898 14.3705 12.1338 13.8556 12.7133C13.366 13.2644 12.8446 13.7053 12.332 14.2291C11.9953 14.5733 11.7632 15.0416 11.4112 15.371C11.2564 15.5203 10.9315 15.6378 10.7244 15.7229C10.6152 15.5755 10.2522 14.9603 10.2789 14.8214C10.3958 14.2135 11.333 13.3031 11.724 12.9221C11.8875 12.7613 12.2066 12.543 12.3728 12.3827C12.6129 12.1509 13.2745 11.467 13.4425 11.2069C13.4596 10.6391 13.3153 10.629 13.0775 10.1516C13.0101 10.0164 12.9814 9.82491 12.9545 9.67332C12.5138 9.5574 12.543 9.39889 12.196 9.18435C12.0579 9.09902 11.7129 9.11521 11.548 9.12056C11.1358 9.13394 10.9255 9.21235 10.576 9.43135C10.3391 9.57853 10.157 9.70151 9.95965 9.90923C9.4481 10.4483 9.14032 11.2466 8.23342 11.0145C8.2778 11.0258 7.76704 10.4973 7.75965 10.4853C7.56327 10.165 7.99973 9.75234 8.18425 9.50675C8.56101 9.00535 8.99758 8.48419 9.58024 8.21891C9.82792 8.12675 10.0954 8.09396 10.3488 8.01799C10.6157 7.93801 10.874 7.83956 11.1466 7.77991Z" fill="var(--fill-0, #FEFEFE)"/>
<path id="Vector_5" d="M10.8917 16.8517C10.9546 16.8456 11.1873 16.8263 11.2354 16.8484C11.4168 16.9321 12.1124 17.2765 12.0996 17.4855C12.0612 18.1115 12.1212 18.6311 11.3641 18.7294C11.0872 18.7305 10.9299 18.7183 10.6613 18.6534C10.3865 17.9787 10.1457 18.1802 10.1399 17.4134C10.6138 17.2485 10.5884 16.9585 10.8917 16.8517Z" fill="var(--fill-0, #FEFEFE)"/>
</g>
<defs>
<linearGradient id="paint0_linear_0_189" x1="12.2162" y1="22.6128" x2="10.259" y2="3.33289" gradientUnits="userSpaceOnUse">
<stop stop-color="#9D7DFF"/>
<stop offset="1" stop-color="#D6BFFE"/>
</linearGradient>
</defs>
</svg>
