<svg preserveAspectRatio="none" width="100%" height="100%" overflow="visible" style="display: block;" viewBox="0 0 42 42" fill="none" xmlns="http://www.w3.org/2000/svg">
<g id="image">
<path id="Vector" d="M19.055 9.11347C19.198 8.65992 19.8653 8.06716 20.2828 7.83136C20.3508 7.79293 20.4846 7.8193 20.5697 7.82595C20.8945 7.81372 21.2066 7.82221 21.4671 8.04698C21.8372 8.25505 23.1813 8.44298 23.655 8.65446C23.8921 8.76032 24.0786 8.91073 24.3187 8.99903C24.6196 9.04079 24.7595 9.11425 25.0254 9.25809L25.0608 9.26728C25.3891 9.34935 25.7343 9.31272 26.0467 9.3993C26.3477 9.48277 26.6611 9.70225 26.9605 9.80212C26.9468 10.0402 26.8918 10.602 26.9667 10.7956C27.2359 10.7824 27.6439 11.1223 28.0954 11.2168C28.555 11.3539 28.723 11.6771 29.0983 11.9768C29.2906 12.1255 29.7554 12.4747 29.5392 12.7242C29.4651 12.7434 29.3767 12.7693 29.3023 12.7806C29.19 12.9147 29.1559 13.0891 29.1092 13.2585C29.3029 14.0188 29.8231 14.0953 29.9588 14.6619C30.1918 15.6352 29.4978 16.9536 29.2613 17.8938C29.1587 18.3014 29.337 18.6869 29.0748 19.1535C28.8822 19.2103 28.7884 19.2289 28.7358 19.4438C29.3254 21.8635 27.9081 21.5547 27.769 22.6079C27.6511 23.4668 27.2584 24.2413 27.3489 25.1833C27.3517 25.2129 26.8546 26.8115 26.7883 26.9411C26.6102 27.1443 26.5791 27.3256 26.3631 27.5294C26.2619 27.6494 26.1563 27.7794 26.0521 27.8956C25.6083 27.7789 25.0375 27.8542 24.5702 27.8872C24.5577 28.0182 24.5479 28.0538 24.6094 28.1756L24.5702 28.1874C24.3636 28.2506 23.8954 28.4737 23.7581 28.49C22.6302 28.6239 19.3526 28.7283 18.321 28.512C18.433 28.5005 18.4612 28.4998 18.5643 28.4564L18.5881 28.3847C18.4698 28.2751 18.3355 28.2573 18.1775 28.2132L18.1409 28.2045C18.1696 28.196 18.2284 28.1656 18.2584 28.1514C18.2431 27.8553 17.8212 27.8043 17.5928 27.765C17.0219 27.7264 17.04 27.8713 16.551 27.8942C16.2952 27.8863 15.8252 27.9147 15.6623 27.7342C15.4603 27.5103 15.5899 27.5662 15.3066 27.4772C15.2023 27.4413 14.7609 27.385 14.5413 27.3239C14.7729 27.2824 15.041 27.1128 15.2535 26.9963L15.0698 26.497L15.0374 26.4814C14.3341 25.5083 14.3893 23.3892 14.4194 22.2161C14.243 22.1934 14.1634 22.1694 13.9922 22.1171C13.1921 21.4933 13.4727 21.378 12.9837 20.8803C12.918 20.377 12.9217 20.1067 12.969 19.6024C12.8722 19.3783 12.6254 19.126 12.6071 19.009C12.4471 17.9875 12.6381 16.4536 12.563 15.4532L12.561 15.4291C12.2653 15.4305 12.1296 15.5061 11.9168 15.3179C11.8059 15.0473 12.0727 14.6375 12.1713 14.2655C12.1873 13.9948 12.198 13.6146 12.2889 13.3678C12.3271 13.2197 12.4337 13.0812 12.4814 12.9332C12.8043 11.9314 13.3329 11.7176 14.2715 11.432L14.3289 11.3938C14.4357 11.2218 14.4505 11.1914 14.4868 10.9937C14.4117 10.9015 14.1935 10.8785 14.1343 10.7747C13.6751 9.96926 15.3225 10.0362 15.6987 10.1194C15.9024 10.1714 16.0427 10.3069 16.2059 10.4393C16.5394 10.1032 16.7425 9.75688 17.0139 9.37055C17.7372 8.34065 18.4096 9.89317 19.055 9.11347ZM12.5835 15.4248L12.6962 15.462C13.0512 15.3499 13.0013 14.7961 12.7787 14.6038C12.5688 14.8153 12.5756 15.1408 12.5835 15.4248Z" fill="url(#paint0_linear_0_8)"/>
<path id="Vector_2" d="M19.055 9.11347C19.198 8.65992 19.8653 8.06716 20.2828 7.83136C20.3508 7.79293 20.4846 7.8193 20.5697 7.82595C20.8945 7.81372 21.2066 7.82221 21.4671 8.04698C21.8372 8.25505 23.1813 8.44298 23.655 8.65446C23.8921 8.76032 24.0786 8.91073 24.3187 8.99903C24.6196 9.04079 24.7595 9.11425 25.0254 9.25809L25.0608 9.26728C25.3891 9.34935 25.7343 9.31272 26.0467 9.3993C26.3477 9.48277 26.6611 9.70225 26.9605 9.80212C26.9468 10.0402 26.8918 10.602 26.9667 10.7956C27.2359 10.7824 27.6439 11.1223 28.0954 11.2168C28.555 11.3539 28.723 11.6771 29.0983 11.9768C29.2906 12.1255 29.7554 12.4747 29.5392 12.7242C29.4651 12.7434 29.3767 12.7693 29.3023 12.7806C29.19 12.9147 29.1559 13.0891 29.1092 13.2585C29.3029 14.0188 29.8231 14.0953 29.9588 14.6619C30.1918 15.6352 29.4978 16.9536 29.2613 17.8938C29.1587 18.3014 29.337 18.6869 29.0748 19.1535C28.8822 19.2103 28.7884 19.2289 28.7358 19.4438C29.3254 21.8635 27.9081 21.5547 27.769 22.6079C27.7755 22.3136 27.7038 21.8467 27.6237 21.5621C27.5997 21.4568 27.4584 21.1717 27.4062 21.0513C27.3418 20.7294 27.3524 20.0462 27.3029 19.8683C27.1338 19.26 26.6291 17.7464 26.3183 17.2778C26.1507 16.9604 25.1099 15.6964 24.7145 15.8262C24.6298 16.36 24.67 17.7377 24.7181 18.3015C24.6515 18.4201 24.6452 18.4201 24.5298 18.4469C24.3463 18.3934 24.2464 18.2469 24.1488 18.088C24.0384 17.9971 23.8626 17.8008 23.7581 17.6909C23.6065 17.528 23.4933 17.3948 23.3539 17.2229L22.6945 17.4631C22.6022 17.5315 22.4065 17.609 22.2933 17.6586C22.02 17.6014 21.9192 17.5759 21.6969 17.4067C21.6293 17.1791 21.6441 17.0183 21.6708 16.7867C21.8514 16.5041 21.8946 16.4492 22.1157 16.1881C21.8713 16.1771 21.7549 16.1666 21.5107 16.1232C21.2676 16.1235 21.0244 16.1262 20.7814 16.1311C19.6355 16.0531 19.1872 14.2366 17.1692 14.76C16.7997 14.8594 16.6754 14.921 16.3297 15.0834C15.5443 15.5447 15.2257 16.1614 14.9737 17.0271C14.7829 17.6827 14.8536 18.4989 14.7556 19.1753L14.3659 19.6255C14.0042 19.7728 13.9046 19.6843 13.7371 19.3661C13.7038 19.2094 13.7331 19.2616 13.6369 19.1507C13.269 19.1238 13.266 19.5931 12.969 19.6024C12.8722 19.3783 12.6254 19.126 12.6071 19.009C12.4471 17.9875 12.6381 16.4536 12.563 15.4532L12.561 15.4291C12.2653 15.4305 12.1296 15.5061 11.9168 15.3179C11.8059 15.0473 12.0727 14.6375 12.1713 14.2655C12.1873 13.9948 12.198 13.6146 12.2889 13.3678C12.3271 13.2197 12.4337 13.0812 12.4814 12.9332C12.8043 11.9314 13.3329 11.7176 14.2715 11.432L14.3289 11.3938C14.4357 11.2218 14.4505 11.1914 14.4868 10.9937C14.4117 10.9015 14.1935 10.8785 14.1343 10.7747C13.6751 9.96926 15.3225 10.0362 15.6987 10.1194C15.9024 10.1714 16.0427 10.3069 16.2059 10.4393C16.5394 10.1032 16.7425 9.75688 17.0139 9.37055C17.7372 8.34065 18.4096 9.89317 19.055 9.11347ZM12.5835 15.4248L12.6962 15.462C13.0512 15.3499 13.0013 14.7961 12.7787 14.6038C12.5688 14.8153 12.5756 15.1408 12.5835 15.4248Z" fill="url(#paint1_linear_0_8)"/>
<path id="Vector_3" d="M12.7787 14.6038C13.0013 14.7961 13.0512 15.3499 12.6962 15.462L12.5835 15.4248C12.5756 15.1408 12.5688 14.8153 12.7787 14.6038Z" fill="var(--fill-0, #C47F51)" fill-opacity="0.980392"/>
<path id="Vector_4" d="M18.2323 12.7851C18.8323 12.2867 19.2126 11.8236 20.049 12.0175L20.0352 12.0788C20.2146 12.1642 20.6209 12.3558 20.8075 12.3685L20.9407 12.2183C21.8794 13.0517 23.6612 14.8164 24.1062 16.0075C24.1672 15.8945 24.5606 15.2347 24.5548 15.1464C24.5407 14.9326 24.3281 14.5979 24.3172 14.3542C24.4959 14.6533 24.5825 14.8559 24.7153 15.1788C24.5123 15.4469 24.2914 15.7012 24.2466 16.0399C24.2428 16.0687 24.1197 16.0959 24.0941 16.1004C24.1934 16.1276 24.303 16.1453 24.3776 16.2102C24.5678 16.1378 24.4242 16.0099 24.7145 15.8262C24.6298 16.36 24.67 17.7377 24.7181 18.3015C24.6515 18.4201 24.6452 18.4201 24.5298 18.4469C24.3463 18.3934 24.2464 18.2469 24.1488 18.088C24.0384 17.9971 23.8626 17.8008 23.7581 17.6909C23.6065 17.528 23.4933 17.3948 23.3539 17.2229L22.6945 17.4631C22.6022 17.5315 22.4065 17.609 22.2933 17.6586C22.02 17.6014 21.9192 17.5759 21.6969 17.4067C21.6293 17.1791 21.6441 17.0183 21.6708 16.7867C21.8514 16.5041 21.8946 16.4492 22.1157 16.1881C21.8713 16.1771 21.7549 16.1666 21.5107 16.1232C21.2676 16.1235 21.0244 16.1262 20.7814 16.1311C20.62 15.9653 20.2886 15.9506 20.0666 15.7067C20.1792 15.5442 20.2723 15.6376 20.4202 15.4503C20.3572 15.4504 20.339 15.4574 20.2782 15.4694C20.3606 15.235 20.9943 14.9709 21.0586 14.8375C20.9074 14.5114 17.81 13.8275 18.21 12.7139L18.2323 12.7851Z" fill="url(#paint2_linear_0_8)"/>
<path id="Vector_5" d="M18.2323 12.7851C18.8323 12.2867 19.2126 11.8236 20.049 12.0175L20.0352 12.0788C19.7983 12.2994 19.6508 12.151 19.6201 12.4342C19.5608 12.5247 19.5039 12.6167 19.4495 12.7101C19.3066 12.8077 19.1974 12.8746 19.0464 12.9593C20.7331 13.4148 20.1419 13.8118 21.0749 14.6633C20.3821 14.4126 18.1692 13.6853 18.2323 12.7851Z" fill="var(--fill-0, #86420B)"/>
<path id="Vector_6" d="M19.6201 12.4342C19.6508 12.151 19.7983 12.2994 20.0352 12.0788C20.2146 12.1642 20.6209 12.3558 20.8075 12.3685C21.2071 12.7534 21.5992 13.0996 21.9466 13.5339C22.2198 13.8753 22.4212 14.2437 22.6686 14.5854C22.7253 14.7313 22.7741 14.8212 22.7548 14.9763C22.6554 15.1023 22.6286 15.0961 22.4579 15.0843C22.4382 15.044 22.1499 14.7058 22.0969 14.6393C21.4139 13.7823 20.9094 13.2385 19.9384 12.7246C19.7892 12.6244 19.7426 12.5682 19.6201 12.4342Z" fill="var(--fill-0, #9C530C)"/>
<path id="Vector_7" d="M21.5107 16.1232C22.008 16.0586 22.8511 16.0527 23.0879 16.6059C23.0386 17.0196 22.0874 16.9436 21.793 16.7613C21.4943 17.6153 22.4393 17.3239 22.6945 17.4631C22.6022 17.5315 22.4065 17.609 22.2933 17.6586C22.02 17.6014 21.9192 17.5759 21.6969 17.4067C21.6293 17.1791 21.6441 17.0183 21.6708 16.7867C21.8514 16.5041 21.8946 16.4492 22.1157 16.1881C21.8713 16.1771 21.7549 16.1666 21.5107 16.1232Z" fill="var(--fill-0, #793407)"/>
<path id="Vector_8" d="M24.3776 16.2102C24.5678 16.1378 24.4242 16.0099 24.7145 15.8262C24.6298 16.36 24.67 17.7377 24.7181 18.3015C24.6515 18.4201 24.6452 18.4201 24.5298 18.4469C24.3463 18.3934 24.2464 18.2469 24.1488 18.088C24.2559 18.0708 24.3471 18.2146 24.5345 18.2746C24.5792 18.2042 24.4818 17.8742 24.4727 17.7153L24.4712 17.6855L24.3759 17.7381L24.3262 17.7073C24.2327 17.2595 24.3973 16.7481 24.3776 16.2102Z" fill="var(--fill-0, #793407)"/>
<path id="Vector_9" d="M22.6686 14.5854C22.924 14.7731 23.8307 16.0779 23.7593 16.4186L23.6989 16.4624C23.4618 16.2929 22.6088 15.3601 22.4579 15.0843C22.6286 15.0961 22.6554 15.1023 22.7548 14.9763C22.7741 14.8212 22.7253 14.7313 22.6686 14.5854Z" fill="var(--fill-0, #793407)"/>
<path id="Vector_10" d="M19.6201 12.4342C19.7426 12.5682 19.7892 12.6244 19.9384 12.7246C19.7263 12.7464 19.6533 12.7618 19.4495 12.7101C19.5039 12.6167 19.5608 12.5247 19.6201 12.4342Z" fill="var(--fill-0, #793407)"/>
<path id="Vector_11" d="M19.055 9.11347C19.198 8.65992 19.8653 8.06716 20.2828 7.83136C20.3508 7.79293 20.4846 7.8193 20.5697 7.82595C20.8945 7.81372 21.2066 7.82221 21.4671 8.04698C21.8372 8.25505 23.1813 8.44298 23.655 8.65446C23.8921 8.76032 24.0785 8.91073 24.3187 8.99903C24.2915 9.30037 24.8633 9.95105 25.0796 10.2254L25.0102 10.2662C24.8685 10.0911 24.6958 9.86467 24.5492 9.69884C24.3923 9.69761 24.2118 9.70069 24.0571 9.69162C23.9488 9.78473 23.8295 9.89375 23.7108 9.96991C23.8559 10.197 24.2796 10.7924 24.3413 10.996C25.2913 12.3599 26.026 13.6435 26.5434 15.2185C26.6017 15.396 26.8387 15.7114 26.8414 15.8541C26.6797 15.7762 26.6018 15.6352 26.4518 15.5187C25.5924 14.8885 24.9015 13.77 24.631 12.7415C24.1317 11.7472 23.6917 10.7025 22.8536 9.93751C22.624 9.72796 22.3973 9.53203 22.1773 9.31165C21.8722 9.42879 21.8059 9.49106 21.5445 9.68096C21.1989 9.68527 20.8409 9.69458 20.4965 9.68896C20.3022 9.77554 20.1298 9.8531 19.9405 9.95269C19.7626 10.0923 18.1955 11.0845 18.0036 11.1743C17.7835 11.0868 17.7678 10.9041 17.7 10.6914C17.8251 10.6055 18.4252 10.0861 18.4503 10.0814C18.7274 10.0254 19.0795 9.46915 19.3676 9.19759L19.3511 9.14169C19.2457 9.19312 19.1877 9.23295 19.0704 9.23537L19.055 9.11347Z" fill="var(--fill-0, #AB580E)"/>
<path id="Vector_12" d="M19.055 9.11347C19.198 8.65992 19.8653 8.06716 20.2828 7.83136C20.3508 7.79293 20.4846 7.8193 20.5697 7.82595C20.8945 7.81372 21.2066 7.82221 21.4671 8.04698L21.4518 8.15752L21.4301 8.16715L21.3093 8.2927C21.3563 8.34771 21.4283 8.33913 21.5182 8.3516C21.4136 8.5105 20.9 8.53691 20.6877 8.62911C20.0999 8.88423 19.6926 9.45107 19.1961 9.77661C19.3957 9.67292 19.7856 9.45427 19.985 9.40976C20.0931 9.54622 20.0602 9.55073 20.197 9.5801C20.2277 9.55697 20.2786 9.52399 20.2983 9.49512C20.4209 9.36481 20.5927 9.34045 20.7674 9.29619L20.8201 9.33224C20.6804 9.36116 20.599 9.36489 20.5008 9.46735L20.4152 9.48999L20.4317 9.52584L20.4871 9.52645C20.3825 9.58748 19.9233 9.84535 19.8883 9.92389L19.9405 9.95269C19.7626 10.0923 18.1955 11.0845 18.0036 11.1743C17.7835 11.0868 17.7678 10.9041 17.7 10.6914C17.8251 10.6055 18.4252 10.0861 18.4503 10.0814C18.7274 10.0254 19.0795 9.46915 19.3676 9.19759L19.3511 9.14169C19.2457 9.19312 19.1877 9.23295 19.0704 9.23537L19.055 9.11347Z" fill="var(--fill-0, #86420B)"/>
<path id="Vector_13" d="M19.055 9.11347C19.198 8.65992 19.8653 8.06716 20.2828 7.83136C20.3508 7.79293 20.4846 7.8193 20.5697 7.82595C20.8945 7.81372 21.2066 7.82221 21.4671 8.04698L21.4518 8.15752L21.4301 8.16715C20.5423 8.32609 20.0658 8.59819 19.3676 9.19759L19.3511 9.14169C19.2457 9.19312 19.1877 9.23295 19.0704 9.23537L19.055 9.11347Z" fill="var(--fill-0, #793407)"/>
<path id="Vector_14" d="M19.055 9.11347C19.198 8.65992 19.8653 8.06716 20.2828 7.83136C20.3508 7.79293 20.4846 7.8193 20.5697 7.82595C20.4403 8.07499 19.6068 8.83522 19.3511 9.14169C19.2457 9.19312 19.1877 9.23295 19.0704 9.23537L19.055 9.11347Z" fill="var(--fill-0, #691601)"/>
<path id="Vector_15" d="M21.4518 8.15752L21.4671 8.04698C21.8372 8.25505 23.1813 8.44298 23.655 8.65446C23.8921 8.76032 24.0786 8.91073 24.3187 8.99903C24.2915 9.30037 24.8633 9.95105 25.0796 10.2254L25.0102 10.2662C24.8685 10.0911 24.6958 9.86467 24.5492 9.69884C24.3923 9.69761 24.2118 9.70069 24.0571 9.69162C23.9488 9.78473 23.8295 9.89375 23.7108 9.96991C23.8559 10.197 24.2796 10.7924 24.3413 10.996C24.0532 10.7171 23.3994 9.64811 23.1954 9.24935C23.1493 9.17688 23.0233 8.66664 23.0119 8.65504C22.6428 8.28036 21.9 8.3491 21.4518 8.15752Z" fill="var(--fill-0, #793407)"/>
<path id="Vector_16" d="M20.2983 9.49512L20.143 9.48818C20.0716 9.18381 21.1131 8.41858 21.3369 9.0953C21.3028 9.35074 20.7184 9.46489 20.5008 9.46735C20.599 9.36489 20.6804 9.36116 20.8201 9.33224L20.7674 9.29619C20.5927 9.34045 20.4209 9.36481 20.2983 9.49512Z" fill="var(--fill-0, #E28221)"/>
<path id="Vector_17" d="M24.631 12.7415C25.1747 13.2151 25.4703 14.3336 25.8734 14.9162C26.0646 15.1926 26.4738 15.1632 26.4518 15.5187C25.5924 14.8885 24.9015 13.77 24.631 12.7415Z" fill="var(--fill-0, #9C530C)"/>
<path id="Vector_18" d="M20.4965 9.68896C20.7943 9.54684 21.4216 9.37539 21.758 9.24066C21.9383 9.16843 22.036 9.23069 22.1773 9.31165C21.8722 9.42879 21.8059 9.49106 21.5445 9.68096C21.1989 9.68527 20.8409 9.69458 20.4965 9.68896Z" fill="var(--fill-0, #793407)"/>
<path id="Vector_19" d="M24.3187 8.99903C24.6196 9.04079 24.7595 9.11425 25.0254 9.25809L25.0608 9.26728C25.3891 9.34935 25.7343 9.31272 26.0467 9.3993C26.3477 9.48277 26.6611 9.70225 26.9605 9.80212C26.9468 10.0402 26.8918 10.602 26.9667 10.7956L26.899 10.8629L26.8553 10.9344C27.0129 11.5667 27.2548 11.4602 27.3865 11.8223C27.6346 12.3472 27.6638 12.7097 27.796 13.2667C27.8983 13.6976 28.3602 14.5552 28.0216 14.9728L27.9376 14.9926C27.8045 14.9 27.7321 14.5479 27.631 14.3598C26.6548 12.4321 26.5803 11.9145 25.0796 10.2254C24.8633 9.95105 24.2915 9.30037 24.3187 8.99903Z" fill="url(#paint3_linear_0_8)"/>
<path id="Vector_20" d="M25.0254 9.25809L25.0608 9.26728C25.3891 9.34935 25.7343 9.31272 26.0467 9.3993C26.3477 9.48277 26.6611 9.70225 26.9605 9.80212C26.9468 10.0402 26.8918 10.602 26.9667 10.7956L26.899 10.8629L26.8553 10.9344C27.0129 11.5667 27.2548 11.4602 27.3865 11.8223C27.1068 11.5462 26.4898 11.0856 26.2965 10.8376C26.0348 10.5019 25.1954 9.58437 25.0254 9.25809Z" fill="var(--fill-0, #AB580E)"/>
<path id="Vector_21" d="M21.3522 11.9674C21.8633 12.2656 22.1767 12.6457 22.5811 12.9376C22.6873 12.6885 22.1698 12.2906 22.2121 12.1095L22.2913 12.1693L22.2922 12.1507C22.305 11.9178 22.3374 11.8689 22.4627 11.6708C23.4508 12.64 23.7471 13.1666 24.3172 14.3542C24.3281 14.5979 24.5407 14.9326 24.5548 15.1464C24.5606 15.2347 24.1672 15.8945 24.1062 16.0075C23.6612 14.8164 21.8794 13.0517 20.9407 12.2183L20.8813 12.0702C21.0321 11.9767 21.176 11.9804 21.3522 11.9674Z" fill="var(--fill-0, #86420B)"/>
<path id="Vector_22" d="M26.9667 10.7956C27.2359 10.7824 27.6439 11.1223 28.0954 11.2168C28.1176 11.3666 28.3015 11.573 28.4006 11.7031C28.4267 12.0635 28.3359 12.2065 28.3435 12.4964C28.3461 12.5984 28.5758 12.8386 28.6237 13.0836C28.9601 13.666 29.7124 14.3994 29.7684 14.904L29.7392 14.9888C29.6772 14.9716 29.629 14.9603 29.5659 14.9469C29.5064 15.0127 29.5078 15.0198 29.4858 15.1083C28.9807 15.2454 28.9142 14.4287 28.6358 14.2268C28.3139 14.3647 28.4155 14.8449 28.4516 15.1359C28.3072 15.1449 28.2783 15.0427 28.1073 15.0878C27.973 15.4039 28.3923 15.6931 28.4183 15.9385C28.2244 15.8589 27.6003 14.6575 27.5841 14.3964L27.631 14.3598C27.7321 14.5479 27.8045 14.9 27.9376 14.9926L28.0216 14.9728C28.3602 14.5552 27.8983 13.6976 27.796 13.2668C27.6638 12.7097 27.6346 12.3472 27.3865 11.8223C27.2548 11.4602 27.0129 11.5667 26.8553 10.9344L26.899 10.8629L26.9667 10.7956Z" fill="url(#paint4_linear_0_8)"/>
<path id="Vector_23" d="M26.9667 10.7956C27.2359 10.7824 27.6439 11.1223 28.0954 11.2168C28.1176 11.3666 28.3015 11.573 28.4006 11.7031C28.4267 12.0635 28.3359 12.2065 28.3435 12.4964C28.3461 12.5984 28.5758 12.8386 28.6237 13.0836C28.3149 12.906 27.6773 11.6161 27.3051 11.4294C27.0204 11.2866 27.118 11.2002 26.899 10.8629L26.9667 10.7956Z" fill="var(--fill-0, #793407)"/>
<path id="Vector_24" d="M25.0796 10.2254C26.5803 11.9145 26.6548 12.4321 27.631 14.3598L27.5841 14.3964L27.5155 14.2928C27.4832 14.411 27.3835 14.435 27.3416 14.5247C27.2618 14.6957 27.7847 15.5472 27.673 15.8947C27.6464 15.9774 27.624 15.9836 27.5526 16.0218C27.53 16.0166 27.5024 16.0102 27.4696 16.0026C27.2123 15.4111 26.8541 14.8293 26.5794 14.2488C26.5271 14.1382 26.5371 13.7984 26.4958 13.6804C26.4615 13.5823 26.3049 13.5903 26.2457 13.5331C26.1171 13.4089 26.1566 13.0594 26.0925 12.9137C25.9129 12.5062 25.6228 12.0982 25.4858 11.6768C25.4711 11.522 25.5463 11.3082 25.5519 11.1574C25.5578 10.9969 25.5333 10.8931 25.441 10.7715C25.3059 10.5934 25.1549 10.4288 25.0102 10.2662L25.0796 10.2254Z" fill="var(--fill-0, #86420B)"/>
<path id="Vector_25" d="M28.0673 20.5079C28.1222 20.2843 28.3272 19.7447 28.4615 19.5542C28.5331 19.4526 28.5909 19.4604 28.6969 19.445L28.7358 19.4438C29.3254 21.8635 27.9081 21.5547 27.769 22.6079C27.7755 22.3136 27.7038 21.8467 27.6237 21.5621C27.5997 21.4568 27.4584 21.1717 27.4062 21.0513C27.6744 20.8195 27.6645 20.7621 28.0012 20.5891L28.0673 20.5079Z" fill="var(--fill-0, #E79855)"/>
<path id="Vector_26" d="M27.4062 21.0513C27.6744 20.8194 27.6645 20.7621 28.0012 20.5891C28.1033 20.7946 28.0861 21.0217 27.9909 21.2201C27.8857 21.4392 27.7254 21.401 27.6237 21.5621C27.5997 21.4568 27.4584 21.1717 27.4062 21.0513Z" fill="var(--fill-0, #F6B76F)"/>
<path id="Vector_27" d="M16.2059 10.4393C16.5394 10.1032 16.7425 9.75688 17.0139 9.37055C17.7372 8.34065 18.4096 9.89317 19.055 9.11347L19.0704 9.23537C19.1877 9.23295 19.2457 9.19312 19.3511 9.14168L19.3676 9.19759C19.0795 9.46915 18.7274 10.0254 18.4503 10.0814L18.4266 9.97254C18.3588 9.91155 18.3026 9.84461 18.2171 9.828C18.1664 9.63149 17.9069 9.47469 17.7508 9.27552C17.2822 9.62436 17.0324 9.74507 16.7962 10.2928C16.6698 10.3808 16.3195 10.629 16.2577 10.7536C15.8417 10.9614 15.3754 11.0916 15.6576 11.6356L15.6055 11.7516C15.5365 11.2043 15.3341 11.5777 15.6644 10.959L15.6744 10.9398C15.8193 10.9026 16.0606 10.8164 16.1234 10.6713C16.1277 10.3982 15.8418 10.331 15.6987 10.1194C15.9024 10.1714 16.0427 10.3069 16.2059 10.4393Z" fill="url(#paint5_linear_0_8)"/>
<path id="Vector_28" d="M17.7508 9.27552C17.9069 9.47469 18.1664 9.63149 18.2171 9.828C18.0659 10.0178 17.4112 10.3841 17.1324 10.5832L17.1258 10.6239C17.0918 10.8371 16.8512 11.2444 16.6361 11.2938L16.5908 11.2535C16.801 11.0372 16.9599 10.8721 17.1473 10.6369C16.9615 10.7102 16.5308 10.9555 16.4121 10.9485C16.3225 10.8751 16.314 10.8557 16.2577 10.7536C16.3195 10.629 16.6698 10.3808 16.7962 10.2928C17.0324 9.74507 17.2822 9.62436 17.7508 9.27552Z" fill="var(--fill-0, #86420B)"/>
<path id="Vector_29" d="M14.4868 10.9937C14.4117 10.9015 14.1935 10.8785 14.1343 10.7747C13.6751 9.96926 15.3225 10.0362 15.6987 10.1194C15.8418 10.331 16.1277 10.3982 16.1234 10.6713C16.0606 10.8164 15.8193 10.9026 15.6744 10.9398C15.3654 10.6882 15.2729 10.6041 14.8899 10.4656C14.751 10.5425 14.6026 10.6045 14.5306 10.743C14.514 10.8482 14.4992 10.8948 14.522 11.0001L14.4868 10.9937Z" fill="var(--fill-0, #691601)"/>
<path id="Vector_30" d="M12.1713 14.2655C12.4104 14.1396 12.6912 14.0536 12.9217 14.2658C12.988 14.437 12.9021 14.4888 12.7787 14.6038C12.5688 14.8153 12.5756 15.1408 12.5835 15.4248L12.561 15.4291C12.2653 15.4305 12.1296 15.5061 11.9168 15.3179C11.8059 15.0473 12.0727 14.6375 12.1713 14.2655Z" fill="var(--fill-0, #401B0D)"/>
<path id="Vector_31" d="M14.2715 11.432C14.1943 11.5918 14.0912 11.5944 13.9244 11.6374L13.9242 11.6388C13.6795 12.0484 13.0864 12.7382 12.6292 12.8953C12.5938 12.9075 12.4551 13.2783 12.2889 13.3678C12.3271 13.2197 12.4337 13.0812 12.4814 12.9332C12.8043 11.9314 13.3329 11.7176 14.2715 11.432Z" fill="var(--fill-0, #691601)"/>
<path id="Vector_32" d="M15.6576 11.6356L15.6802 11.7803C15.7639 11.5521 15.8977 10.6442 16.4078 11.456C16.6453 11.8341 16.1358 12.2554 15.7595 12.0248C15.6682 11.9855 15.6222 11.8421 15.6055 11.7516L15.6576 11.6356Z" fill="var(--fill-0, #86420B)"/>
<path id="Vector_33" d="M28.2053 19.1848C28.442 19.2695 28.492 19.2985 28.6969 19.445C28.5909 19.4604 28.5331 19.4526 28.4615 19.5542C28.3272 19.7447 28.1222 20.2843 28.0673 20.5079C28.0224 20.2099 27.9634 19.3934 28.2053 19.1848Z" fill="var(--fill-0, #E28221)"/>
<path id="Vector_34" d="M20.049 12.0175L20.0402 11.9813C20.1244 11.8437 20.2723 11.8862 20.465 11.712C20.6339 11.9195 20.7688 11.9474 20.8813 12.0702L20.9407 12.2183L20.8075 12.3685C20.6209 12.3558 20.2146 12.1642 20.0352 12.0788L20.049 12.0175Z" fill="var(--fill-0, #793407)"/>
<path id="Vector_35" d="M28.2053 19.1848C28.4114 19.0351 28.5154 18.7373 28.7939 18.7826C28.9305 18.8695 28.995 19.0124 29.0748 19.1535C28.8822 19.2103 28.7884 19.2289 28.7358 19.4438L28.6969 19.445C28.492 19.2985 28.442 19.2695 28.2053 19.1848Z" fill="var(--fill-0, #AB580E)"/>
<path id="Vector_36" d="M14.522 11.0001C14.7487 11.1642 14.9465 11.2767 14.8504 11.5797C14.6327 11.7415 14.3981 11.651 14.3289 11.3938C14.4357 11.2218 14.4505 11.1914 14.4868 10.9937L14.522 11.0001Z" fill="var(--fill-0, #86420B)"/>
<path id="Vector_37" d="M29.0983 11.9768C29.2906 12.1255 29.7554 12.4747 29.5392 12.7242C29.4651 12.7434 29.3767 12.7693 29.3023 12.7806C29.235 12.5548 29.0471 12.1442 29.0983 11.9768Z" fill="var(--fill-0, #691601)"/>
<path id="Vector_38" d="M20.465 11.712C20.8541 11.5329 21.0468 11.7221 21.3522 11.9674C21.176 11.9804 21.0321 11.9767 20.8813 12.0702C20.7688 11.9474 20.6339 11.9195 20.465 11.712Z" fill="var(--fill-0, #793407)"/>
<path id="Vector_39" d="M17.5928 27.765C17.9265 27.7503 18.2396 27.6764 18.5803 27.6728C19.7229 27.661 20.8621 27.6507 22.0046 27.6689C22.2609 27.6948 22.7775 27.563 23.0098 27.5931C23.7311 27.6863 25.1555 27.3723 25.7574 27.4941C25.8705 27.6477 25.8652 27.7014 26.0083 27.7344C26.0835 27.6912 26.3056 27.5479 26.3631 27.5294C26.2619 27.6494 26.1563 27.7794 26.0521 27.8956C25.6083 27.7789 25.0375 27.8542 24.5702 27.8872C24.5577 28.0182 24.5479 28.0538 24.6094 28.1756L24.5702 28.1874C24.3636 28.2506 23.8954 28.4737 23.7581 28.49C22.6302 28.6239 19.3526 28.7283 18.321 28.512C18.433 28.5005 18.4612 28.4998 18.5643 28.4564L18.5881 28.3847C18.4698 28.2751 18.3355 28.2573 18.1775 28.2132L18.1409 28.2045C18.1696 28.196 18.2284 28.1656 18.2584 28.1514C18.2431 27.8553 17.8212 27.8043 17.5928 27.765Z" fill="var(--fill-0, #C47F51)"/>
<path id="Vector_40" d="M24.4147 27.8903L24.5702 27.8872C24.5577 28.0182 24.5479 28.0538 24.6094 28.1756L24.5702 28.1874C24.3636 28.2506 23.8954 28.4737 23.7581 28.49C22.6302 28.6239 19.3526 28.7283 18.321 28.512C18.433 28.5005 18.4612 28.4998 18.5643 28.4564L18.5881 28.3847C18.4698 28.2751 18.3355 28.2573 18.1775 28.2132C18.6939 28.1703 19.5242 28.2311 20.0773 28.2367C21.3511 28.2497 22.4888 28.236 23.7483 28.0181L24.4147 27.8903Z" fill="var(--fill-0, #401B0D)"/>
<path id="Vector_41" d="M23.7483 28.0181C23.1211 28.0024 20.0752 28.2013 19.7409 28.0565C19.9821 27.9759 23.9989 27.8691 24.4147 27.8903L23.7483 28.0181Z" fill="var(--fill-0, #9C6740)"/>
<path id="Vector_42" d="M15.0698 26.497C15.2761 26.5853 15.3095 26.8932 15.4108 26.8688C15.9911 26.7289 16.6665 26.5132 17.2801 26.5883C17.5919 26.6264 17.8492 26.7688 18.1428 26.8522C18.7667 27.0765 19.6653 27.3614 20.3059 27.487C20.7806 27.4947 21.2588 27.4463 21.7341 27.4477C22.6312 27.4502 23.4957 27.5032 24.3953 27.4603C24.7744 27.4422 25.42 27.3255 25.7494 27.3908C25.7592 27.4448 25.7648 27.4421 25.7574 27.4941C25.1555 27.3723 23.7311 27.6863 23.0098 27.5931C22.7775 27.563 22.2609 27.6948 22.0046 27.6689C20.8621 27.6507 19.7229 27.661 18.5803 27.6728C18.2396 27.6764 17.9265 27.7503 17.5928 27.765C17.0219 27.7264 17.04 27.8713 16.551 27.8942C16.2952 27.8863 15.8252 27.9147 15.6623 27.7342C15.4603 27.5103 15.5899 27.5662 15.3066 27.4772C15.2023 27.4413 14.7609 27.385 14.5413 27.3239C14.7729 27.2824 15.041 27.1128 15.2535 26.9963L15.0698 26.497Z" fill="url(#paint6_linear_0_8)"/>
<path id="Vector_43" d="M17.1692 14.76C19.1872 14.2366 19.6355 16.0531 20.7814 16.1311C21.0244 16.1262 21.2676 16.1235 21.5107 16.1232C21.7549 16.1666 21.8713 16.1771 22.1157 16.1881C21.8946 16.4492 21.8514 16.5041 21.6708 16.7867C21.6441 17.0183 21.6293 17.1791 21.6969 17.4067L21.6389 17.3974C21.3639 16.8256 20.5871 16.4845 20.1152 16.9972C19.749 16.7863 18.9321 16.5797 18.5232 16.7044C18.6893 16.526 19.0949 16.4441 19.3444 16.3736C19.351 16.2127 18.8854 15.9621 18.7461 15.8511C18.0979 15.3341 17.8747 15.1651 17.0356 15.1321C16.8196 15.1544 16.5497 15.1099 16.3297 15.0834C16.6754 14.921 16.7997 14.8594 17.1692 14.76Z" fill="var(--fill-0, #E79855)"/>
<path id="Vector_44" d="M17.1692 14.76C19.1872 14.2366 19.6355 16.0531 20.7814 16.1311C21.0244 16.1262 21.2676 16.1235 21.5107 16.1232C21.7549 16.1666 21.8713 16.1771 22.1157 16.1881C21.8946 16.4492 21.8514 16.5041 21.6708 16.7867C21.5102 16.5217 21.7055 16.4958 21.5706 16.2484C21.4095 16.1765 21.1997 16.2697 21.0047 16.2791C20.3969 16.3085 19.967 16.1264 19.5177 15.7414C18.9849 14.9529 18.013 14.9595 17.1692 14.76Z" fill="var(--fill-0, #C47F51)"/>
<path id="Vector_45" d="M12.969 19.6024C13.266 19.5931 13.269 19.1238 13.6369 19.1507C13.7331 19.2616 13.7038 19.2094 13.7371 19.3661C13.9046 19.6843 14.0042 19.7728 14.3659 19.6255C14.354 19.9617 14.3505 20.4235 14.307 20.7473C14.2683 20.9313 14.1131 21.4204 14.1074 21.5553C14.1037 21.7459 14.1088 21.9554 13.9922 22.1171C13.1921 21.4933 13.4727 21.378 12.9837 20.8803C12.918 20.377 12.9217 20.1067 12.969 19.6024Z" fill="var(--fill-0, #E28221)"/>
<path id="Vector_46" d="M13.7371 19.3661C13.9046 19.6843 14.0042 19.7728 14.3659 19.6255C14.354 19.9617 14.3505 20.4235 14.307 20.7473C14.0686 20.6989 13.9478 20.7021 13.7089 20.7008C13.7258 20.2608 13.7288 19.8073 13.7371 19.3661Z" fill="var(--fill-0, #793407)"/>
<path id="Vector_47" d="M13.7089 20.7008C13.9478 20.7021 14.0686 20.6989 14.307 20.7473C14.2683 20.9313 14.1131 21.4204 14.1074 21.5553C13.8943 21.331 13.694 21.0116 13.7089 20.7008Z" fill="var(--fill-0, #E79855)"/>
<path id="Vector_48" d="M22.5907 17.9896C22.8627 18.0036 23.1149 17.9849 23.3165 18.1722C23.5013 18.4909 23.5102 18.5424 23.536 18.9121L23.5384 19.7595C21.8031 21.5577 22.2423 18.3301 22.5325 17.9936L22.5907 17.9896Z" fill="var(--fill-0, #010100)"/>
<path id="Vector_49" d="M18.5232 16.7044C18.9321 16.5797 19.749 16.7863 20.1152 16.9972C19.809 17.2753 19.7759 17.3732 19.6138 17.7432C19.1184 17.0649 18.5177 16.9631 17.9731 17.672L17.8308 16.9509C18.0707 16.8721 18.2897 16.8019 18.5232 16.7044Z" fill="var(--fill-0, #401B0D)"/>
<path id="Vector_50" d="M24.7145 15.8262C25.1099 15.6964 26.1507 16.9604 26.3182 17.2778C26.1037 17.0963 25.3814 16.493 25.1374 16.4134C25.1028 16.4375 25.0797 16.4384 25.0794 16.4758C25.0745 17.163 24.9832 17.6457 24.7181 18.3015C24.67 17.7377 24.6298 16.36 24.7145 15.8262Z" fill="var(--fill-0, #F6B76F)"/>
<path id="Vector_51" d="M23.3539 17.2229C23.4933 17.3948 23.6065 17.528 23.7581 17.6909C23.7115 17.7112 23.5855 17.7518 23.5787 17.8089C23.5358 18.169 23.5599 18.545 23.536 18.9121C23.5102 18.5424 23.5013 18.4909 23.3165 18.1722C23.1148 17.9849 22.8627 18.0036 22.5907 17.9896L22.5325 17.9936C22.3458 17.7585 21.7588 17.8312 21.6389 17.3974L21.6969 17.4067C21.9192 17.5759 22.02 17.6014 22.2933 17.6586C22.4065 17.609 22.6022 17.5315 22.6945 17.4631L23.3539 17.2229Z" fill="var(--fill-0, #F6B76F)"/>
<path id="Vector_52" d="M22.5907 17.9896C22.9297 17.8091 22.7782 17.5447 23.0281 17.6071C23.1396 17.7952 23.2155 18.0317 23.3165 18.1722C23.1148 17.9849 22.8627 18.0036 22.5907 17.9896Z" fill="var(--fill-0, #86420B)"/>
<path id="Vector_53" d="M22.9601 22.9761C23.1484 22.7827 23.2408 22.5535 23.5203 22.587L23.5676 22.6712C23.5629 23.0439 23.073 23.9893 22.7843 24.2082C22.044 24.7699 21.2434 25.2187 20.3909 25.584C19.6537 24.8075 18.3369 24.404 18.5324 22.9694C18.55 22.8402 18.5609 22.7279 18.6478 22.6256C18.7613 22.5599 18.893 22.6063 19.0253 22.6332C19.7296 22.6529 22.116 22.56 22.6684 22.8088L22.6551 22.845L22.554 22.8869C22.695 22.8758 22.8117 22.8458 22.9217 22.9202L22.9601 22.9761Z" fill="var(--fill-0, #010100)"/>
<path id="Vector_54" d="M19.0253 22.6332C19.7296 22.6529 22.116 22.56 22.6684 22.8088L22.6551 22.845L22.554 22.8869C22.695 22.8758 22.8117 22.8458 22.9217 22.9202L22.9601 22.9761C22.415 23.5905 21.8104 24.157 20.9233 24.0618C20.3066 23.9957 19.5844 23.8363 19.1454 23.3574C19.0314 23.2331 18.9549 23.0732 18.9705 22.9039C19.0127 22.8174 19.0142 22.73 19.0253 22.6332Z" fill="var(--fill-0, #EEECED)"/>
<path id="Vector_55" d="M19.0253 22.6332C19.7296 22.6529 22.116 22.56 22.6684 22.8088L22.6551 22.845L22.554 22.8869C21.4823 22.9374 20.438 22.9824 19.3665 22.9108C19.2491 22.9029 19.0861 22.8955 18.9705 22.9039C19.0127 22.8174 19.0142 22.73 19.0253 22.6332Z" fill="var(--fill-0, #C47F51)"/>
<path id="Vector_56" d="M20.2627 24.4982C20.5255 24.486 21.2229 24.4145 21.4068 24.5488L21.4119 24.6304C21.3276 24.7673 21.1617 24.8517 21.0221 24.9384C20.9482 24.9821 20.7591 25.1671 20.6855 25.236C20.5436 25.0409 20.1144 24.7418 20.1465 24.5456L20.2627 24.4982Z" fill="var(--fill-0, #EEECED)"/>
<path id="Vector_57" d="M18.4886 18.0455C18.5987 17.9409 18.6603 17.8744 18.7934 17.7993C18.9939 17.8064 19.0024 18.0101 19.2437 18.0506C19.3108 18.0691 19.2921 18.0667 19.3461 18.1299C19.4386 18.8618 19.4126 19.5653 19.3472 20.2956C18.9378 20.3139 18.7679 20.2913 18.3728 20.2149C18.274 19.7875 18.1847 18.6288 18.2799 18.156C18.2951 18.0807 18.4049 18.07 18.4886 18.0455Z" fill="var(--fill-0, #010100)"/>
<path id="Vector_58" d="M18.4886 18.0455C18.5987 17.9409 18.6603 17.8744 18.7934 17.7993C18.9939 17.8064 19.0024 18.0101 19.2437 18.0506L18.4886 18.0455Z" fill="var(--fill-0, #9C6740)"/>
<path id="Vector_59" d="M26.3631 27.5294C26.5791 27.3256 26.6102 27.1443 26.7883 26.9411C26.9432 27.1132 27.7518 27.104 28.0196 27.1223C28.3037 27.3285 28.5202 27.4422 28.6939 27.7406C29.3534 28.2798 30.9153 28.0729 31.413 28.5307L31.4919 28.5544C31.8217 28.6534 32.0435 28.93 32.3019 29.149C33.0884 29.8155 33.4998 30.7339 33.9874 31.6132C34.128 31.8665 34.4445 32.0446 34.5751 32.358C34.6502 32.4965 34.7163 32.637 34.8291 32.7469C34.9773 32.6835 35.1263 32.6216 35.2758 32.5612C35.3032 32.8896 35.3661 32.9077 35.4955 33.1841C35.5612 33.1925 35.6287 33.2018 35.6846 33.2386C35.2967 33.6037 35.22 33.5194 34.8408 33.9983C34.1306 35.0201 32.6816 36.1404 31.6036 36.7153C31.4188 36.8139 31.3514 36.9618 31.1142 37.0461C30.8405 37.3374 30.1205 37.5577 29.7349 37.6939C29.5817 37.748 29.3591 37.7576 29.187 37.8279C29.0386 37.8818 28.1432 38.0791 27.8955 38.1463C27.3273 38.138 26.2491 38.1629 25.7852 38.5078C25.6185 38.53 25.3582 38.5621 25.2103 38.6221C24.3509 38.9711 23.4118 38.8099 22.5093 38.891C22.3189 38.9081 22.1111 38.9179 21.9152 38.9247C21.5293 38.8663 19.7706 38.9114 19.3417 38.9274L14.5168 38.4249C14.0736 38.3607 12.9197 38.1023 12.5482 37.8572C12.502 37.8092 11.4078 37.3954 11.2403 37.3268C10.3144 37.1759 7.83062 34.9005 7.13073 34.1527C7.03984 33.8709 6.53674 32.526 6.53137 32.3685C6.63268 32.466 6.7709 32.6115 6.8887 32.6763C6.97315 32.7327 7.02085 32.7768 7.12113 32.7869L7.12958 32.7317C7.13742 32.6781 7.13934 32.4976 7.16613 32.4607C7.53847 31.9478 7.86196 31.2554 8.27043 30.7833C9.29636 29.5975 10.374 28.5076 11.9872 28.2439C12.3142 28.1851 12.8755 28.2455 13.2473 28.208L13.2864 28.2039L13.3097 27.8156C13.3243 27.7313 13.3407 27.6895 13.3691 27.6084C13.5363 27.4548 14.2693 27.3737 14.5413 27.3239C14.7609 27.385 15.2023 27.4413 15.3066 27.4772C15.5899 27.5662 15.4603 27.5103 15.6623 27.7342C15.8252 27.9147 16.2952 27.8863 16.551 27.8942C17.04 27.8713 17.0219 27.7264 17.5928 27.765C17.8212 27.8043 18.2431 27.8553 18.2584 28.1514C18.2284 28.1656 18.1696 28.196 18.1409 28.2045L18.1775 28.2132C18.3355 28.2573 18.4698 28.2751 18.5881 28.3847L18.5643 28.4564C18.4612 28.4998 18.433 28.5005 18.321 28.512C19.3526 28.7283 22.6302 28.6239 23.7581 28.49C23.8954 28.4737 24.3636 28.2506 24.5702 28.1874L24.6094 28.1756C24.5479 28.0538 24.5577 28.0182 24.5702 27.8872C25.0375 27.8542 25.6083 27.7789 26.0521 27.8956C26.1563 27.7794 26.2619 27.6494 26.3631 27.5294Z" fill="var(--fill-0, #1A1B22)"/>
<path id="Vector_60" d="M31.4919 28.5544C31.8217 28.6534 32.0435 28.93 32.3019 29.149C33.0884 29.8155 33.4998 30.7339 33.9874 31.6132C34.128 31.8665 34.4445 32.0446 34.5751 32.358C34.6502 32.4965 34.7163 32.637 34.8291 32.7469C35.047 33.0762 34.8075 33.0819 34.7019 33.3911L34.6724 33.3896C34.2167 34.1531 33.7491 34.4612 33.0179 34.9624C33.2393 34.5524 32.8058 34.2404 32.8182 33.9064C32.8545 32.9294 32.5355 32.071 32.4878 31.1046C32.4742 30.8297 32.7535 30.445 32.72 30.2785C32.6717 30.0372 31.8985 29.4575 31.8636 29.2374C31.8417 29.171 31.5895 28.8024 31.4919 28.5544Z" fill="url(#paint7_linear_0_8)"/>
<path id="Vector_61" d="M31.4919 28.5544C31.8217 28.6534 32.0435 28.93 32.3019 29.149C33.0884 29.8155 33.4998 30.7339 33.9874 31.6132C34.128 31.8665 34.4445 32.0446 34.5751 32.358C34.4615 32.5563 34.4571 32.5372 34.2071 32.6076C33.5778 31.7424 32.6338 29.6993 31.8636 29.2374C31.8417 29.171 31.5895 28.8024 31.4919 28.5544Z" fill="var(--fill-0, #010100)"/>
<path id="Vector_62" d="M34.5751 32.358C34.6502 32.4965 34.7163 32.637 34.8291 32.7469C35.047 33.0762 34.8075 33.0819 34.7019 33.3911L34.6724 33.3896C34.6174 33.146 34.3613 32.822 34.2071 32.6076C34.4571 32.5372 34.4614 32.5563 34.5751 32.358Z" fill="var(--fill-0, #20122E)"/>
<path id="Vector_63" d="M18.321 28.512C19.3526 28.7283 22.6302 28.6239 23.7581 28.49C23.8954 28.4737 24.3636 28.2506 24.5702 28.1874L24.6094 28.1756C24.827 28.7834 24.6939 28.8657 24.2372 29.2179C23.8561 29.3555 23.4903 29.3858 23.1154 29.4732C21.5821 29.8309 20.5632 29.7912 19.0237 29.5082L18.474 29.3879C18.2502 29.3676 18.0103 29.3306 17.7863 29.3006C18.0395 28.9923 18.1308 28.8615 18.321 28.512Z" fill="var(--fill-0, #C47F51)"/>
<path id="Vector_64" d="M15.3066 27.4772C15.5899 27.5662 15.4603 27.5103 15.6623 27.7341C15.8252 27.9147 16.2952 27.8863 16.551 27.8942C17.04 27.8713 17.0219 27.7264 17.5928 27.765C17.8212 27.8043 18.2431 27.8553 18.2584 28.1514C18.2284 28.1656 18.1696 28.196 18.1409 28.2045L18.1775 28.2132C18.3355 28.2573 18.4698 28.2751 18.5881 28.3847L18.5643 28.4564C18.4612 28.4998 18.433 28.5005 18.321 28.512C18.1308 28.8615 18.0395 28.9923 17.7863 29.3006C18.0103 29.3306 18.2502 29.3676 18.474 29.3879L18.5059 29.4897C18.1831 29.56 18.0838 29.4449 17.6781 29.5804C17.128 29.4318 15.5007 29.0455 15.2087 28.5619C15.2467 28.0162 15.2967 27.8362 14.6857 27.7544C14.6653 27.7166 14.6598 27.6694 14.6505 27.6256L14.7096 27.539C14.8769 27.4643 15.1174 27.4795 15.3066 27.4772Z" fill="var(--fill-0, #010100)"/>
<path id="Vector_65" d="M16.551 27.8942C17.04 27.8713 17.0219 27.7264 17.5928 27.765C17.8212 27.8043 18.2431 27.8553 18.2584 28.1514C18.2284 28.1656 18.1696 28.196 18.1409 28.2045C17.606 28.0739 17.0924 27.983 16.551 27.8942Z" fill="var(--fill-0, #9C6740)"/>
<path id="Vector_66" d="M6.53137 32.3685C6.63268 32.466 6.7709 32.6115 6.8887 32.6763C7.01203 33.24 8.87828 34.9469 9.39873 35.4166C9.73239 35.7177 10.6306 36.2665 11.0355 36.5861C11.1267 36.6581 11.2044 36.6194 11.2996 36.5932C11.3406 36.6446 11.5499 36.9002 11.5685 36.9394C11.8472 37.1579 12.3041 37.5021 12.6714 37.4889C12.6867 37.472 12.7306 37.426 12.7395 37.4095L12.7816 37.5341L12.8841 37.6862C12.8429 37.8534 12.7074 37.8374 12.5482 37.8572C12.502 37.8092 11.4078 37.3954 11.2403 37.3268C10.3144 37.1759 7.83062 34.9005 7.13073 34.1527C7.03984 33.8709 6.53674 32.526 6.53137 32.3685Z" fill="var(--fill-0, #623CF3)"/>
<path id="Vector_67" d="M11.2403 37.3268C11.5425 37.1841 11.8357 37.6059 12.1376 37.5672L12.1816 37.5067C12.1008 37.2821 11.539 37.2322 11.5685 36.9394C11.8472 37.1579 12.3041 37.5021 12.6714 37.4889C12.6867 37.472 12.7306 37.426 12.7395 37.4094L12.7816 37.5341L12.8841 37.6862C12.8429 37.8534 12.7074 37.8374 12.5482 37.8572C12.502 37.8092 11.4078 37.3954 11.2403 37.3268Z" fill="var(--fill-0, #4A1FDB)"/>
<path id="Vector_68" d="M35.2758 32.5612C35.3032 32.8896 35.3661 32.9077 35.4955 33.1841C35.5612 33.1926 35.6287 33.2018 35.6846 33.2386C35.2967 33.6037 35.22 33.5194 34.8408 33.9983C34.1306 35.0201 32.6816 36.1404 31.6036 36.7153C31.4188 36.8139 31.3514 36.9618 31.1142 37.0461C30.8405 37.3374 30.1205 37.5577 29.7349 37.6939C29.5817 37.748 29.3591 37.7576 29.187 37.8279C29.208 37.5628 29.2085 37.2588 29.2144 36.9898L29.2469 37.5228C29.764 37.3434 29.9001 37.2134 30.3407 36.9025C30.5392 36.7733 30.6239 36.7004 30.7966 36.5464C30.8045 36.5585 30.8476 36.5832 30.8624 36.5928C31.0213 36.53 31.1519 36.2931 31.2451 36.256C31.9586 35.9715 32.3956 35.3948 33.0179 34.9624C33.7491 34.4612 34.2167 34.1531 34.6724 33.3896L34.7019 33.3911C34.8075 33.0819 35.047 33.0762 34.8291 32.7469C34.9773 32.6835 35.1263 32.6216 35.2758 32.5612Z" fill="var(--fill-0, #623CF3)"/>
<path id="Vector_69" d="M35.2758 32.5612C35.3032 32.8896 35.3661 32.9077 35.4955 33.1841C35.5612 33.1926 35.6287 33.2018 35.6846 33.2386C35.2967 33.6037 35.22 33.5194 34.8408 33.9983C34.9152 33.6778 35.0837 33.6363 35.1389 33.3976L35.0951 33.3475C34.884 33.3422 34.8468 33.3839 34.7019 33.3911C34.8075 33.0819 35.047 33.0762 34.8291 32.7469C34.9773 32.6835 35.1263 32.6216 35.2758 32.5612Z" fill="var(--fill-0, #4A1FDB)"/>
<path id="Vector_70" d="M26.3631 27.5294C26.5791 27.3256 26.6102 27.1443 26.7883 26.9411C26.9432 27.1132 27.7518 27.104 28.0196 27.1223C28.3037 27.3285 28.5202 27.4422 28.6939 27.7406C28.4474 27.8083 28.2047 27.8487 27.9575 27.9097C27.3286 28.0651 26.788 28.4338 26.2097 28.6991C25.7277 28.8221 24.7043 29.3721 24.2372 29.2179C24.6939 28.8657 24.827 28.7834 24.6094 28.1756C24.5479 28.0538 24.5577 28.0182 24.5702 27.8872C25.0375 27.8542 25.6083 27.7789 26.0521 27.8956C26.1563 27.7794 26.2619 27.6494 26.3631 27.5294Z" fill="var(--fill-0, #010100)"/>
<path id="Vector_71" d="M11.2996 36.5932C11.4691 36.11 12.0675 35.6792 12.4664 35.3464C12.7338 36.3082 12.9191 36.4087 12.7395 37.4095C12.7306 37.426 12.6867 37.472 12.6714 37.4889C12.3041 37.5021 11.8472 37.1579 11.5685 36.9394C11.5499 36.9002 11.3406 36.6446 11.2996 36.5932Z" fill="var(--fill-0, #EEECED)"/>
<path id="Vector_72" d="M29.2176 35.8178C29.5636 35.799 29.9098 35.8011 30.2564 35.8001C30.3873 36.0613 30.6167 36.2983 30.7966 36.5464C30.6239 36.7004 30.5392 36.7733 30.3407 36.9025C29.9001 37.2134 29.764 37.3434 29.2469 37.5228L29.2144 36.9898L29.2176 35.8178Z" fill="var(--fill-0, #EEECED)"/>
<path id="Vector_73" d="M26.2097 28.6991C26.788 28.4338 27.3286 28.0651 27.9575 27.9097C28.2047 27.8487 28.4474 27.8083 28.6939 27.7406C29.3534 28.2798 30.9153 28.0729 31.413 28.5307L31.3279 28.5555L31.3019 28.5365C31.2124 28.471 31.1116 28.4227 31.0045 28.3941C30.9483 28.3789 29.0001 28.0443 29.046 28.0403L29.1535 28.13C28.972 28.5321 28.3147 28.3333 27.9935 28.2797C27.8978 28.1627 27.8522 28.0613 27.729 28.0352C27.2458 28.1638 26.4728 28.7416 26.2097 28.6991Z" fill="var(--fill-0, #373844)"/>
<path id="Vector_74" d="M13.3097 27.8156C13.3243 27.7313 13.3407 27.6895 13.3691 27.6084C13.5363 27.4548 14.2693 27.3737 14.5413 27.3239C14.7609 27.385 15.2023 27.4413 15.3066 27.4772C15.1174 27.4795 14.8769 27.4643 14.7096 27.539L14.6505 27.6256C14.6598 27.6694 14.6653 27.7166 14.6857 27.7544C14.3723 27.7612 14.0625 27.7084 13.9582 28.0742L13.928 28.0667C13.6748 28.1409 13.5532 28.1804 13.2864 28.2039L13.3097 27.8156Z" fill="var(--fill-0, #691601)"/>
<path id="Vector_75" d="M13.3097 27.8156C13.6126 27.8877 13.6597 27.9248 13.928 28.0667C13.6748 28.1409 13.5532 28.1804 13.2864 28.2039L13.3097 27.8156Z" fill="var(--fill-0, #0B0715)"/>
<path id="Vector_76" d="M13.9582 28.0742C14.0625 27.7084 14.3723 27.7612 14.6857 27.7544C15.2967 27.8362 15.2467 28.0162 15.2087 28.5619C15.0496 28.5445 14.1444 28.1611 13.9582 28.0742Z" fill="var(--fill-0, #A92300)"/>
<path id="Vector_77" d="M12.7816 37.5341C13.1986 37.7562 13.598 37.9373 14.0446 38.0927C14.2794 38.1744 14.3854 38.2082 14.5168 38.4249C14.0736 38.3607 12.9197 38.1023 12.5482 37.8572C12.7074 37.8374 12.8429 37.8534 12.8841 37.6862L12.7816 37.5341Z" fill="var(--fill-0, #2D1C7E)"/>
<path id="Vector_78" d="M18.474 29.3879L19.0237 29.5082C18.9789 29.5312 18.84 29.588 18.8263 29.6146L18.8484 29.6146C18.4847 29.7431 18.0207 29.7944 17.6781 29.5804C18.0838 29.4449 18.1831 29.56 18.5059 29.4897L18.474 29.3879Z" fill="var(--fill-0, #0B0715)"/>
<path id="Vector_79" d="M25.0363 35.2231C25.1398 34.0545 25.0098 32.5738 24.9587 31.3976C24.9539 31.2872 25.1835 31.2488 25.2941 31.2796C25.4394 31.434 25.4353 31.6792 25.4241 31.8837C25.3678 32.9143 25.4054 33.9616 25.4299 34.9956C25.6269 35.0454 25.8811 35.0975 25.822 35.3444C25.699 35.4573 25.7555 35.4346 25.6094 35.4512C25.3754 35.3582 25.2737 35.2036 25.1058 35.2201L25.0634 35.2528L25.0363 35.2231Z" fill="var(--fill-0, #EEECED)"/>
<path id="Vector_80" d="M25.0363 35.2231L25.0634 35.2528C25.084 35.5881 24.9829 36.3136 24.9276 36.6611C24.9019 36.5669 24.8642 36.4398 24.8394 36.3419C24.6937 35.765 23.7748 35.2194 25.0363 35.2231Z" fill="var(--fill-0, #EEECED)"/>
<path id="Vector_81" d="M16.1876 31.8199C16.3418 31.9831 16.3542 33.8611 16.181 34.0652L16.0838 33.979C15.9343 33.6243 16.1026 32.2195 16.1876 31.8199Z" fill="var(--fill-0, #EEECED)"/>
<path id="Vector_82" d="M16.0708 34.172C16.157 34.183 16.1633 34.1901 16.2406 34.2332C16.3841 34.4364 16.4019 35.0843 16.2118 35.2706L15.9049 34.9609C15.9536 34.6726 15.9884 34.4526 16.0708 34.172Z" fill="var(--fill-0, #EEECED)"/>
<path id="Vector_83" d="M16.4742 31.1893C16.8739 31.2699 16.7003 31.5945 16.5894 31.8446C16.2898 31.7537 16.3753 31.3984 16.4742 31.1893Z" fill="var(--fill-0, #EEECED)"/>
<path id="Vector_84" d="M14.6914 3.26675C14.7277 3.23599 14.7644 3.20571 14.8015 3.17591C15.1627 2.88727 15.2887 3.02274 15.6594 2.88961C16.1691 2.70656 16.5117 2.64052 17.0383 2.55157C18.2759 2.34255 19.5099 2.15113 20.7703 2.15453C21.3422 2.15606 21.8512 2.38924 22.4261 2.35559C23.3678 2.33077 24.3472 2.52243 25.2824 2.62176C25.6154 2.65712 25.9167 2.82656 26.2352 2.91852C26.397 2.96385 26.6927 2.98425 26.869 3.00355L27.0638 3.23828C27.2991 3.28792 27.6785 3.32497 27.9267 3.35648L27.9544 3.37956C28.2473 3.62162 30.4636 4.71499 30.9441 4.94874C32.0491 5.7154 33.1735 6.45865 34.1948 7.35488C34.537 7.65516 34.9114 8.22105 35.207 8.58785C35.4804 8.92717 35.9331 9.3457 36.1706 9.6785C37.4785 11.5113 38.5492 13.6547 39.1949 15.8144C39.3209 16.2359 39.4616 16.6403 39.5402 17.0716C39.5477 17.1136 39.5549 17.1559 39.5616 17.1981C39.8624 18.2777 39.8613 18.6441 39.8656 19.7753C39.906 20.2663 39.9386 20.7553 39.9419 21.2462C39.945 21.7049 39.8417 22.2244 39.8435 22.6654C39.8471 23.5336 39.8425 24.1925 39.5422 25.016C39.4624 25.2346 39.4672 25.6578 39.3901 25.8966C39.2558 26.2789 39.1513 26.8403 38.9995 27.2007C38.8852 27.4721 38.6975 28.2916 38.5615 28.4843C38.0683 29.1836 37.9253 29.9762 37.556 30.7391C37.433 30.9933 37.1896 31.1935 37.0213 31.417C36.7564 31.8696 36.0765 32.9228 35.6846 33.2386C35.6287 33.2018 35.5612 33.1925 35.4955 33.1841C35.3661 32.9077 35.3032 32.8896 35.2758 32.5612C35.3557 32.426 35.8452 32.0412 35.8936 31.9403C36.0865 31.5386 36.1693 31.3247 36.4188 30.9375L36.5902 30.8841C36.7078 30.8487 36.7196 30.8515 36.8027 30.7558C36.8301 30.5734 36.745 30.6311 36.6948 30.4447C36.6073 30.1969 36.985 30.1442 37.0385 30.0144C37.222 29.5696 37.3804 29.1025 37.5856 28.6657C37.6955 28.4317 37.779 28.098 37.9106 27.8923C38.1082 27.2964 38.2896 26.7867 38.4102 26.1646C38.4693 25.8601 38.6217 25.5179 38.6866 25.194C38.8069 24.593 38.8272 23.7978 39.0312 23.226C39.0773 22.8729 39.0701 22.2512 39.0729 21.8778C39.0812 21.1338 39.0803 20.3896 39.0703 19.6456C39.0301 19.3353 38.9613 18.9209 38.9032 18.6137C38.8216 18.1825 38.7791 17.0078 38.6309 16.6685C38.58 16.2586 38.3781 15.8559 38.2886 15.425C37.8105 13.7562 36.7436 11.4514 35.5882 10.131C35.4786 9.99178 35.3977 9.87812 35.2993 9.73067C34.5767 9.09562 33.8893 8.36793 33.1881 7.71894C32.3244 6.63965 31.3865 6.14779 30.3 5.39753C29.1713 4.56516 27.8327 4.10911 26.5218 3.6441C26.0174 3.46516 25.1883 3.38712 24.6199 3.2443C23.9859 3.13582 23.3554 3.16652 22.7572 3.08168C21.7369 2.93698 20.8303 2.80169 19.7898 2.91869C19.5589 2.94465 19.3322 3.076 19.0877 3.11179C18.5246 3.13729 17.6669 3.13468 17.1326 3.29486C16.9405 3.39556 16.6493 3.35453 16.4257 3.4036C15.9061 3.51764 15.3994 3.66224 14.8723 3.74311C14.7111 3.76785 14.7409 3.99194 14.5632 4.01689C14.4014 4.07498 13.9221 4.04713 13.8426 4.1573C13.7259 4.3189 13.7951 4.29417 13.5981 4.35217C13.3135 4.43596 13.1309 4.32945 12.9874 4.57136C12.9195 4.68579 12.3235 4.94333 12.1862 5.03024C11.8835 5.22194 11.2966 5.49162 11.031 5.67746C10.5306 6.02761 10.5908 6.0829 10.0091 6.36845C9.73641 6.64125 8.73038 7.57312 8.46218 7.79276C8.09476 8.11547 7.64847 8.60237 7.35168 8.85572C7.10423 9.24673 6.65708 9.55516 6.41382 9.92238C6.09135 10.4092 5.79268 10.8936 5.42374 11.3536C5.30611 11.5002 5.26046 11.6667 5.11891 11.8187C5.01092 12.0849 4.92745 12.3125 4.77328 12.5563C4.30742 13.3985 4.04591 14.057 3.7394 14.9736C3.67235 15.1741 3.56226 15.6483 3.51173 15.7764C3.43408 15.9316 3.34758 16.0963 3.27474 16.2524C3.17568 16.9373 3.04673 17.3246 2.83299 17.9655C2.75932 18.1864 2.79521 18.9259 2.76012 19.2069C2.75284 19.0218 2.74281 18.8638 2.72384 18.6795C2.65557 19.0866 2.60912 18.8813 2.33351 19.0739C2.183 19.1791 2.20035 19.5803 2.17971 19.7616C2.13265 19.4948 2.0874 19.2332 2.02975 18.9683L1.97458 18.9844C1.96898 18.1381 2.21996 17.0907 2.42523 16.2736C2.61159 15.5317 3.25661 13.464 3.80882 12.9723C3.89471 12.5861 3.89861 12.51 4.18655 12.2247C4.20763 12.0645 4.26509 11.8837 4.30976 11.7261C4.4853 11.5865 4.53005 11.5246 4.63399 11.3291C5.40258 9.88333 6.45602 8.63621 7.61262 7.48732C7.70848 7.39212 8.11576 6.85125 8.17339 6.82545C8.71857 6.5812 9.06819 6.1701 9.51645 5.79087C10.0369 5.33978 11.2167 4.94562 11.6173 4.45426L12.091 4.38277L12.3309 4.0932C12.4965 4.05864 12.6713 4.02864 12.8383 3.9972L13.0989 3.73575L13.5742 3.63075L13.8429 3.35007C14.1208 3.31726 14.4014 3.30289 14.6914 3.26675Z" fill="var(--fill-0, #380FFA)"/>
<path id="Vector_85" d="M38.6309 16.6685C38.7462 16.6202 38.8193 16.5739 38.9398 16.6107C39.2894 16.845 39.0487 17.5822 39.113 17.9591C39.1919 18.4221 39.4746 18.6789 39.6137 19.1027C39.7725 19.8675 39.517 20.6498 39.5181 21.4584C39.5193 22.2906 39.6905 22.8661 39.5923 23.6896C39.1489 24.1544 39.3436 24.2723 39.1732 24.497L39.1123 24.4559C39.0036 24.6488 39.2108 25.2242 39.1397 25.3878C38.9294 25.8723 38.85 26.3301 38.7169 26.8303C38.6342 27.1412 38.4164 27.5125 38.3163 27.841C38.1921 27.9237 38.0544 27.921 37.9106 27.8923C38.1081 27.2964 38.2896 26.7867 38.4102 26.1646C38.4693 25.8601 38.6217 25.5179 38.6866 25.194C38.8069 24.593 38.8272 23.7978 39.0312 23.226C39.0773 22.8729 39.0701 22.2512 39.0729 21.8778C39.0812 21.1338 39.0803 20.3896 39.0703 19.6456C39.0301 19.3353 38.9613 18.9209 38.9032 18.6137C38.8216 18.1825 38.7791 17.0078 38.6309 16.6685Z" fill="var(--fill-0, #623CF3)"/>
<path id="Vector_86" d="M39.0703 19.6456L39.1115 19.5148C39.5759 19.748 39.4545 21.3794 39.4615 21.8339C39.4674 22.2155 39.4702 23.1002 39.0312 23.226C39.0773 22.8729 39.0701 22.2512 39.0729 21.8778C39.0812 21.1338 39.0803 20.3896 39.0703 19.6456Z" fill="var(--fill-0, #B9A5F8)"/>
<path id="Vector_87" d="M17.7543 2.91128C18.1357 2.90062 19.0673 3.08253 19.2233 2.84177C19.343 2.65712 19.4236 2.46225 19.8441 2.4614C20.4615 2.46016 21.4361 2.36586 22.0088 2.54809C22.3451 2.65512 22.6551 2.89029 23.0095 2.93036C23.4348 2.97844 24.2047 2.76552 24.5685 2.96073C24.6527 3.09306 24.6264 3.06134 24.6199 3.2443C23.9859 3.13582 23.3554 3.16652 22.7572 3.08168C21.7369 2.93698 20.8303 2.80169 19.7898 2.91869C19.5589 2.94465 19.3322 3.076 19.0877 3.11179C18.5246 3.13729 17.6669 3.13468 17.1326 3.29486C17.0983 3.13148 17.0842 3.04152 17.1656 2.91216C17.3113 2.84333 17.5822 2.89407 17.7543 2.91128Z" fill="var(--fill-0, #623CF3)"/>
<path id="Vector_88" d="M17.1326 3.29486C17.0983 3.13148 17.0842 3.04152 17.1656 2.91216C17.3113 2.84333 17.5822 2.89407 17.7543 2.91128C17.9418 2.96073 18.1273 3.01629 18.3184 3.04773C18.5417 3.08448 18.8812 3.07071 19.0877 3.11179C18.5246 3.13729 17.6669 3.13468 17.1326 3.29486Z" fill="var(--fill-0, #B9A5F8)"/>
<path id="Vector_89" d="M7.35168 8.85572C7.42731 8.69474 7.47132 8.54212 7.51935 8.37199C7.67845 7.80851 8.20591 7.59605 8.69802 7.39233C8.53117 7.5625 8.53449 7.56623 8.46218 7.79276C8.09476 8.11547 7.64847 8.60237 7.35168 8.85572Z" fill="var(--fill-0, #623CF3)"/>
<path id="Vector_90" d="M8.69802 7.39233C9.02606 7.16252 9.29664 6.57288 9.68584 6.31895C9.82825 6.27908 9.87246 6.31079 10.0091 6.36845C9.73641 6.64125 8.73038 7.57312 8.46218 7.79276C8.53449 7.56623 8.53117 7.5625 8.69802 7.39233Z" fill="var(--fill-0, #986CF1)"/>
<path id="Vector_91" d="M4.77328 12.5563C4.64223 12.4306 4.53817 12.3383 4.55589 12.1417C4.66417 11.9316 4.89567 11.8903 5.11891 11.8187C5.01092 12.0849 4.92745 12.3125 4.77328 12.5563Z" fill="var(--fill-0, #623CF3)"/>
<path id="Vector_92" d="M3.27474 16.2524C3.17396 16.0874 3.07408 15.9765 3.14491 15.7878C3.30876 15.7208 3.31097 15.7518 3.51173 15.7764C3.43408 15.9316 3.34758 16.0963 3.27474 16.2524Z" fill="var(--fill-0, #986CF1)"/>
<path id="Vector_93" d="M1.96326 22.4116C2.08118 22.9557 2.0574 23.2947 2.42276 23.7891C2.50725 23.801 2.50407 23.8012 2.58758 23.7843C2.67635 23.8734 2.6877 23.9584 2.72297 24.0806C2.71262 24.0363 2.75612 23.9358 2.76467 23.8608C2.77549 24.3093 2.93722 24.4559 2.99903 24.8287C3.24333 26.3019 3.83941 27.5688 4.36911 28.9398C4.56385 29.2811 4.8227 29.8704 5.02589 30.1683C5.47915 30.833 6.02511 31.7663 6.53137 32.3685C6.53674 32.526 7.03984 33.8709 7.13073 34.1527C6.8373 33.8837 6.43297 33.3192 6.16748 32.9907C5.66463 32.3607 5.15771 31.7221 4.70929 31.0519C4.59535 30.8816 4.47308 30.6031 4.36066 30.4081C4.3269 30.3756 4.33949 30.3948 4.32493 30.3609C3.7252 28.964 2.93985 27.5829 2.66065 26.0667L2.4201 25.8248C2.38361 25.604 2.38014 25.15 2.31714 24.9651C1.9915 24.0095 1.95755 23.4185 1.96326 22.4116Z" fill="var(--fill-0, #380FFA)"/>
<path id="Vector_94" d="M1.97458 18.9844L2.02975 18.9683C2.0874 19.2332 2.13265 19.4949 2.17971 19.7616C2.20035 19.5803 2.183 19.1791 2.33351 19.0739C2.60912 18.8813 2.65557 19.0866 2.72384 18.6795C2.74281 18.8638 2.75284 19.0218 2.76012 19.2069L2.72714 19.6843C2.6886 20.9208 2.70065 21.967 2.72021 23.2023C2.72931 23.3923 2.73444 23.6805 2.76467 23.8608C2.75612 23.9358 2.71262 24.0363 2.72297 24.0806C2.6877 23.9584 2.67635 23.8734 2.58758 23.7843C2.50407 23.8012 2.50725 23.801 2.42276 23.7891C2.0574 23.2947 2.08118 22.9557 1.96326 22.4116C1.82136 21.7612 1.9489 19.7298 1.97458 18.9844Z" fill="var(--fill-0, #623CF3)"/>
<path id="Vector_95" d="M2.72021 23.2023C2.48159 23.1301 2.39504 23.0779 2.37154 22.8134C2.34689 22.2433 2.32719 21.7966 2.35705 21.2045C2.37855 20.7781 2.21258 19.863 2.50002 19.5271C2.54657 19.4727 2.62243 19.4937 2.6859 19.5023L2.72714 19.6843C2.6886 20.9208 2.70065 21.967 2.72021 23.2023Z" fill="var(--fill-0, #B9A5F8)"/>
<path id="Vector_96" d="M19.3417 38.9274C19.7706 38.9114 21.5293 38.8663 21.9152 38.9247C20.678 39.1886 20.5649 39.1947 19.3417 38.9274Z" fill="var(--fill-0, #010100)" fill-opacity="0.972549"/>
<path id="Vector_97" d="M25.7852 38.5078C26.2491 38.1629 27.3273 38.138 27.8955 38.1463C27.6383 38.1995 27.4269 38.2545 27.1769 38.3345C26.7342 38.4761 26.236 38.4434 25.7852 38.5078Z" fill="var(--fill-0, #010100)" fill-opacity="0.980392"/>
</g>
<defs>
<linearGradient id="paint0_linear_0_8" x1="15.7141" y1="27.214" x2="25.5211" y2="16.6909" gradientUnits="userSpaceOnUse">
<stop stop-color="#E5A87C"/>
<stop offset="1" stop-color="#FFDEB7"/>
</linearGradient>
<linearGradient id="paint1_linear_0_8" x1="19.1333" y1="21.1966" x2="22.8588" y2="9.13594" gradientUnits="userSpaceOnUse">
<stop stop-color="#3C1B06"/>
<stop offset="1" stop-color="#6B2C05"/>
</linearGradient>
<linearGradient id="paint2_linear_0_8" x1="23.1359" y1="14.2125" x2="20.9812" y2="16.537" gradientUnits="userSpaceOnUse">
<stop stop-color="#6D3003"/>
<stop offset="1" stop-color="#451F08"/>
</linearGradient>
<linearGradient id="paint3_linear_0_8" x1="27.3585" y1="15.1129" x2="25.3465" y2="8.81746" gradientUnits="userSpaceOnUse">
<stop stop-color="#9A5911"/>
<stop offset="1" stop-color="#DD7C24"/>
</linearGradient>
<linearGradient id="paint4_linear_0_8" x1="29.2368" y1="15.1849" x2="26.8708" y2="12.1779" gradientUnits="userSpaceOnUse">
<stop stop-color="#7A3607"/>
<stop offset="1" stop-color="#9A5411"/>
</linearGradient>
<linearGradient id="paint5_linear_0_8" x1="17.2277" y1="9.19287" x2="17.7285" y2="10.3082" gradientUnits="userSpaceOnUse">
<stop stop-color="#611E00"/>
<stop offset="1" stop-color="#7A3406"/>
</linearGradient>
<linearGradient id="paint6_linear_0_8" x1="17.7194" y1="27.9243" x2="17.8358" y2="26.6447" gradientUnits="userSpaceOnUse">
<stop stop-color="#BB794E"/>
<stop offset="1" stop-color="#DA9B70"/>
</linearGradient>
<linearGradient id="paint7_linear_0_8" x1="32.4518" y1="32.5253" x2="34.5175" y2="32.6096" gradientUnits="userSpaceOnUse">
<stop stop-color="#3B3D40"/>
<stop offset="1" stop-color="#8E7875"/>
</linearGradient>
</defs>
</svg>
