<svg preserveAspectRatio="none" width="100%" height="100%" overflow="visible" style="display: block;" viewBox="0 0 26 26" fill="none" xmlns="http://www.w3.org/2000/svg">
<g id="image">
<path id="Vector" d="M8.42174 4.52748C8.4953 4.27725 8.76911 4.03889 8.96581 3.90117C9.39067 3.60367 9.45839 3.62152 9.83856 3.87921C10.0746 4.03919 10.2052 3.86605 10.4447 4.23475C11.0255 4.37714 12.0161 5.4326 12.4224 5.90863C12.7217 6.25914 12.9958 6.80669 13.351 7.17209C13.5296 7.35584 13.7405 7.79411 13.9339 7.99409C14.1727 8.30279 14.5084 8.54014 14.7082 8.87816C14.7856 9.00697 14.906 9.2479 14.9865 9.35393C15.3866 9.88114 15.9463 10.394 16.3684 10.8863C16.8651 11.4656 16.9153 11.8832 17.6373 12.3254C17.7049 11.8148 17.7626 11.8231 17.9724 11.3509C18.0102 11.2659 18.0505 10.9323 18.0931 10.8212C18.1572 10.6542 18.226 10.5063 18.2946 10.3339C18.3441 10.2094 18.4023 9.94096 18.4585 9.83176C18.8451 9.07997 19.2195 8.06764 19.8091 7.45715C20.1682 7.24356 20.5477 7.02495 20.9344 6.87009C21.0866 6.80918 21.1843 6.70942 21.3251 6.66877C21.4247 6.64 21.6448 6.64628 21.7302 6.67926C22.11 6.74865 23.0165 7.67985 23.2843 8.01694C23.709 8.55151 22.7722 9.34746 22.4995 9.78138C22.3752 9.97928 22.3308 10.1622 22.167 10.3619C22.0766 10.5483 22.0661 10.708 22.011 10.9066C21.703 11.9963 21.6304 13.139 21.7978 14.2589C21.8461 14.5916 21.952 14.9108 22.0152 15.2374C22.0671 15.5057 22.0648 15.8239 22.0635 16.0977L22.0657 17.5958C22.0643 18.1264 22.1113 18.6139 21.8426 19.0931C21.5793 19.5437 21.2742 20.4934 20.8065 20.7726C20.6929 21.1915 18.9714 22.6355 18.5419 22.9642C18.5001 22.9962 18.3454 23.0317 18.2866 23.0444C18.1782 23.1144 18.1021 23.1795 17.9983 23.2513C17.8553 23.3502 17.6023 23.4693 17.4751 23.5741C17.2483 23.6656 17.029 23.6759 16.7976 23.7287L16.6404 23.9255C16.5423 23.9465 16.4245 23.9759 16.3261 23.9807C15.8338 24.054 15.5661 24.3206 15.054 24.3194C14.5881 24.3184 14.1536 24.397 13.709 24.1962C13.1909 23.9622 12.6985 23.7734 12.2667 23.391C11.936 23.1062 11.5582 22.8981 11.2226 22.6219C10.701 22.1927 10.2303 21.712 9.69945 21.2906C8.85442 20.6199 8.13991 19.7574 7.36694 19.0045C6.89858 18.5483 4.10706 16.1246 4.06725 15.7051C4.05158 15.5401 4.1343 15.3876 4.23645 15.2644C4.42556 15.0365 4.72669 14.6615 5.03704 14.6337C5.18441 14.6059 5.22806 14.601 5.33777 14.5006C5.42946 14.278 5.8987 14.309 6.12706 14.2823C6.04739 14.149 5.89019 14.0224 5.80742 13.8825C5.504 13.3698 5.2181 12.9932 4.78697 12.5766C4.27147 12.0786 3.8153 11.6309 3.46163 10.9977C2.97634 10.129 3.33354 9.6148 4.0803 9.10322C4.28429 8.96188 4.47779 8.95758 4.71867 9.00486C5.07574 8.95715 5.39536 9.00679 5.75758 8.9648C5.6564 8.74428 5.38106 8.20211 5.23481 8.03362C4.9414 7.69557 4.8135 7.6294 4.56973 7.23488C4.43193 7.0328 4.24531 6.68365 4.0855 6.47232C4.02215 6.32044 4.0494 6.02692 4.12648 5.89999C4.47484 5.32652 4.93144 4.92157 5.55674 4.69638C5.98774 4.9728 6.45143 5.08511 6.75805 5.52218C6.85542 5.60986 7.07101 5.84759 7.15246 5.90243C7.22815 5.97807 7.42374 6.1638 7.43707 6.26039C7.59269 6.30589 7.74135 6.31879 7.90189 6.33803C8.08041 6.50107 8.12624 6.62766 8.36334 6.62464C8.30601 6.46473 8.33691 6.46552 8.23916 6.27242C7.76765 5.54145 8.21448 5.18507 8.42174 4.52748Z" fill="var(--fill-0, #FECA44)"/>
<path id="Vector_2" d="M5.03704 14.6337C5.1255 14.6789 5.18075 14.6593 5.28592 14.6419C5.42133 15.1248 5.56052 15.2645 5.78084 15.6895C6.43282 16.9469 7.32159 17.7694 8.31205 18.7477C9.38001 19.8026 10.3881 20.9346 11.6691 21.7589C12.4005 22.243 13.0815 22.9327 14.0223 22.7734C14.1408 22.7533 14.3337 22.7483 14.4556 22.7555C14.1711 22.8042 13.7278 22.8488 13.4391 22.8147C13.3642 22.8058 13.2086 22.7344 13.1641 22.7672C13.1987 22.9139 13.3763 23.0304 13.4936 23.1122C13.65 23.2214 13.7711 23.1936 13.9274 23.246C14.5577 23.4575 14.905 23.5221 15.5646 23.3429C16.0104 23.2206 16.4775 23.0809 16.891 22.8725C17.095 22.7696 17.2866 22.6125 17.4895 22.5106C17.7842 22.3627 18.071 22.2766 18.3412 22.0792C18.757 21.7753 19.2073 21.491 19.5909 21.1472C19.5529 21.4469 18.5465 22.0587 18.2682 22.2515C18.4001 22.3121 18.6157 22.0506 18.7152 22.0036C19.0025 21.8679 19.2626 21.6869 19.5321 21.5182L19.6138 21.6716C19.4308 21.854 18.8171 22.4696 18.6191 22.5646L18.6508 22.6964C18.6012 22.7374 18.3139 23.0071 18.2866 23.0444C18.1782 23.1144 18.1021 23.1795 17.9983 23.2513C17.8553 23.3502 17.6023 23.4693 17.4751 23.5741C17.2483 23.6656 17.029 23.6759 16.7976 23.7287L16.6404 23.9255C16.5423 23.9465 16.4245 23.9759 16.3261 23.9807C15.8338 24.054 15.5661 24.3206 15.054 24.3194C14.5881 24.3184 14.1536 24.397 13.709 24.1962C13.1909 23.9622 12.6985 23.7734 12.2667 23.391C11.936 23.1062 11.5582 22.8981 11.2226 22.6219C10.701 22.1927 10.2303 21.712 9.69945 21.2906C8.85442 20.6199 8.1399 19.7574 7.36694 19.0045C6.89858 18.5483 4.10706 16.1246 4.06725 15.7051C4.05158 15.5401 4.1343 15.3876 4.23645 15.2644C4.42556 15.0365 4.72669 14.6615 5.03704 14.6337Z" fill="var(--fill-0, #FD9704)"/>
<path id="Vector_3" d="M18.6191 22.5646L18.6508 22.6964C18.6012 22.7374 18.3139 23.0071 18.2866 23.0444C18.1782 23.1144 18.1021 23.1795 17.9983 23.2513C17.8553 23.3502 17.6023 23.4693 17.4751 23.5741C17.2483 23.6656 17.029 23.6759 16.7976 23.7287L16.6404 23.9255C16.5423 23.9465 16.4245 23.9759 16.3261 23.9807C16.3476 23.9244 16.5524 23.9001 16.5783 23.8716C16.8439 23.5793 17.1024 23.632 17.4411 23.5423C17.5658 23.5092 17.7519 23.1513 17.8781 23.0744C17.8894 23.1262 17.8799 23.124 17.9119 23.1509C18.1557 22.9655 18.3917 22.7699 18.6191 22.5646Z" fill="var(--fill-0, #EC6300)"/>
<path id="Vector_4" d="M6.12706 14.2823C6.04739 14.149 5.89019 14.0224 5.80742 13.8825C5.504 13.3698 5.2181 12.9932 4.78697 12.5766C4.27147 12.0786 3.8153 11.6309 3.46163 10.9977C2.97634 10.129 3.33354 9.61479 4.0803 9.10322C4.28429 8.96187 4.47779 8.95758 4.71867 9.00486C4.85329 9.22606 5.07617 9.40182 5.23044 9.63693C5.0766 9.66441 5.06322 9.7892 4.94531 9.84039C4.68409 9.95373 4.17815 9.828 3.98788 10.0749C3.95152 10.1221 3.94398 10.1746 3.95355 10.2322C4.01461 10.5997 5.38299 11.8956 5.7167 12.1813C6.17708 12.5755 6.69345 12.9143 7.11918 13.3498C7.22119 13.4541 7.17003 13.6235 7.24245 13.7518C7.40825 14.0457 7.65878 14.3048 7.88303 14.555C8.3137 15.0354 8.79303 15.4852 9.27162 15.918C9.59253 16.2083 9.95099 16.5049 10.2352 16.831C10.0719 16.9404 10.0285 16.9668 9.83635 17.0307C9.03053 16.8049 7.79921 15.7138 7.13482 15.1665C6.97138 15.0319 6.7098 14.749 6.56056 14.6439C6.42134 14.5026 6.30165 14.3775 6.12706 14.2823Z" fill="url(#paint0_linear_0_108)"/>
<path id="Vector_5" d="M4.61871 7.20406C4.67799 7.25682 4.77075 7.49673 4.81708 7.51116C4.97486 7.56029 5.08079 7.48797 5.23494 7.6393C5.55476 7.95326 5.74882 8.35037 6.10601 8.63393C6.28225 8.77381 6.34286 8.92181 6.5566 8.91201C6.63307 8.86491 6.61022 8.88042 6.65046 8.78556L6.68345 8.77612C6.77198 8.82868 6.87103 8.98518 6.93799 9.07532L6.98986 9.0546C6.97031 8.94009 6.70945 8.55776 6.64112 8.43426C6.34575 7.90042 5.89936 7.46558 5.51693 6.99664C5.38276 6.83211 5.27744 6.63617 5.14229 6.47118C5.0048 6.3053 4.84994 6.15527 4.72431 5.97865C4.7384 5.89867 4.76869 5.82331 4.78225 5.74323C4.80157 5.81483 4.82965 6.0091 4.86769 6.058C4.98245 6.20557 5.1234 6.36231 5.24474 6.50399C5.51302 6.93395 5.8059 7.27965 6.14552 7.65598C6.5799 8.13731 6.84348 8.73874 7.21289 9.26692C7.44024 9.59334 7.63707 9.93794 7.83572 10.2843C8.14437 10.9454 9.18734 12.1789 9.63975 12.7714C10.143 13.4305 10.5554 14.0193 11.1859 14.5755C11.1516 14.6959 11.0992 14.9396 11.0387 15.0235C10.6414 15.218 9.47586 13.7746 9.19339 13.4745C9.07733 13.3512 8.87664 13.0543 8.75426 12.9616C8.61824 12.7623 8.13318 12.2004 7.98109 11.9793C7.6569 11.508 6.10452 9.17137 5.75758 8.9648C5.6564 8.74428 5.38106 8.20211 5.23481 8.03362C4.9414 7.69557 4.8135 7.6294 4.56973 7.23488L4.61871 7.20406Z" fill="var(--fill-0, #FD9704)"/>
<path id="Vector_6" d="M8.60206 5.79257C8.84241 6.03771 9.28368 6.42335 9.46908 6.67979C9.96684 7.36828 10.4049 8.01219 11.025 8.61286C11.1047 8.94392 11.1489 8.97586 11.3325 9.27126C11.3101 9.30335 11.3244 9.29012 11.2826 9.30325C11.3402 9.34987 11.3727 9.35434 11.4429 9.37572L11.3965 9.42152C11.5894 9.56716 12.3447 10.5507 12.3816 10.7035C12.621 11.0729 12.6981 11.1413 13.0611 11.3971C13.14 11.4527 13.1354 11.5172 13.27 11.5524C13.4739 11.7533 13.6963 11.9482 13.8374 12.1954C13.7255 12.4037 13.6795 12.5128 13.4607 12.6176C13.3322 12.6554 13.1862 12.7277 13.1141 12.5752C12.747 11.7978 12.1389 11.2379 11.5968 10.5893C11.134 10.0356 10.6833 9.4657 10.225 8.90777C10.1071 8.76434 9.97364 8.53991 9.84235 8.4188C9.68251 8.18022 9.46367 7.91576 9.29358 7.67772C9.13197 7.45159 8.65394 6.64249 8.36334 6.62464C8.30601 6.46473 8.33691 6.46552 8.23916 6.27242C8.40201 6.05099 8.395 6.00272 8.60206 5.79257Z" fill="url(#paint1_linear_0_108)"/>
<path id="Vector_7" d="M13.436 12.1605C13.2533 11.8938 11.8847 10.293 11.8963 10.1828L11.8155 10.0988L11.8572 10.0919C12.0505 10.2498 12.1843 10.5683 12.3816 10.7035C12.621 11.0729 12.6981 11.1413 13.0611 11.3971C13.14 11.4527 13.1354 11.5172 13.27 11.5524C13.4739 11.7533 13.6963 11.9482 13.8374 12.1954C13.7255 12.4037 13.6795 12.5128 13.4607 12.6176C13.4386 12.5016 13.4394 12.2855 13.436 12.1605Z" fill="var(--fill-0, #FD9704)"/>
<path id="Vector_8" d="M22.0137 16.0977H22.0635L22.0657 17.5958C22.0643 18.1264 22.1113 18.6139 21.8426 19.0931C21.5793 19.5437 21.2742 20.4934 20.8065 20.7726C20.6929 21.1915 18.9714 22.6355 18.5419 22.9642C18.5001 22.9962 18.3454 23.0317 18.2866 23.0444C18.3139 23.0071 18.6012 22.7374 18.6508 22.6964L18.6191 22.5646C18.8171 22.4696 19.4308 21.854 19.6138 21.6716L19.5321 21.5182C19.2626 21.6869 19.0025 21.8679 18.7152 22.0036C18.6157 22.0506 18.4001 22.3121 18.2682 22.2515C18.5465 22.0587 19.5529 21.4469 19.5909 21.1472C19.5907 21.1439 19.5905 21.1406 19.5904 21.1373C19.6393 20.9962 20.0101 20.6338 20.1206 20.5324C20.5587 20.1302 20.6607 19.7831 20.9582 19.2976C21.1332 19.0121 21.3932 18.7071 21.5332 18.3927C21.5945 18.2551 21.6337 17.9385 21.6981 17.7947C21.7701 17.6338 21.94 17.4718 21.9726 17.2882C22.0363 16.9291 22.0147 16.4679 22.0137 16.0977Z" fill="var(--fill-0, #FC8A03)"/>
<path id="Vector_9" d="M18.6508 22.6964C19.0404 22.595 20.0722 21.4028 20.4879 21.1245C20.5827 21.0611 20.715 20.8047 20.8065 20.7726C20.6929 21.1915 18.9714 22.6355 18.5419 22.9642C18.5001 22.9962 18.3454 23.0317 18.2866 23.0444C18.3139 23.0071 18.6012 22.7374 18.6508 22.6964Z" fill="var(--fill-0, #E75700)"/>
<path id="Vector_10" d="M5.24474 6.50399C5.11916 6.18777 5.09966 6.01704 5.45094 5.90205C5.47282 5.89489 5.49478 5.88791 5.5168 5.8811C6.12163 6.21291 7.16008 7.504 7.61858 8.08608C7.84375 8.37195 8.16509 8.92833 8.41313 9.24978C8.48925 9.34842 9.09822 10.1935 9.12945 10.2556L9.1195 10.2712C8.73125 9.87088 7.58646 7.97169 7.34881 7.82113C7.28363 7.86269 7.15609 8.2226 6.94238 8.35118C6.86555 8.34988 6.82383 8.34676 6.74758 8.33694L6.75977 8.34252L6.68759 8.31959C6.94223 8.87796 7.53939 9.61289 7.87188 10.2726L7.83572 10.2843C7.63707 9.93794 7.44024 9.59334 7.21289 9.26692C6.84348 8.73874 6.5799 8.13731 6.14552 7.65598C5.8059 7.27964 5.51302 6.93395 5.24474 6.50399Z" fill="var(--fill-0, #FDE596)"/>
<path id="Vector_11" d="M21.7302 6.67926C22.11 6.74865 23.0165 7.67985 23.2843 8.01694C23.709 8.55151 22.7722 9.34746 22.4995 9.78138C22.3752 9.97928 22.3308 10.1622 22.167 10.3619C22.0766 10.5483 22.0661 10.708 22.011 10.9066C21.703 11.9963 21.6304 13.139 21.7978 14.2589C21.8461 14.5916 21.952 14.9108 22.0152 15.2374C22.0671 15.5057 22.0648 15.8239 22.0635 16.0977H22.0137C22.0168 15.8887 22.0316 15.4612 21.9772 15.2811C21.6104 14.0674 21.6588 12.7278 21.7816 11.4786C21.7996 11.2955 22.1335 10.5964 22.0485 10.4337C21.6059 9.58621 23.2652 8.51888 23.2861 8.14948C23.131 7.73312 22.2011 7.03374 21.8283 6.77214C21.7712 6.7321 21.7733 6.75007 21.7302 6.67926Z" fill="var(--fill-0, #FD9704)"/>
<path id="Vector_12" d="M4.71867 9.00486C5.07574 8.95715 5.39536 9.00679 5.75758 8.9648C6.10452 9.17137 7.6569 11.508 7.98109 11.9793C8.13318 12.2004 8.61824 12.7623 8.75426 12.9616C8.37553 12.8278 6.56007 9.86786 6.12742 9.43335C6.07524 9.38095 5.8596 9.64107 5.7964 9.6363C5.61669 9.62274 5.41176 9.48954 5.23034 9.50478L5.21478 9.5387C5.46526 9.90547 5.60333 10.3659 5.82334 10.7612C5.94626 10.9821 6.77462 11.9278 6.73806 12.0897C6.43106 11.5952 6.07001 11.1837 5.74991 10.7018C5.561 10.4174 5.43842 9.88157 5.23044 9.63694C5.07617 9.40182 4.85329 9.22606 4.71867 9.00486Z" fill="var(--fill-0, #FDE596)"/>
<path id="Vector_13" d="M11.025 8.61285C11.1113 8.69583 11.2265 8.80024 11.3039 8.88796C11.6202 9.50084 11.8714 9.67609 12.251 10.1729C12.6046 10.6356 12.4868 10.8056 13.0194 11.2631C13.0799 11.3313 13.2231 11.4848 13.27 11.5524C13.1354 11.5172 13.14 11.4527 13.0611 11.3971C12.6981 11.1413 12.621 11.0729 12.3816 10.7035C12.3447 10.5507 11.5894 9.56716 11.3965 9.42152L11.4429 9.37572C11.3727 9.35434 11.3402 9.34987 11.2826 9.30325C11.3244 9.29012 11.3101 9.30335 11.3325 9.27126C11.1489 8.97586 11.1047 8.94392 11.025 8.61285Z" fill="var(--fill-0, #FC8A03)"/>
<path id="Vector_14" d="M7.43707 6.26039C7.59269 6.30589 7.74135 6.31879 7.90189 6.33803C8.08041 6.50107 8.12624 6.62766 8.36334 6.62464C8.65394 6.64249 9.13197 7.45159 9.29358 7.67772C9.46367 7.91576 9.68251 8.18023 9.84235 8.4188C9.65951 8.41189 8.90591 7.0625 8.68877 6.96663C8.61052 6.99588 8.61052 7.06527 8.55672 7.13771C8.44259 7.29138 8.13818 7.1665 8.0194 7.07307C7.86279 6.94982 8.02186 6.78823 8.11954 6.68677C8.1589 6.43145 7.61041 6.34636 7.42963 6.32917L7.43707 6.26039Z" fill="var(--fill-0, #FDE596)"/>
<path id="Vector_15" d="M6.12706 14.2823C6.30165 14.3775 6.42134 14.5026 6.56056 14.6439C6.46867 14.6762 6.51899 14.5996 6.38696 14.5597C6.15309 14.683 5.69197 14.8199 5.42148 14.7706C5.39429 14.7657 5.34869 14.544 5.33777 14.5006C5.42946 14.278 5.8987 14.309 6.12706 14.2823Z" fill="var(--fill-0, #FDE596)"/>
<path id="Vector_16" d="M5.55674 4.69638C5.98774 4.9728 6.45143 5.08511 6.75805 5.52218L6.72207 5.54143C6.54499 5.37753 6.3312 5.16021 6.12742 5.0393C5.98442 4.95445 5.85785 5.02998 5.72551 4.88373C5.69329 4.86403 5.60473 4.77229 5.57045 4.77943C5.02227 4.89371 4.66012 5.2944 4.31575 5.7052C4.15043 5.89839 4.00552 6.23322 4.24097 6.43327C4.35683 6.53171 4.4558 6.54329 4.51306 6.70211C4.56947 6.85859 4.5534 7.05918 4.61871 7.20406L4.56973 7.23488C4.43193 7.0328 4.24531 6.68365 4.0855 6.47232C4.02215 6.32044 4.0494 6.02692 4.12648 5.89999C4.47484 5.32652 4.93144 4.92157 5.55674 4.69638Z" fill="var(--fill-0, #FC8A03)"/>
<path id="Vector_17" d="M11.3039 8.88796C11.7468 9.23249 11.9343 9.64448 12.2549 10.0862C12.4049 10.2928 12.6454 10.5267 12.7819 10.7338C12.85 10.8371 12.9433 11.1196 13.0194 11.2631C12.4868 10.8056 12.6046 10.6356 12.251 10.1729C11.8714 9.67609 11.6202 9.50084 11.3039 8.88796Z" fill="var(--fill-0, #FD9704)"/>
<path id="Vector_18" d="M8.42174 4.52748C8.4953 4.27725 8.76911 4.03889 8.96581 3.90117C9.39067 3.60367 9.45839 3.62152 9.83856 3.87921C10.0746 4.03919 10.2052 3.86605 10.4447 4.23475C10.3003 4.19996 10.3309 4.13672 10.2349 4.0969C10.1391 4.05707 9.59936 3.77774 9.53867 3.78143L9.60301 3.87575C9.50541 3.92943 9.2984 4.00989 9.18943 4.03719C9.10769 4.05765 8.98435 3.98303 8.86158 4.04907C8.72859 4.12062 8.50459 4.4723 8.42174 4.52748Z" fill="var(--fill-0, #FC8A03)"/>
<path id="Vector_19" d="M13.5313 3.15534C13.1537 2.68173 13.4999 2.59926 13.9251 2.39836C14.5094 2.60848 14.5879 2.97934 14.971 3.37365C15.3832 3.79785 15.5845 4.07179 15.8651 4.58933C15.9621 4.76823 16.352 5.03841 16.4656 5.2325C16.6864 5.54615 16.9404 6.06699 17.219 6.32945C17.4061 6.51501 17.3878 6.64544 17.4193 6.91125C17.6408 7.0185 17.7031 7.05517 17.7309 7.30856C17.7301 7.50636 17.7507 7.68996 17.4781 7.68719C17.3002 7.68539 17.1123 7.54795 16.9971 7.42549C16.8073 7.32956 16.7645 7.27154 16.6526 7.08954C16.4944 6.95784 16.4387 6.92811 16.3159 6.75655C16.0431 6.52481 15.8365 6.3001 15.6959 5.96868C15.4484 5.5962 15.2218 5.38038 14.9395 5.04433C14.8049 4.84659 14.7251 4.6261 14.5853 4.43051C14.4499 4.24087 14.2309 4.06793 14.1021 3.88248C13.8078 3.58196 13.7423 3.51713 13.5313 3.15534Z" fill="url(#paint2_linear_0_108)"/>
<path id="Vector_20" d="M16.4341 6.41294C16.4893 6.31777 16.519 6.29505 16.6219 6.28047C16.9891 6.38917 16.9447 6.86339 17.2282 6.91326C17.3225 6.88703 17.2905 6.90826 17.3511 6.83569C17.3911 6.6918 17.2807 6.46283 17.219 6.32945C17.4061 6.51501 17.3878 6.64544 17.4193 6.91125C17.6408 7.0185 17.7031 7.05517 17.7309 7.30856C17.7301 7.50636 17.7507 7.68996 17.4781 7.68719C17.3002 7.68539 17.1123 7.54795 16.9971 7.42549C16.8073 7.32956 16.7645 7.27154 16.6526 7.08954C16.4944 6.95784 16.4387 6.92811 16.3159 6.75655L16.385 6.58087L16.4341 6.41294Z" fill="var(--fill-0, #504D57)"/>
<path id="Vector_21" d="M16.9971 7.42549C17.0932 7.32405 17.4251 7.20672 17.5692 7.20157C17.6326 7.19928 17.6898 7.26563 17.7309 7.30856C17.7301 7.50636 17.7507 7.68996 17.4781 7.68719C17.3002 7.68539 17.1123 7.54795 16.9971 7.42549Z" fill="var(--fill-0, #70666F)"/>
<path id="Vector_22" d="M16.3159 6.75655L16.385 6.58087C16.4428 6.64607 16.4772 6.6476 16.568 6.63434C16.8622 6.59136 16.7483 6.99552 16.6526 7.08954C16.4944 6.95784 16.4387 6.92811 16.3159 6.75655Z" fill="var(--fill-0, #70666F)"/>
<path id="Vector_23" d="M15.6959 5.96868C15.9703 5.9737 16.0044 6.13587 16.2112 6.27864C16.3031 6.3421 16.3591 6.31927 16.4341 6.41294L16.385 6.58087L16.3159 6.75655C16.0431 6.52481 15.8365 6.3001 15.6959 5.96868Z" fill="var(--fill-0, #7E7B86)"/>
<path id="Vector_24" d="M13.5313 3.15534C13.7448 3.18343 13.6418 3.24642 13.8223 3.29481C13.9154 3.31975 14.015 3.33232 14.0956 3.38724C14.1237 3.51041 14.0201 3.62017 14.1021 3.88248C13.8078 3.58196 13.7423 3.51713 13.5313 3.15534Z" fill="var(--fill-0, #7E7B86)"/>
<path id="Vector_25" d="M12.9776 5.12411C13.0976 4.85697 13.4495 5.02455 13.6101 4.90968L13.6755 4.96938L13.6816 4.97963C13.7064 5.02242 13.7733 5.17433 13.793 5.19276C14.1679 5.54432 14.3208 5.67704 14.4599 6.17861C14.6321 6.33638 14.8617 6.61946 15.0143 6.79971C15.1344 6.94159 15.0703 7.12547 15.3058 7.28058C15.4399 7.45509 15.4122 7.55909 15.2956 7.73365C15.2522 7.72195 15.1801 7.71834 15.1338 7.71944C14.7873 7.72756 14.5154 7.4135 14.3594 7.13662L14.2666 7.04884C14.1675 6.96922 14.1373 6.94175 14.0559 6.84503L13.9743 6.61883C13.9544 6.55985 13.7213 6.26427 13.6455 6.11675C13.4813 5.99257 13.0565 5.50286 13.003 5.30347C13.006 5.23466 12.9923 5.19071 12.9776 5.12411Z" fill="url(#paint3_linear_0_108)"/>
<path id="Vector_26" d="M13.003 5.30347C13.0845 5.24311 13.2965 5.28524 13.4117 5.29885L13.5482 5.56542C13.8832 5.74572 13.8018 5.82184 13.6455 6.11675C13.4813 5.99257 13.0565 5.50286 13.003 5.30347Z" fill="var(--fill-0, #504D57)"/>
<path id="Vector_27" d="M13.9743 6.61883L14.0146 6.57422L14.0364 6.5796C14.194 6.61725 14.3773 6.55492 14.4658 6.70046C14.5477 6.83521 14.4181 7.01111 14.3594 7.13662L14.2666 7.04884C14.1675 6.96922 14.1373 6.94175 14.0559 6.84503L13.9743 6.61883Z" fill="var(--fill-0, #70666F)"/>
<path id="Vector_28" d="M12.4289 3.9081C12.4844 3.91214 12.7228 3.92696 12.7618 3.9436C13.1603 4.11348 13.5396 4.56528 13.6755 4.96938L13.6101 4.90968C13.4495 5.02455 13.0976 4.85697 12.9776 5.12411C12.7891 5.00688 12.7561 4.96674 12.6516 4.77021C12.4639 4.59027 12.3882 4.55292 12.3751 4.30386L12.4289 3.9081Z" fill="var(--fill-0, #504D57)"/>
<path id="Vector_29" d="M12.3751 4.30386C12.5076 4.27537 12.6966 4.18717 12.771 4.19461C12.8769 4.29594 12.735 4.67992 12.6516 4.77021C12.4639 4.59027 12.3882 4.55292 12.3751 4.30386Z" fill="var(--fill-0, #70666F)"/>
</g>
<defs>
<linearGradient id="paint0_linear_0_108" x1="5.88915" y1="15.1861" x2="8.00262" y2="10.6139" gradientUnits="userSpaceOnUse">
<stop stop-color="#FE9C00"/>
<stop offset="1" stop-color="#FFBF1E"/>
</linearGradient>
<linearGradient id="paint1_linear_0_108" x1="11.4119" y1="8.78523" x2="10.4382" y2="9.70976" gradientUnits="userSpaceOnUse">
<stop stop-color="#FD9909"/>
<stop offset="1" stop-color="#DB6A00"/>
</linearGradient>
<linearGradient id="paint2_linear_0_108" x1="14.7235" y1="5.1692" x2="16.0795" y2="4.39042" gradientUnits="userSpaceOnUse">
<stop stop-color="#585762"/>
<stop offset="1" stop-color="#737A89"/>
</linearGradient>
<linearGradient id="paint3_linear_0_108" x1="14.5602" y1="5.21777" x2="13.8452" y2="7.25423" gradientUnits="userSpaceOnUse">
<stop stop-color="#35322F"/>
<stop offset="1" stop-color="#575669"/>
</linearGradient>
</defs>
</svg>
