<svg preserveAspectRatio="none" width="100%" height="100%" overflow="visible" style="display: block;" viewBox="0 0 20 20" fill="none" xmlns="http://www.w3.org/2000/svg">
<g id="image">
<path id="Vector" d="M8.76002 6.43465L8.85453 6.40881C8.96221 6.37984 9.06654 6.33439 9.15799 6.38707C9.10744 6.54414 9.11221 6.6102 9.18437 6.76547C9.22615 6.92008 9.25449 7.02873 9.40516 7.10514C9.73439 7.27217 10.4293 7.23646 10.7742 7.17521C10.9569 6.95889 11.0681 6.84693 11.3619 6.8224C11.5212 6.80908 11.6947 6.79758 11.8248 6.90832C11.9012 6.97338 11.9511 7.12936 12.0328 7.17043C12.1108 7.20965 12.2566 7.21553 12.3434 7.22461C12.7538 7.26758 14.7249 7.21719 14.9085 7.32135C15.0225 7.38607 15.0665 7.55814 15.111 7.67254C15.6224 7.71928 16.1423 7.69125 16.6494 7.74297C16.7945 7.75775 16.8604 8.02865 16.9517 8.12051C17.2509 8.14353 17.3668 8.30314 17.3157 8.58998L17.3067 8.72314C17.3122 8.851 17.3226 8.98604 17.3081 9.11254C17.3254 9.55033 17.3054 10.1051 17.3055 10.5539L17.3073 13.5759L17.3082 16.6861C17.3083 17.2404 17.3233 17.8776 17.3011 18.4253C17.2467 18.5921 17.2529 18.6406 17.2561 18.8198C17.2235 18.853 17.0818 19.0069 17.0533 19.0124C16.8401 19.0538 16.5738 19.0166 16.3641 19.0619C16.056 19.0852 15.4479 19.0651 15.1135 19.0651L12.5434 19.0652L4.49791 19.0649L2.88625 19.0643C2.7717 19.0642 2.39756 19.0815 2.32086 19.0302C2.33842 18.8589 2.31477 18.2523 2.31238 18.0431C2.30746 17.4115 2.30584 16.7799 2.3075 16.1483C2.31295 14.6295 2.30793 13.1106 2.29242 11.5918C2.28711 10.941 2.29328 10.3045 2.27658 9.65201L2.23898 9.65312C2.13389 9.6302 1.95881 9.60711 1.88377 9.54154C1.88758 9.30736 1.74564 9.18842 2.02732 9.03648L2.20492 8.96924C2.23734 8.9702 2.25141 8.95367 2.27781 8.9334C2.31357 8.86773 2.3025 8.80164 2.299 8.72611C2.27727 8.67293 2.28363 8.58451 2.28393 8.52367C2.29719 8.16629 2.41412 8.214 2.7084 8.09094C2.76311 8.0274 2.82363 7.86574 2.86518 7.82803C3.03563 7.67328 3.57971 7.71541 3.78168 7.71152C4.18809 7.70371 4.57277 7.71195 4.97184 7.67996C5.07248 7.62645 5.05969 7.50031 5.16814 7.38715C5.55934 7.18197 6.14551 7.27934 6.57324 7.26141C7.06395 7.24084 7.5742 7.28846 8.05812 7.24137C8.1509 7.23234 8.28939 6.92135 8.33264 6.83814C8.36773 6.81742 8.44057 6.71543 8.46436 6.67752C8.57145 6.58066 8.64176 6.51656 8.76002 6.43465Z" fill="var(--fill-0, #80859F)"/>
<path id="Vector_2" d="M8.76002 6.43465L8.85453 6.40881C8.96221 6.37984 9.06654 6.33439 9.15799 6.38707C9.10744 6.54414 9.11221 6.6102 9.18437 6.76547C9.22615 6.92008 9.25449 7.02873 9.40516 7.10514C9.73439 7.27217 10.4293 7.23646 10.7742 7.17521C10.9569 6.95889 11.0681 6.84693 11.3619 6.8224C11.5212 6.80908 11.6947 6.79758 11.8248 6.90832C11.9012 6.97338 11.9511 7.12936 12.0328 7.17043C12.1108 7.20965 12.2566 7.21553 12.3434 7.22461C12.7538 7.26758 14.7249 7.21719 14.9085 7.32135C15.0225 7.38607 15.0665 7.55814 15.111 7.67254C15.6224 7.71928 16.1423 7.69125 16.6494 7.74297C16.7945 7.75775 16.8604 8.02865 16.9517 8.12051C17.2509 8.14353 17.3668 8.30314 17.3157 8.58998L17.3067 8.72314C16.8617 8.64275 16.8791 8.59865 16.695 9.02189C16.5257 9.03123 16.3206 9.03223 16.1566 9.07584C16.0337 9.10852 15.9439 9.24174 15.8674 9.33334C15.8378 9.36439 15.8014 9.42242 15.7684 9.44781C15.3619 9.76119 14.9274 10.0239 14.5252 10.3442C14.3302 10.4994 14.1569 10.6138 13.9904 10.8096C13.9185 10.8941 13.7814 10.9773 13.7036 11.0654C13.633 11.1315 13.5353 11.2375 13.4649 11.2957C13.3901 11.3576 13.1553 11.3674 13.0678 11.4317C12.9619 11.5096 12.8714 11.6205 12.7681 11.6992C12.6837 11.7636 12.5052 11.8177 12.4264 11.885C12.3241 11.9722 12.2144 12.1362 12.1031 12.2108C12.0085 12.2743 11.8939 12.3317 11.7958 12.3958C11.6673 12.4804 11.5435 12.5689 11.4125 12.6498C11.3261 12.7032 11.1631 12.7175 11.0899 12.7719C10.9364 12.8857 10.8926 13.0588 10.7108 13.1484C10.4774 13.2634 10.2597 13.4128 10.0427 13.5546C9.92551 13.6309 9.41557 13.5882 9.26471 13.5807C9.2649 13.2113 8.96598 13.2183 8.71279 13.0574C8.65021 12.9375 8.62814 12.8958 8.59756 12.7601C8.22801 12.6834 7.93137 12.7936 7.80584 12.4358C7.79432 12.4029 7.52982 12.2409 7.46979 12.2095C7.31664 12.1295 7.29285 11.9864 7.171 11.8795C7.09246 11.8107 6.87051 11.7776 6.77211 11.7206C6.47912 11.5342 6.3934 11.3903 6.05449 11.2604C6.03592 11.2092 5.9973 11.107 5.95482 11.0707C5.59646 10.7641 5.26182 10.5237 4.84172 10.3066C4.55336 10.1577 4.5341 10.0373 4.16549 9.92322C4.13273 9.82344 4.09277 9.71014 4.06441 9.61053L4.04592 9.60322C3.98279 9.57871 3.88936 9.54914 3.82338 9.53797C3.57746 9.49637 3.42801 9.29664 3.2282 9.17119C3.14162 9.11686 2.96033 9.07213 2.85424 9.04182C2.79887 8.87342 2.79672 8.6815 2.69377 8.61336C2.56703 8.59734 2.48438 8.66508 2.32523 8.68801C2.31803 8.69758 2.30322 8.71502 2.299 8.72611C2.27727 8.67293 2.28363 8.58451 2.28393 8.52367C2.29719 8.16629 2.41412 8.214 2.7084 8.09094C2.76311 8.0274 2.82363 7.86574 2.86518 7.82803C3.03563 7.67328 3.57971 7.71541 3.78168 7.71152C4.18809 7.70371 4.57277 7.71195 4.97184 7.67996C5.07248 7.62645 5.05969 7.50031 5.16814 7.38715C5.55934 7.18197 6.14551 7.27934 6.57324 7.26141C7.06395 7.24084 7.5742 7.28846 8.05812 7.24137C8.1509 7.23234 8.28939 6.92135 8.33264 6.83814C8.36773 6.81742 8.44057 6.71543 8.46436 6.67752C8.57145 6.58066 8.64176 6.51656 8.76002 6.43465Z" fill="var(--fill-0, #80859F)"/>
<path id="Vector_3" d="M8.76002 6.43465L8.85453 6.40881C8.96221 6.37984 9.06654 6.33439 9.15799 6.38707C9.10744 6.54414 9.11221 6.6102 9.18437 6.76547C9.22615 6.92008 9.25449 7.02873 9.40516 7.10514C9.73439 7.27217 10.4293 7.23646 10.7742 7.17521C10.9569 6.95889 11.0681 6.84693 11.3619 6.8224C11.5212 6.80908 11.6947 6.79758 11.8248 6.90832C11.9012 6.97338 11.9511 7.12936 12.0328 7.17043C12.1108 7.20965 12.2566 7.21553 12.3434 7.22461C12.7538 7.26758 14.7249 7.21719 14.9085 7.32135C15.0225 7.38607 15.0665 7.55814 15.111 7.67254C14.7171 7.84652 11.9677 7.74223 11.4112 7.73744L8.49328 7.73969C7.73176 7.73928 6.95131 7.80689 6.1849 7.77402C6.0017 7.76357 5.7681 7.77412 5.59057 7.74014C5.35504 7.69508 5.34941 7.60313 5.08664 7.64592C5.08473 7.60395 5.15061 7.49008 5.16568 7.40229L5.16814 7.38715C5.55934 7.18197 6.14551 7.27934 6.57324 7.26141C7.06394 7.24084 7.5742 7.28846 8.05812 7.24137C8.1509 7.23234 8.28939 6.92135 8.33264 6.83814C8.36773 6.81742 8.44057 6.71543 8.46435 6.67752C8.57144 6.58066 8.64176 6.51656 8.76002 6.43465Z" fill="url(#paint0_linear_0_70)"/>
<path id="Vector_4" d="M2.28393 8.52367C2.29719 8.16629 2.41412 8.214 2.7084 8.09094C2.77988 8.22164 2.79477 8.21566 2.90676 8.3067C2.69404 8.49227 2.58137 8.51023 2.28393 8.52367Z" fill="var(--fill-0, #4D506F)"/>
<path id="Vector_5" d="M16.9517 8.12051C17.2509 8.14353 17.3668 8.30314 17.3157 8.58998C17.1797 8.54074 16.845 8.4482 16.7822 8.30795C16.8064 8.23422 16.8976 8.20394 16.9517 8.12051Z" fill="url(#paint1_linear_0_70)"/>
<path id="Vector_6" d="M2.299 8.72611C2.30322 8.71502 2.31803 8.69758 2.32523 8.68801C2.48438 8.66508 2.56703 8.59734 2.69377 8.61336C2.79672 8.6815 2.79887 8.87342 2.85424 9.04182C2.96033 9.07213 3.14162 9.11686 3.2282 9.17119C3.42801 9.29664 3.57746 9.49637 3.82338 9.53797C3.88936 9.54914 3.98279 9.57871 4.04592 9.60322L4.06441 9.61053C4.09277 9.71014 4.13273 9.82344 4.16549 9.92322C4.5341 10.0373 4.55336 10.1577 4.84172 10.3066C5.26182 10.5237 5.59646 10.7641 5.95482 11.0707C5.9973 11.107 6.03592 11.2092 6.05449 11.2604C6.3934 11.3903 6.47912 11.5342 6.77211 11.7206C6.87051 11.7776 7.09246 11.8107 7.171 11.8795C7.29285 11.9864 7.31664 12.1295 7.46978 12.2095C7.52982 12.2409 7.79432 12.4029 7.80584 12.4358C7.93137 12.7936 8.22801 12.6834 8.59756 12.7601C8.62814 12.8958 8.65021 12.9375 8.71279 13.0574C8.96598 13.2183 9.2649 13.2113 9.26471 13.5807C9.41557 13.5882 9.92551 13.6309 10.0427 13.5546C10.2597 13.4128 10.4774 13.2634 10.7108 13.1484C10.8926 13.0588 10.9364 12.8857 11.0899 12.7719C11.1631 12.7175 11.3261 12.7032 11.4125 12.6498C11.5435 12.5689 11.6673 12.4804 11.7958 12.3958C11.8939 12.3317 12.0085 12.2743 12.1031 12.2108C12.2144 12.1362 12.3241 11.9722 12.4264 11.885C12.5052 11.8177 12.6837 11.7636 12.7681 11.6992C12.8714 11.6205 12.9619 11.5096 13.0678 11.4317C13.1553 11.3674 13.3901 11.3576 13.4649 11.2957C13.5353 11.2375 13.633 11.1315 13.7036 11.0654C13.7814 10.9773 13.9185 10.8941 13.9904 10.8096C14.1569 10.6138 14.3302 10.4994 14.5252 10.3442C14.9274 10.0239 15.3619 9.76119 15.7684 9.44781C15.8014 9.42242 15.8378 9.36439 15.8674 9.33334C15.9439 9.24174 16.0337 9.10852 16.1566 9.07584C16.3206 9.03223 16.5257 9.03123 16.695 9.02189C16.8791 8.59865 16.8617 8.64275 17.3067 8.72314C17.3122 8.851 17.3226 8.98604 17.3081 9.11254C17.2043 9.17783 17.0447 9.54103 16.9362 9.66039C16.8017 9.81662 16.6366 9.9441 16.4842 10.0824C16.3707 10.1854 16.2641 10.305 16.1481 10.4041C15.85 10.659 15.4685 10.8179 15.1584 11.0497C14.9047 11.2393 14.6844 11.5096 14.4376 11.7091C14.1839 11.8992 13.8401 12.0727 13.5729 12.2668C13.1581 12.568 12.7854 12.9062 12.3875 13.2236C12.1461 13.4162 11.7943 13.5911 11.5416 13.7783C11.2497 13.9945 11.0011 14.2589 10.7263 14.4913C10.6777 14.5323 10.4268 14.5725 10.3322 14.6059C10.1964 14.6539 9.8832 15.0006 9.77508 14.9982C9.67285 14.9961 9.45838 14.7191 9.34812 14.6586C9.14773 14.5487 8.91805 14.5572 8.70672 14.5016C8.68389 14.3596 8.66877 14.2942 8.60912 14.1578C8.5384 14.1338 8.33127 14.0638 8.27605 14.0296C7.86945 13.7769 7.82467 13.6636 7.34758 13.5602C7.32293 13.4048 7.33012 13.3342 7.19508 13.244C6.97975 13.1002 6.75334 12.9217 6.53953 12.7821C6.46045 12.7304 6.21826 12.6835 6.12072 12.617C6.009 12.5408 5.9577 12.4183 5.87221 12.3529C5.77977 12.2822 5.64297 12.2374 5.54092 12.1594C5.50314 12.0865 5.44853 11.9725 5.4065 11.9059C4.74016 11.6047 3.88523 10.8411 3.32973 10.3407C3.25264 10.2713 3.16201 10.1481 3.08846 10.0731C3.0224 10.0058 2.8827 9.94844 2.81656 9.87301C2.7399 9.78557 2.68891 9.63785 2.61379 9.55266C2.48428 9.57816 2.38453 9.63074 2.27658 9.65201L2.23898 9.65312C2.13389 9.63019 1.95881 9.60711 1.88377 9.54154C1.88758 9.30736 1.74564 9.18842 2.02732 9.03648L2.20492 8.96924C2.23734 8.9702 2.25141 8.95367 2.27781 8.9334C2.31357 8.86773 2.3025 8.80164 2.299 8.72611Z" fill="var(--fill-0, #FDFCFC)"/>
<path id="Vector_7" d="M2.02732 9.03648L2.20492 8.96924C2.25656 9.13688 2.26348 9.25855 2.27727 9.43256C2.41211 9.47158 2.48486 9.4973 2.61379 9.55266C2.48428 9.57816 2.38453 9.63074 2.27658 9.65201L2.23898 9.65312C2.13389 9.6302 1.95881 9.60711 1.88377 9.54154C1.88758 9.30736 1.74564 9.18842 2.02732 9.03648Z" fill="var(--fill-0, #9E9D9D)"/>
<path id="Vector_8" d="M9.19654 6.16494C9.10836 5.86203 8.74936 5.94377 8.694 5.78318C8.54332 5.34605 9.01316 5.41742 9.28115 5.42221C9.59707 5.42785 9.8374 5.41121 10.1336 5.53924C10.2444 5.64051 10.3896 5.79391 10.5069 5.8698L10.5121 5.91033C10.7829 5.97293 10.8575 5.98545 10.8497 6.27949C10.7678 6.27992 10.4416 6.29682 10.3817 6.28404L10.4032 6.27877C10.0769 6.28219 9.4258 6.35076 9.19654 6.16494Z" fill="var(--fill-0, #FDFCFC)"/>
<path id="Vector_9" d="M10.5069 5.8698C10.6496 5.89867 10.7998 5.90885 10.8944 6.0167C10.9271 6.10152 10.9382 6.3383 10.8279 6.33576C10.3473 6.32469 9.72484 6.36035 9.25451 6.31717C9.21982 6.27734 9.21072 6.2182 9.19654 6.16494C9.4258 6.35076 10.0769 6.28219 10.4032 6.27877L10.3817 6.28404C10.4416 6.29682 10.7678 6.27992 10.8497 6.27949C10.8575 5.98545 10.7829 5.97293 10.5121 5.91033L10.5069 5.8698Z" fill="var(--fill-0, #FDFCFC)" fill-opacity="0.956863"/>
<path id="Vector_10" d="M17.2561 18.8198C17.2529 18.6406 17.2467 18.5921 17.3011 18.4253C17.2967 18.6181 17.2828 18.8794 17.3062 19.0653C17.0718 19.0335 16.6466 19.0752 16.3641 19.0619C16.5738 19.0166 16.8401 19.0538 17.0533 19.0124C17.0818 19.0069 17.2235 18.853 17.2561 18.8198Z" fill="var(--fill-0, #4D506F)" fill-opacity="0.988235"/>
</g>
<defs>
<linearGradient id="paint0_linear_0_70" x1="10.0112" y1="6.36807" x2="10.0683" y2="7.87295" gradientUnits="userSpaceOnUse">
<stop stop-color="#F9F8F7"/>
<stop offset="1" stop-color="#BEBECD"/>
</linearGradient>
<linearGradient id="paint1_linear_0_70" x1="17.1279" y1="8.19623" x2="17.0498" y2="8.43066" gradientUnits="userSpaceOnUse">
<stop stop-color="#665B67"/>
<stop offset="1" stop-color="#706D72"/>
</linearGradient>
</defs>
</svg>
