<svg preserveAspectRatio="none" width="100%" height="100%" overflow="visible" style="display: block;" viewBox="0 0 14 14" fill="none" xmlns="http://www.w3.org/2000/svg">
<g id="image">
<path id="Vector" d="M5.0692 1.26755C5.14449 1.27486 5.24521 1.28199 5.31794 1.29358C5.38248 1.38329 5.41652 1.45299 5.45062 1.55981C5.66254 1.6415 5.71004 1.67057 5.77782 1.89064C5.97395 1.93813 6.00854 1.97775 6.13797 2.01704C6.19888 2.10197 6.36144 2.26386 6.46543 2.27779C6.57846 2.35676 6.59142 2.4084 6.67599 2.48708C6.90398 2.69924 7.08946 2.93117 7.31097 3.15005C7.41156 3.24944 7.48233 3.2718 7.56582 3.38254C7.59936 3.44252 7.69325 3.61339 7.73285 3.65519C8.00531 3.94265 8.19608 4.00355 8.36629 4.38899C8.7833 4.56107 8.90397 4.77343 9.23452 5.06756C9.29009 5.11703 9.41202 5.13186 9.46414 5.19269C9.51412 5.24817 9.54017 5.31743 9.57008 5.38479C9.63892 5.4181 9.72789 5.45531 9.78078 5.5081L9.78744 5.51469C9.84509 5.57226 9.86605 5.63697 9.90041 5.71118C9.97155 5.73885 10.0642 5.77134 10.1286 5.80891C10.1652 5.89235 10.173 5.92082 10.1935 6.00819C10.2675 6.04226 10.3543 6.07677 10.4136 6.13118L10.4206 6.13752C10.4808 6.19276 10.5111 6.26322 10.5461 6.3365C10.6065 6.36068 10.7045 6.39684 10.7596 6.42441C10.7973 6.49986 10.8488 6.59691 10.8553 6.68135C10.8323 6.68869 10.7962 6.71407 10.7687 6.71676C10.6612 6.72726 10.505 6.55132 10.3995 6.47384C10.4247 6.5558 10.631 6.74987 10.6754 6.75433C11.3301 6.82004 11.0339 7.12012 11.1372 7.28696C11.1732 7.29586 11.237 7.30667 11.276 7.30313C11.3981 7.29203 11.4489 7.48088 11.4062 7.56941C11.371 7.64226 11.2579 7.6564 11.1923 7.68965L11.1989 7.71352C11.056 7.92805 11.1263 7.91424 10.8725 8.0538C10.7401 8.31735 10.7525 8.23542 10.5514 8.36866C10.5274 8.40429 10.5154 8.42019 10.4992 8.46126C10.4539 8.60631 10.358 8.63818 10.2228 8.68688C10.1299 8.91934 10.0876 8.87342 9.9025 9.02532C9.87205 9.05032 9.80725 9.21033 9.77535 9.22562C9.59659 9.31126 9.56367 9.36313 9.46217 9.52051C9.44722 9.54369 9.29191 9.61896 9.26502 9.6511C9.2302 9.68227 9.1873 9.79702 9.15057 9.83384C9.10042 9.88412 8.97148 9.91845 8.94004 9.97917C8.89623 10.0318 8.87995 10.086 8.83632 10.1432C8.8037 10.1859 8.62956 10.2439 8.61045 10.2775C8.52664 10.4247 8.46863 10.4746 8.32844 10.5619C8.30614 10.5757 8.23272 10.7502 8.19731 10.7761C8.15406 10.8239 8.03515 10.8581 7.99598 10.9043C7.92326 10.9899 7.87564 11.1712 7.73549 11.1763C7.7057 11.1696 7.68388 11.1738 7.65357 11.1766C7.61197 11.218 7.55487 11.2302 7.49384 11.2634C7.42809 11.2992 7.34468 11.4908 7.31153 11.5115C7.16481 11.603 7.1267 11.6077 7.04536 11.7796C7.0165 11.8407 6.90428 11.9646 6.85918 12.0263C6.79649 12.1034 6.73509 12.0957 6.67751 12.1607C6.61916 12.2266 6.57002 12.3238 6.50393 12.382L6.5071 12.4024C6.35126 12.5037 6.34177 12.5568 6.26279 12.7279C6.20379 12.7396 6.10396 12.7626 6.04734 12.7701C5.72813 12.7454 5.83283 12.8664 5.63682 13.0309C5.58623 13.0734 5.44353 13.0686 5.4106 13.1151C5.40645 13.2043 5.33902 13.1625 5.29084 13.205C5.24271 13.2475 5.2118 13.3339 5.16068 13.3755C5.12879 13.4022 5.08237 13.3741 5.05162 13.4104C4.89378 13.4234 4.6492 13.4128 4.49466 13.3856C4.45028 13.3195 4.4198 13.2287 4.39059 13.1534C4.15285 13.0616 4.16436 13.0047 4.06148 12.8119C3.77364 12.779 3.72814 12.5559 3.89067 12.3422C4.03215 12.2005 4.11913 12.1229 4.30436 12.0488C4.32972 12.0381 4.34448 12.0183 4.36373 11.9979C4.50101 11.7199 4.67405 11.8421 4.79929 11.5558C4.82167 11.5046 4.94725 11.462 5.00318 11.4391C5.05987 11.3834 5.11208 11.235 5.14589 11.2114C5.29922 11.1043 5.3748 11.0742 5.46537 10.8918C5.47773 10.8669 5.60114 10.8107 5.62859 10.7815C5.67749 10.7295 5.71305 10.6728 5.76157 10.621C5.81923 10.5536 5.90878 10.496 5.96523 10.4295C6.06616 10.3105 6.08552 10.2599 6.22346 10.1788C6.35618 10.1133 6.32886 10.0472 6.42124 9.949C6.45791 9.91002 6.57828 9.84895 6.62115 9.8076C6.66739 9.76305 6.68428 9.68487 6.73229 9.63755C6.77824 9.59226 6.85534 9.56104 6.89942 9.51973L7.59449 8.87018C7.73291 8.74013 7.66231 8.72681 7.87731 8.6164C8.10432 8.50705 8.62128 7.9516 8.7695 7.95102L8.79435 7.91794C8.84729 7.91455 8.83534 7.92259 8.87444 7.89478C8.90478 7.84146 8.89953 7.76202 8.90116 7.69841C8.90012 7.64627 8.90635 7.58122 8.90993 7.52814C8.91145 7.48213 8.92076 7.41526 8.92589 7.36788C9.02389 7.34954 9.05808 7.34263 9.15045 7.30532L9.18099 7.29028C9.21268 7.25411 9.21449 7.19517 9.22116 7.14588C9.21849 7.13375 9.20366 7.07898 9.19587 7.07185C9.13683 7.01784 8.94298 7.0263 8.8581 7.0248L8.8551 7.01691C8.56369 6.99791 8.65797 6.83933 8.55739 6.7834L8.52229 6.75784C8.39162 6.71099 8.36021 6.68743 8.25546 6.60405L8.23849 6.44167C8.00626 6.38508 7.97677 6.37178 7.91105 6.14335C7.69414 6.0362 7.63749 6.02476 7.58766 5.78155C7.47961 5.75669 7.4235 5.74354 7.31369 5.73643C7.1101 5.72005 7.12692 5.61158 6.98156 5.50946C6.94161 5.4814 6.769 5.4012 6.71275 5.37309C6.68664 5.31271 6.66118 5.25306 6.63266 5.1937C6.56995 5.1059 6.41547 5.14242 6.34386 4.92146C6.31724 4.7905 6.12076 4.82634 6.02874 4.6543L6.02524 4.56684C6.04747 4.52934 6.22869 4.46508 6.28902 4.43693C6.24401 4.40502 6.1932 4.38289 6.14333 4.35917C6.05589 4.20432 6.02023 4.13168 5.8587 4.04672C5.84607 4.01703 5.83194 3.98799 5.81639 3.95973C5.63335 3.63136 5.53995 3.92522 5.26973 3.8354L5.26788 3.85919C5.23227 3.84487 5.16649 3.80596 5.13026 3.78585L5.0304 3.58233C4.9344 3.54434 4.90293 3.52859 4.81575 3.47339C4.78147 3.41008 4.75643 3.27954 4.69243 3.25136C4.70874 3.23869 4.71056 3.23378 4.72306 3.21751L4.68874 3.18574L4.70142 3.16016C4.73319 3.09229 4.74328 2.99801 4.77478 2.95317C4.7394 2.89425 4.67749 2.85441 4.61033 2.84398C4.52528 2.79724 4.50308 2.67643 4.46789 2.57739C4.3894 2.53796 4.15987 2.50234 4.15868 2.50115C4.01718 2.36008 4.0489 2.37841 3.84714 2.30208C3.71697 1.99944 3.85161 2.00307 4.05047 1.88437C4.10761 1.82142 4.15003 1.71165 4.20101 1.65498C4.23931 1.61241 4.34625 1.57348 4.38966 1.52158C4.42287 1.48187 4.4677 1.36581 4.49676 1.3435C4.60275 1.26211 4.91442 1.27188 5.03832 1.27281L5.0692 1.26755Z" fill="url(#paint0_linear_0_161)"/>
<path id="Vector_2" d="M4.05047 1.88437C4.10761 1.82142 4.15003 1.71165 4.20101 1.65498C4.23931 1.61241 4.34625 1.57348 4.38966 1.52158C4.42287 1.48187 4.4677 1.36581 4.49676 1.3435C4.60275 1.26211 4.91442 1.27188 5.03832 1.27281C5.09759 1.39452 5.01251 1.78255 5.16074 1.83736C5.25183 1.87106 5.283 1.83997 5.34964 1.94437C5.44623 2.08374 5.41029 2.19063 5.55587 2.23743C5.7347 2.2893 5.68794 2.32215 5.75851 2.45681C5.82762 2.53755 5.9513 2.56488 6.01495 2.6499C6.04688 2.69253 6.07794 2.79163 6.11986 2.80829C6.29655 2.87846 6.35206 3.01797 6.47884 3.13711C6.62242 3.27205 6.84023 3.37131 6.95893 3.53772C6.85863 3.52242 6.68825 3.32019 6.5892 3.25754C6.52012 3.21385 6.45423 3.2042 6.39867 3.15373C6.39268 3.12037 6.37835 3.09552 6.36374 3.06487L6.34357 3.07635C6.314 3.20039 6.10306 3.3126 6.00417 3.3976C5.98272 3.42048 5.95972 3.44697 5.93545 3.46627C5.9779 3.51132 6.00832 3.52676 6.04099 3.58575C6.06394 3.6272 6.05049 3.73361 6.08521 3.75082C6.14175 3.77884 6.26365 3.75874 6.31548 3.78848L6.30879 3.80088C6.26333 3.7985 6.21793 3.79524 6.17259 3.79113C6.20111 3.80646 6.31933 3.86568 6.33641 3.87991C6.38086 3.91699 6.37472 4.03643 6.42477 4.09481C6.50048 4.13376 6.65756 4.15477 6.66526 4.22993C6.69584 4.52886 6.90071 4.42966 6.99606 4.53893C7.01922 4.62193 7.01233 4.72209 7.0974 4.76485C7.20587 4.81939 7.28958 4.80905 7.28034 4.96197C7.29978 5.02421 7.30927 5.0387 7.34449 5.09437C7.42626 5.12315 7.56015 5.15147 7.59294 5.23622C7.59683 5.25675 7.6194 5.39153 7.62521 5.39997C7.7405 5.56731 7.80623 5.59372 7.87642 5.7944L8.01479 5.8367C8.0297 5.84657 8.08675 5.88618 8.09255 5.89855C8.15359 6.02889 8.25932 6.26238 8.25422 6.40382L8.29767 6.40723C8.32457 6.47767 8.21816 6.5125 8.29935 6.60298C8.35956 6.67008 8.47779 6.69445 8.52229 6.75784C8.39162 6.71099 8.36021 6.68743 8.25546 6.60405L8.23849 6.44167C8.00626 6.38508 7.97677 6.37178 7.91105 6.14335C7.69413 6.0362 7.63749 6.02476 7.58766 5.78155C7.47961 5.75669 7.4235 5.74354 7.31369 5.73643C7.1101 5.72005 7.12692 5.61158 6.98156 5.50946C6.94161 5.4814 6.769 5.4012 6.71275 5.37309C6.68664 5.31271 6.66118 5.25306 6.63266 5.1937C6.56995 5.1059 6.41547 5.14242 6.34386 4.92146C6.31724 4.7905 6.12076 4.82634 6.02874 4.6543L6.02524 4.56684C6.04747 4.52934 6.22869 4.46508 6.28902 4.43693C6.24401 4.40502 6.1932 4.38289 6.14333 4.35917C6.05589 4.20432 6.02023 4.13168 5.8587 4.04672C5.84607 4.01703 5.83194 3.98799 5.81638 3.95973C5.63335 3.63136 5.53995 3.92522 5.26973 3.8354L5.26788 3.85919C5.23227 3.84487 5.16649 3.80596 5.13026 3.78585L5.0304 3.58233C4.9344 3.54434 4.90293 3.52859 4.81575 3.47339C4.78147 3.41008 4.75643 3.27954 4.69243 3.25136C4.70874 3.23869 4.71056 3.23378 4.72306 3.21751L4.68874 3.18574L4.70142 3.16016C4.73319 3.09229 4.74328 2.99801 4.77478 2.95317C4.7394 2.89425 4.67749 2.85441 4.61033 2.84398C4.52528 2.79724 4.50308 2.67643 4.46789 2.57739C4.3894 2.53796 4.15987 2.50234 4.15868 2.50115C4.01718 2.36008 4.0489 2.37841 3.84714 2.30208C3.71697 1.99944 3.85161 2.00307 4.05047 1.88437Z" fill="var(--fill-0, #3A3B67)"/>
<path id="Vector_3" d="M5.55587 2.23743C5.7347 2.2893 5.68794 2.32215 5.75851 2.45681C5.82762 2.53755 5.9513 2.56488 6.01496 2.6499C6.04688 2.69253 6.07794 2.79163 6.11986 2.80829C6.29656 2.87846 6.35206 3.01797 6.47884 3.13711C6.62242 3.27205 6.84023 3.37131 6.95893 3.53772C6.85863 3.52242 6.68825 3.32019 6.5892 3.25754C6.52012 3.21385 6.45423 3.2042 6.39867 3.15373C6.39268 3.12037 6.37835 3.09552 6.36374 3.06487L6.34357 3.07635C6.314 3.20039 6.10306 3.3126 6.00417 3.3976C5.98272 3.42048 5.95972 3.44697 5.93545 3.46627C5.9779 3.51132 6.00832 3.52676 6.04099 3.58575C6.06394 3.6272 6.05049 3.73361 6.08522 3.75082C6.14175 3.77884 6.26365 3.75874 6.31548 3.78848L6.30879 3.80088C6.26333 3.7985 6.21793 3.79524 6.17259 3.79113C6.20111 3.80646 6.31933 3.86568 6.33641 3.87991C6.38086 3.91699 6.37472 4.03643 6.42477 4.09481C6.50048 4.13376 6.65756 4.15477 6.66526 4.22993C6.69584 4.52886 6.90072 4.42966 6.99606 4.53893C7.01922 4.62193 7.01233 4.72209 7.0974 4.76485C7.20587 4.81939 7.28958 4.80905 7.28034 4.96197C7.04174 4.72147 7.08631 4.88399 6.91671 4.53413C6.63558 4.45683 6.73606 4.44313 6.55324 4.2287C6.53841 4.21129 6.41715 4.15611 6.38671 4.1421C6.36098 4.06489 6.3347 3.98787 6.30785 3.91103C6.22658 3.86909 6.06118 3.82561 6.02931 3.74281C5.94575 3.5257 5.70455 3.60597 5.68581 3.33408C5.68196 3.27838 5.48019 3.18247 5.42681 3.15004C5.34356 2.95575 5.31263 2.9665 5.13114 2.86156C5.06903 2.76618 5.0805 2.71608 5.09653 2.60708C5.13261 2.57976 5.13844 2.57876 5.18347 2.57246C5.24516 2.56244 5.29538 2.54223 5.3538 2.52119C5.38937 2.46474 5.40468 2.44485 5.42039 2.38086C5.42262 2.35169 5.4264 2.33934 5.43382 2.31086C5.46309 2.2681 5.50715 2.25682 5.55587 2.23743Z" fill="var(--fill-0, #61729F)"/>
<path id="Vector_4" d="M5.42039 2.38086C5.45872 2.33455 5.49295 2.28287 5.55836 2.27698C5.62256 2.2712 5.69229 2.36123 5.69375 2.41991C5.69507 2.47321 5.64374 2.52046 5.60711 2.55247C5.445 2.69311 5.44403 2.65275 5.36918 2.84252C5.27223 2.84681 5.13054 2.87015 5.11978 2.73319C5.11178 2.63147 5.15653 2.63041 5.18347 2.57246C5.24516 2.56244 5.29538 2.54223 5.3538 2.52119C5.38937 2.46474 5.40468 2.44485 5.42039 2.38086Z" fill="var(--fill-0, #787EA2)"/>
<path id="Vector_5" d="M5.76598 3.30081C5.87418 3.19186 6.11289 2.88643 6.2676 2.93497C6.4922 3.08865 6.09943 3.2567 6.01122 3.38699L6.00417 3.3976C5.98272 3.42048 5.95972 3.44697 5.93545 3.46627C5.91668 3.47361 5.89966 3.47234 5.87938 3.4729C5.80437 3.43663 5.79325 3.37813 5.76598 3.30081Z" fill="var(--fill-0, #787EA2)"/>
<path id="Vector_6" d="M5.89273 2.59742C5.92002 2.62384 5.96483 2.68018 5.99106 2.71132C6.00197 2.81829 5.7458 3.05421 5.67332 3.14088C5.67759 3.13578 5.54973 3.1657 5.53995 3.16816L5.49864 3.15741C5.46373 3.12059 5.43777 3.10029 5.42946 3.05058C5.44209 2.90499 5.69793 2.76362 5.79841 2.66834C5.83162 2.63685 5.85465 2.64619 5.89273 2.59742Z" fill="var(--fill-0, #787EA2)"/>
<path id="Vector_7" d="M4.38648 2.10324C4.34391 2.01325 4.4055 1.96637 4.40686 1.89015C4.38527 1.90736 4.37083 1.91715 4.34745 1.93188C4.35641 1.87677 4.46361 1.73593 4.51641 1.71244C4.51216 1.73633 4.50896 1.74285 4.51808 1.76567C4.8996 1.6171 4.79668 2.07566 4.89401 2.1359C5.08916 2.11084 4.97788 1.80011 5.34964 1.94437C5.44623 2.08374 5.41029 2.19063 5.55587 2.23743C5.50715 2.25682 5.46309 2.2681 5.43382 2.31086C5.42639 2.33934 5.42262 2.35169 5.42039 2.38086C5.40468 2.44485 5.38937 2.46474 5.3538 2.52119C5.29538 2.54223 5.24516 2.56244 5.18347 2.57246C5.13844 2.57876 5.13261 2.57976 5.09653 2.60708C5.01002 2.53762 4.98531 2.58099 4.89378 2.56885C4.8059 2.54543 4.75091 2.40956 4.69972 2.33792C4.66294 2.28647 4.43164 2.10911 4.38648 2.10324Z" fill="var(--fill-0, #5B6592)"/>
<path id="Vector_8" d="M4.99293 2.21847C5.08676 2.08 5.08681 1.94363 5.28474 1.95274C5.38416 2.01085 5.44122 2.10506 5.38234 2.21416C5.34793 2.24487 5.31731 2.24991 5.27297 2.26257L5.10829 2.33659L5.06002 2.52104C4.93481 2.5292 4.73509 2.49452 4.82059 2.29857C4.84436 2.24412 4.93562 2.23027 4.99293 2.21847Z" fill="var(--fill-0, #61729F)"/>
<path id="Vector_9" d="M5.28474 1.95274C5.38416 2.01085 5.44121 2.10506 5.38234 2.21416C5.34793 2.24487 5.31731 2.24991 5.27297 2.26257C5.24784 2.25781 5.22286 2.25237 5.19805 2.24622C4.97313 2.18848 5.12727 2.00644 5.28474 1.95274Z" fill="var(--fill-0, #787EA2)"/>
<path id="Vector_10" d="M6.6115 4.7647C6.65715 4.80953 6.75985 4.99029 6.76223 4.99155C6.97817 5.10632 7.02356 5.09756 7.10079 5.34431C7.10603 5.36106 7.2791 5.48312 7.32133 5.53018C7.32141 5.5771 7.32566 5.69775 7.31369 5.73643C7.1101 5.72005 7.12692 5.61158 6.98156 5.50946C6.94161 5.4814 6.769 5.4012 6.71275 5.37309C6.68664 5.31271 6.66118 5.25306 6.63266 5.1937C6.56995 5.1059 6.41547 5.14242 6.34386 4.92147C6.36597 4.86551 6.37418 4.87309 6.42597 4.85898C6.47756 4.85047 6.49986 4.84846 6.54772 4.82643L6.54654 4.80021C6.56399 4.77906 6.5852 4.7746 6.6115 4.7647Z" fill="var(--fill-0, #787EA2)"/>
<path id="Vector_11" d="M6.28902 4.43693C6.37894 4.49259 6.41033 4.5768 6.45615 4.67016C6.50016 4.69514 6.57468 4.73428 6.6115 4.7647C6.5852 4.7746 6.56399 4.77906 6.54654 4.80021L6.54772 4.82643C6.49986 4.84846 6.47756 4.85047 6.42597 4.85898C6.37418 4.87309 6.36597 4.86551 6.34386 4.92146C6.31724 4.7905 6.12076 4.82634 6.02874 4.6543L6.02524 4.56684C6.04747 4.52934 6.22869 4.46508 6.28902 4.43693Z" fill="url(#paint1_linear_0_161)"/>
<path id="Vector_12" d="M6.42597 4.85898C6.36561 4.829 6.32743 4.76695 6.31746 4.70132C6.40753 4.72315 6.44025 4.81165 6.54655 4.80021L6.54772 4.82643C6.49986 4.84846 6.47756 4.85047 6.42597 4.85898Z" fill="var(--fill-0, #5B6592)"/>
<path id="Vector_13" d="M4.69243 3.25136C4.70874 3.23869 4.71056 3.23378 4.72306 3.21751L4.68874 3.18574L4.70142 3.16016C4.71825 3.18414 4.7779 3.2197 4.82184 3.28578C4.88198 3.26547 4.98921 3.22273 5.04399 3.23683C5.09303 3.33219 5.02832 3.31643 5.08672 3.43768C5.12371 3.62452 5.09652 3.7446 5.26973 3.8354L5.26788 3.85919C5.23227 3.84487 5.16649 3.80596 5.13026 3.78585L5.0304 3.58233C4.9344 3.54434 4.90293 3.52859 4.81575 3.47339C4.78146 3.41008 4.75643 3.27954 4.69243 3.25136Z" fill="var(--fill-0, #5B6592)"/>
<path id="Vector_14" d="M5.13114 2.86156C5.06246 2.84036 5.06078 2.68081 5.00076 2.65755C4.77978 2.57195 4.76477 2.5376 4.64172 2.34888C4.60455 2.29187 4.356 2.23006 4.31915 2.14404C4.33334 2.12879 4.34346 2.11779 4.35021 2.09747L4.38648 2.10324C4.43164 2.10911 4.66294 2.28647 4.69972 2.33792C4.75091 2.40956 4.8059 2.54543 4.89378 2.56885C4.98531 2.58099 5.01002 2.53762 5.09653 2.60708C5.0805 2.71608 5.06903 2.76618 5.13114 2.86156Z" fill="var(--fill-0, #4F4F7C)"/>
<path id="Vector_15" d="M4.70142 3.16016C4.73319 3.09229 4.74328 2.99801 4.77478 2.95317C4.92056 3.17226 5.06738 3.17871 5.15916 3.32492L5.14568 3.33725L5.12217 3.33216L5.1402 3.33309L5.11308 3.34409L5.11569 3.33147C5.09627 3.36279 5.09328 3.40051 5.08672 3.43768C5.02832 3.31643 5.09303 3.33219 5.04399 3.23683C4.98921 3.22273 4.88198 3.26547 4.82184 3.28578C4.7779 3.2197 4.71825 3.18414 4.70142 3.16016Z" fill="var(--fill-0, #4F4F7C)"/>
<path id="Vector_16" d="M5.0692 1.26755C5.14449 1.27486 5.24521 1.28199 5.31794 1.29358C5.38248 1.38329 5.41652 1.45299 5.45062 1.55981C5.66254 1.6415 5.71004 1.67057 5.77782 1.89064C5.97395 1.93813 6.00854 1.97775 6.13797 2.01704C6.19888 2.10197 6.36144 2.26386 6.46543 2.27779C6.57845 2.35676 6.59142 2.4084 6.67599 2.48708C6.90398 2.69924 7.08945 2.93117 7.31097 3.15005C7.41156 3.24944 7.48233 3.2718 7.56582 3.38254C7.59936 3.44252 7.69325 3.61339 7.73285 3.65519C8.00531 3.94265 8.19608 4.00355 8.36629 4.38899C8.7833 4.56107 8.90397 4.77343 9.23452 5.06756C9.29009 5.11703 9.41202 5.13186 9.46414 5.19269C9.51412 5.24817 9.54017 5.31743 9.57008 5.38479C9.63892 5.4181 9.72789 5.45531 9.78078 5.5081L9.78744 5.51469C9.84509 5.57226 9.86605 5.63697 9.90041 5.71118C9.97155 5.73885 10.0642 5.77134 10.1286 5.80891C10.1652 5.89235 10.173 5.92082 10.1935 6.00819C10.2675 6.04226 10.3543 6.07677 10.4136 6.13118L10.4206 6.13752C10.4808 6.19276 10.5111 6.26322 10.5461 6.3365C10.6065 6.36068 10.7045 6.39684 10.7596 6.42441C10.7973 6.49986 10.8488 6.59691 10.8553 6.68135C10.8323 6.68869 10.7962 6.71407 10.7687 6.71676C10.6612 6.72726 10.505 6.55132 10.3995 6.47384C10.0799 6.21186 9.79202 5.85554 9.49817 5.61888C9.28164 5.4445 8.95635 5.39994 8.65454 5.1357C8.06539 4.61989 7.56875 4.02479 6.95893 3.53772C6.84023 3.37131 6.62242 3.27205 6.47884 3.13711C6.35206 3.01797 6.29655 2.87846 6.11986 2.80829C6.07794 2.79163 6.04688 2.69253 6.01495 2.6499C5.9513 2.56488 5.82762 2.53755 5.75851 2.45681C5.68794 2.32215 5.7347 2.2893 5.55587 2.23743C5.41029 2.19063 5.44623 2.08374 5.34964 1.94437C5.283 1.83997 5.25183 1.87106 5.16074 1.83736C5.01251 1.78255 5.09759 1.39452 5.03832 1.27281L5.0692 1.26755Z" fill="var(--fill-0, #31315A)"/>
<path id="Vector_17" d="M8.88796 7.95862L8.92477 8.00484C8.92292 8.08239 8.85526 8.08272 8.8047 8.13825L8.81296 8.15968C8.87849 8.09163 8.90817 8.10276 8.99008 8.06136C9.12133 7.995 9.25627 7.93168 9.36753 7.83363C9.40559 7.80008 9.40659 7.80154 9.45321 7.80676L9.45253 7.82518C9.26039 7.97337 9.12319 8.00692 8.93331 8.13178C8.89079 8.15974 8.69946 8.40383 8.6555 8.45857L8.65087 8.51354C8.62243 8.5326 8.50326 8.59178 8.49743 8.5986C8.3781 8.7383 8.27514 8.89435 8.15161 9.03157C8.08549 9.11012 7.99047 9.13858 7.91447 9.2056C7.73141 9.36705 7.57807 9.56566 7.39553 9.7249C7.30454 9.80428 7.26042 9.81214 7.18944 9.92288C7.02177 10.0517 6.9193 10.2944 6.69739 10.3913C6.60186 10.4329 6.46945 10.5042 6.3901 10.5675C6.326 10.6289 6.3362 10.8038 6.23103 10.8374C6.20561 10.8344 6.17146 10.8268 6.14943 10.8366L6.14122 10.8475C6.16622 11.0069 6.06397 10.9456 5.95768 11.0367C5.81968 11.1551 5.73578 11.3015 5.61191 11.4298C5.57754 11.4646 5.45573 11.4898 5.40812 11.5195C5.31803 11.5758 5.24628 11.6653 5.14981 11.7075C5.1068 11.7042 5.05701 11.691 5.03345 11.7145C4.94486 11.8031 4.84641 11.8981 4.7693 11.9959L4.76999 12.08C4.73174 12.092 4.65132 12.0942 4.63452 12.116C4.57685 12.191 4.48224 12.3172 4.38402 12.3423C4.40055 12.3003 4.45169 12.2483 4.48336 12.2122L4.47602 12.2036C4.40465 12.2519 4.28515 12.3405 4.20127 12.3499C4.1561 12.3286 4.14362 12.3052 4.11418 12.2648C4.1065 12.2336 4.10903 12.2307 4.11845 12.1986C4.07498 12.2194 3.9713 12.3173 3.93751 12.3552L3.89067 12.3422C4.03215 12.2005 4.11913 12.1229 4.30436 12.0488C4.32972 12.0381 4.34448 12.0183 4.36373 11.9978C4.50101 11.7199 4.67405 11.8421 4.79929 11.5558C4.82167 11.5046 4.94725 11.462 5.00318 11.4391C5.05987 11.3834 5.11208 11.235 5.14589 11.2114C5.29922 11.1043 5.3748 11.0742 5.46537 10.8918C5.47773 10.8669 5.60114 10.8107 5.62859 10.7815C5.67749 10.7295 5.71305 10.6728 5.76157 10.621C5.81923 10.5536 5.90878 10.496 5.96523 10.4295C6.06616 10.3105 6.08552 10.2599 6.22347 10.1788C6.35618 10.1132 6.32886 10.0472 6.42124 9.949C6.45791 9.91002 6.57828 9.84895 6.62115 9.8076C6.66739 9.76304 6.68428 9.68487 6.73229 9.63755C6.77824 9.59226 6.85534 9.56104 6.89942 9.51973L7.59449 8.87018C7.73291 8.74013 7.66231 8.72681 7.87731 8.6164C8.10432 8.50705 8.62128 7.9516 8.7695 7.95102C8.8201 7.95591 8.83211 7.95195 8.88109 7.94136L8.88796 7.95862Z" fill="var(--fill-0, #3A3B67)"/>
<path id="Vector_18" d="M10.4738 8.45219C10.4648 8.42435 10.4769 8.356 10.4811 8.32444C10.5098 8.1095 10.7168 8.00119 10.8502 7.85501C10.8835 7.81855 10.9462 7.68581 10.9836 7.67609L10.9757 7.72164L10.9846 7.72648C10.9906 7.72286 10.9967 7.71932 11.0029 7.71587C11.1134 7.65406 11.1198 7.71724 11.1923 7.68965L11.1989 7.71352C11.056 7.92805 11.1263 7.91424 10.8725 8.0538C10.7401 8.31735 10.7525 8.23542 10.5514 8.36866C10.5274 8.40429 10.5154 8.42019 10.4992 8.46126C10.4539 8.60631 10.358 8.63818 10.2228 8.68688C10.1299 8.91934 10.0876 8.87342 9.9025 9.02532C9.87205 9.05032 9.80725 9.21033 9.77535 9.22562C9.59659 9.31126 9.56367 9.36313 9.46217 9.52051C9.44723 9.54369 9.29191 9.61896 9.26502 9.6511C9.2302 9.68227 9.1873 9.79702 9.15057 9.83384C9.10042 9.88412 8.97148 9.91845 8.94004 9.97917C8.89623 10.0318 8.87995 10.086 8.83632 10.1432C8.8037 10.1859 8.62956 10.2439 8.61045 10.2775C8.52664 10.4247 8.46863 10.4746 8.32844 10.5619C8.30614 10.5757 8.23272 10.7502 8.19731 10.7761C8.15406 10.8239 8.03515 10.8581 7.99598 10.9043C7.92326 10.9899 7.87564 11.1712 7.73549 11.1763C7.7057 11.1696 7.68388 11.1738 7.65357 11.1766C7.69805 11.0281 7.81095 10.959 7.89794 10.8389C7.95949 10.754 8.02088 10.6626 8.07849 10.575C8.04865 10.5767 7.96901 10.6348 7.93717 10.6552C7.98001 10.603 8.0926 10.4877 8.16144 10.5055L8.1643 10.5222L8.10735 10.5591C8.28126 10.5842 8.30926 10.331 8.309 10.3313C8.70209 9.8968 9.14249 9.485 9.56906 9.08027C9.72297 8.93421 9.96455 8.63979 10.1385 8.54414C10.1006 8.58274 10.0611 8.61779 10.0241 8.65746C10.129 8.66395 10.4306 8.55143 10.4738 8.45219Z" fill="var(--fill-0, #3A3B67)"/>
<path id="Vector_19" d="M9.21735 7.01039C9.3574 7.12748 9.41147 7.13707 9.53086 7.30246C9.69959 7.53621 9.63059 7.63411 9.45321 7.80676C9.40659 7.80154 9.40559 7.80008 9.36753 7.83363C9.25627 7.93168 9.12133 7.995 8.99008 8.06136C8.90817 8.10276 8.87849 8.09163 8.81296 8.15968L8.8047 8.13825C8.85526 8.08272 8.92292 8.08239 8.92477 8.00484L8.88796 7.95862L8.88109 7.94136C8.83211 7.95195 8.8201 7.95591 8.7695 7.95102L8.79435 7.91794C8.84729 7.91455 8.83534 7.92259 8.87444 7.89478C8.90478 7.84146 8.89953 7.76202 8.90116 7.69841C8.90012 7.64627 8.90635 7.58122 8.90993 7.52814C8.91145 7.48213 8.92076 7.41526 8.92589 7.36788C9.02389 7.34954 9.05808 7.34263 9.15045 7.30532L9.18099 7.29028C9.21268 7.25411 9.21449 7.19517 9.22116 7.14588C9.23511 7.10445 9.22392 7.0623 9.20717 7.02349L9.21735 7.01039Z" fill="var(--fill-0, #31315A)"/>
<path id="Vector_20" d="M9.15045 7.30532C9.21464 7.35362 9.27594 7.5571 9.24082 7.63221C9.16351 7.68191 9.07268 7.62329 8.98254 7.6175C8.95448 7.6157 8.95966 7.62605 8.92183 7.62115C8.91544 7.588 8.91305 7.56138 8.90993 7.52814C8.91145 7.48212 8.92076 7.41526 8.92589 7.36788C9.02389 7.34954 9.05808 7.34263 9.15045 7.30532Z" fill="url(#paint2_linear_0_161)"/>
<path id="Vector_21" d="M8.90116 7.69841C8.991 7.7073 9.24488 7.70812 9.22607 7.84744C9.15834 7.95003 9.00208 7.97589 8.88796 7.95862L8.88109 7.94136C8.83211 7.95195 8.8201 7.95591 8.7695 7.95102L8.79435 7.91794C8.84729 7.91455 8.83534 7.92259 8.87444 7.89478C8.90478 7.84146 8.89953 7.76202 8.90116 7.69841Z" fill="var(--fill-0, #170E39)"/>
<path id="Vector_22" d="M9.45253 7.82518L9.46144 7.85388C9.44129 7.89005 9.43712 7.88318 9.44292 7.91448L9.48894 7.91885C9.46876 7.95398 9.30928 8.00465 9.25574 8.03299C9.18895 8.06836 9.05487 8.17034 9.00193 8.18932L8.94748 8.15525C8.9077 8.16587 8.92239 8.15709 8.8933 8.19831C8.90803 8.22694 8.9307 8.22568 8.96999 8.23931C8.91823 8.26921 8.90924 8.23611 8.8856 8.26135L8.87796 8.29534L8.89433 8.25239L8.87042 8.28773C8.87439 8.2962 8.89353 8.30268 8.90456 8.3081C8.84647 8.33346 8.81948 8.3364 8.79848 8.40137C8.74448 8.56834 8.55981 8.66723 8.44311 8.79836C8.34822 8.90496 8.24577 9.02174 8.14518 9.1236C8.05546 9.21293 7.89105 9.30196 7.80851 9.39025C7.65207 9.55764 7.55627 9.74228 7.33612 9.84565C7.29961 9.86279 7.22374 9.9223 7.18944 9.92288C7.26042 9.81214 7.30454 9.80428 7.39553 9.7249C7.57807 9.56566 7.7314 9.36705 7.91447 9.2056C7.99047 9.13858 8.08549 9.11012 8.15161 9.03157C8.27513 8.89435 8.3781 8.7383 8.49743 8.5986C8.50326 8.59178 8.62243 8.5326 8.65087 8.51355L8.6555 8.45857C8.69946 8.40383 8.89079 8.15974 8.93331 8.13179C9.12319 8.00692 9.26039 7.97337 9.45253 7.82518Z" fill="var(--fill-0, #4F4F7C)"/>
<path id="Vector_23" d="M7.59294 5.23622C7.71503 5.43832 7.74784 5.39257 7.88766 5.5387C8.06261 5.72152 7.92524 5.70929 8.20926 5.81008C8.29676 5.95987 8.27537 6.02532 8.40301 6.14216C8.37577 6.17288 8.33057 6.17256 8.2933 6.1587C8.18429 6.05589 8.23103 5.91192 8.01479 5.8367L7.87642 5.7944C7.80623 5.59372 7.7405 5.56731 7.62521 5.39997C7.6194 5.39153 7.59683 5.25675 7.59294 5.23622Z" fill="var(--fill-0, #4F4F7C)"/>
<path id="Vector_24" d="M3.89067 12.3422L3.93751 12.3552L3.90875 12.3887C3.95428 12.499 4.16068 12.483 4.06148 12.8119C3.77364 12.779 3.72814 12.5559 3.89067 12.3422Z" fill="var(--fill-0, #3A3B67)"/>
<path id="Vector_25" d="M8.8551 7.01691C8.86006 6.70765 9.2633 6.63973 9.21735 7.01039L9.20717 7.02349C9.22392 7.0623 9.23511 7.10445 9.22116 7.14588C9.21849 7.13375 9.20366 7.07898 9.19587 7.07185C9.13683 7.01784 8.94298 7.02631 8.8581 7.0248L8.8551 7.01691Z" fill="var(--fill-0, #3A3B67)"/>
<path id="Vector_26" d="M6.74751 4.24204C6.94943 4.01747 7.09808 4.27901 6.9237 4.41416C6.91564 4.42034 6.90752 4.42641 6.89932 4.43238C6.73519 4.42287 6.72216 4.40431 6.74751 4.24204Z" fill="var(--fill-0, #787EA2)"/>
<path id="Vector_27" d="M6.74751 4.24204C6.79911 4.34965 6.80187 4.36193 6.89932 4.43238C6.73519 4.42287 6.72216 4.40431 6.74751 4.24204Z" fill="var(--fill-0, #787EA2)"/>
<path id="Vector_28" d="M5.26973 3.8354C5.53995 3.92522 5.63335 3.63136 5.81638 3.95973C5.83194 3.98799 5.84607 4.01703 5.8587 4.04672C6.02023 4.13168 6.05589 4.20432 6.14333 4.35917C6.1932 4.38289 6.24401 4.40502 6.28902 4.43693C6.22869 4.46508 6.04747 4.52934 6.02524 4.56684L6.01714 4.54731C5.89876 4.50136 5.80292 4.45177 5.72128 4.35415L5.699 4.21157C5.52915 4.1654 5.45892 4.13399 5.3852 3.9675C5.34978 3.88753 5.34237 3.89387 5.26788 3.85919L5.26973 3.8354Z" fill="url(#paint3_linear_0_161)"/>
<path id="Vector_29" d="M7.65357 11.1766C7.68388 11.1738 7.7057 11.1696 7.73549 11.1763C7.63543 11.2616 7.6446 11.3186 7.5667 11.4194C7.52745 11.4702 7.40052 11.5107 7.37048 11.5416C7.17962 11.7384 7.28126 11.7262 7.02297 11.8472C6.99331 11.9062 6.95003 11.9992 6.91816 12.0538C6.86455 12.0852 6.74003 12.1455 6.70083 12.1763C6.63852 12.2253 6.60276 12.3678 6.5071 12.4024L6.50393 12.382C6.57002 12.3238 6.61916 12.2266 6.67751 12.1607C6.73509 12.0957 6.79649 12.1034 6.85918 12.0263C6.90428 11.9646 7.0165 11.8407 7.04536 11.7796C7.1267 11.6077 7.16481 11.603 7.31153 11.5115C7.34468 11.4908 7.42809 11.2992 7.49384 11.2634C7.55487 11.2302 7.61197 11.218 7.65357 11.1766Z" fill="var(--fill-0, #3A3B67)" fill-opacity="0.984314"/>
<path id="Vector_30" d="M4.10233 2.63748C4.16538 2.55865 4.36408 2.62527 4.43327 2.67597C4.49978 2.72471 4.44128 2.85214 4.47988 2.92715C4.53209 2.95921 4.60701 2.94267 4.63965 2.89365C4.62983 2.87637 4.62122 2.86073 4.61033 2.84398C4.67749 2.85441 4.7394 2.89425 4.77478 2.95317C4.74328 2.99801 4.73319 3.09229 4.70142 3.16016L4.68874 3.18574L4.72306 3.21751C4.71056 3.23378 4.70874 3.23869 4.69243 3.25136C4.38236 3.11861 4.49684 2.98654 4.34906 2.91137C4.52565 2.77498 4.22306 2.58837 4.11439 2.68907L4.10233 2.63748Z" fill="url(#paint4_linear_0_161)"/>
<path id="Vector_31" d="M3.84714 2.30208C4.0489 2.37841 4.01718 2.36008 4.15868 2.50115C4.15987 2.50234 4.3894 2.53796 4.46789 2.57739C4.50308 2.67643 4.52528 2.79724 4.61033 2.84398C4.62122 2.86073 4.62983 2.87637 4.63965 2.89365C4.60701 2.94267 4.53209 2.95921 4.47988 2.92715C4.44128 2.85214 4.49978 2.72471 4.43327 2.67597C4.36408 2.62527 4.16538 2.55865 4.10233 2.63748C4.09663 2.54203 3.91859 2.44437 3.84714 2.30208Z" fill="var(--fill-0, #4F4F7C)" fill-opacity="0.988235"/>
<path id="Vector_32" d="M10.3995 6.47384C10.505 6.55132 10.6612 6.72726 10.7687 6.71676C10.7962 6.71407 10.8323 6.68869 10.8553 6.68135C10.9706 6.71356 11.0401 6.70678 11.1119 6.82933C11.1633 6.91711 11.1596 7.15937 11.1553 7.26358C11.2446 7.27174 11.3549 7.27397 11.4045 7.3539C11.5397 7.57189 11.3584 7.663 11.1989 7.71352L11.1923 7.68965C11.2579 7.6564 11.371 7.64226 11.4062 7.56941C11.4489 7.48088 11.3981 7.29203 11.276 7.30313C11.237 7.30667 11.1732 7.29586 11.1372 7.28696C11.0339 7.12012 11.3301 6.82004 10.6754 6.75433C10.631 6.74987 10.4247 6.5558 10.3995 6.47384Z" fill="var(--fill-0, #3A3B67)" fill-opacity="0.984314"/>
<path id="Vector_33" d="M5.05162 13.4104C5.08237 13.3741 5.12879 13.4022 5.16068 13.3755C5.2118 13.3339 5.24271 13.2475 5.29084 13.205C5.33902 13.1625 5.40645 13.2043 5.4106 13.1151C5.44353 13.0686 5.58623 13.0734 5.63682 13.0309C5.83283 12.8664 5.72813 12.7454 6.04734 12.7701L5.84575 12.8131C5.731 12.9864 5.66244 13.0777 5.44804 13.1362C5.41234 13.2218 5.37554 13.3069 5.33762 13.3916C5.27352 13.4014 5.11309 13.426 5.05162 13.4104Z" fill="var(--fill-0, #3A3B67)" fill-opacity="0.988235"/>
<path id="Vector_34" d="M4.11439 2.68907C4.22306 2.58837 4.52565 2.77498 4.34906 2.91137C4.21292 2.86188 4.15767 2.82722 4.11439 2.68907Z" fill="var(--fill-0, #787EA2)"/>
</g>
<defs>
<linearGradient id="paint0_linear_0_161" x1="8.3803" y1="10.6907" x2="3.50697" y2="5.9865" gradientUnits="userSpaceOnUse">
<stop stop-color="#525A8C"/>
<stop offset="1" stop-color="#6B82B2"/>
</linearGradient>
<linearGradient id="paint1_linear_0_161" x1="6.12425" y1="4.73036" x2="6.34428" y2="4.56803" gradientUnits="userSpaceOnUse">
<stop stop-color="#91889F"/>
<stop offset="1" stop-color="#66638A"/>
</linearGradient>
<linearGradient id="paint2_linear_0_161" x1="8.96046" y1="7.39085" x2="9.1773" y2="7.59854" gradientUnits="userSpaceOnUse">
<stop stop-color="#7F7781"/>
<stop offset="1" stop-color="#5E526A"/>
</linearGradient>
<linearGradient id="paint3_linear_0_161" x1="5.66379" y1="4.26897" x2="5.87534" y2="4.05707" gradientUnits="userSpaceOnUse">
<stop stop-color="#746889" stop-opacity="0.988235"/>
<stop offset="1" stop-color="#534F7C"/>
</linearGradient>
<linearGradient id="paint4_linear_0_161" x1="4.54985" y1="3.14173" x2="4.73205" y2="2.95384" gradientUnits="userSpaceOnUse">
<stop stop-color="#7C6D93" stop-opacity="0.988235"/>
<stop offset="1" stop-color="#5F5683"/>
</linearGradient>
</defs>
</svg>
