<svg preserveAspectRatio="none" width="100%" height="100%" overflow="visible" style="display: block;" viewBox="0 0 22 13.0625" fill="none" xmlns="http://www.w3.org/2000/svg">
<path id="Vector" d="M4.125 0.6875C1.84766 0.6875 0 2.53516 0 4.8125V8.9375C0 11.2148 1.84766 13.0625 4.125 13.0625H17.875C20.1523 13.0625 22 11.2148 22 8.9375V4.8125C22 2.53516 20.1523 0.6875 17.875 0.6875H4.125ZM3.4375 5.5C3.4375 4.92852 3.89727 4.46875 4.46875 4.46875H5.5V3.4375C5.5 2.86602 5.95977 2.40625 6.53125 2.40625C7.10273 2.40625 7.5625 2.86602 7.5625 3.4375V4.46875H8.59375C9.16523 4.46875 9.625 4.92852 9.625 5.5C9.625 6.07148 9.16523 6.53125 8.59375 6.53125H7.5625V7.5625C7.5625 8.13398 7.10273 8.59375 6.53125 8.59375C5.95977 8.59375 5.5 8.13398 5.5 7.5625V6.53125H4.46875C3.89727 6.53125 3.4375 6.07148 3.4375 5.5ZM12.375 4.8125C11.8035 4.8125 11.3438 4.35273 11.3438 3.78125C11.3438 3.20977 11.8035 2.75 12.375 2.75C12.9465 2.75 13.4062 3.20977 13.4062 3.78125C13.4062 4.35273 12.9465 4.8125 12.375 4.8125ZM15.125 2.0625C14.5535 2.0625 14.0938 1.60273 14.0938 1.03125C14.0938 0.459766 14.5535 0 15.125 0C15.6965 0 16.1562 0.459766 16.1562 1.03125C16.1562 1.60273 15.6965 2.0625 15.125 2.0625ZM17.875 4.8125C17.3035 4.8125 16.8438 4.35273 16.8438 3.78125C16.8438 3.20977 17.3035 2.75 17.875 2.75C18.4465 2.75 18.9062 3.20977 18.9062 3.78125C18.9062 4.35273 18.4465 4.8125 17.875 4.8125ZM15.125 7.5625C14.5535 7.5625 14.0938 7.10273 14.0938 6.53125C14.0938 5.95977 14.5535 5.5 15.125 5.5C15.6965 5.5 16.1562 5.95977 16.1562 6.53125C16.1562 7.10273 15.6965 7.5625 15.125 7.5625Z" fill="var(--fill-0, #9A9DB2)"/>
</svg>
