<svg width="22" height="24" viewBox="0 0 22 24" fill="none" xmlns="http://www.w3.org/2000/svg">
<g clip-path="url(#clip0_20_139)">
<g clip-path="url(#clip1_20_139)">
<path d="M21.9924 10.9809C21.9924 11.6684 21.4194 12.207 20.7701 12.207H19.5479L19.5747 18.3257C19.5747 18.4288 19.567 18.5319 19.5556 18.6351V19.25C19.5556 20.0941 18.8719 20.7778 18.0278 20.7778H17.4167C17.3747 20.7778 17.3326 20.7778 17.2906 20.774C17.2372 20.7778 17.1837 20.7778 17.1302 20.7778H15.8889H14.9722C14.1281 20.7778 13.4444 20.0941 13.4444 19.25V18.3333V15.8889C13.4444 15.2129 12.8983 14.6667 12.2222 14.6667H9.77778C9.10174 14.6667 8.55556 15.2129 8.55556 15.8889V18.3333V19.25C8.55556 20.0941 7.87187 20.7778 7.02778 20.7778H6.11111H4.89271C4.83542 20.7778 4.77812 20.774 4.72083 20.7701C4.675 20.774 4.62917 20.7778 4.58333 20.7778H3.97222C3.12812 20.7778 2.44444 20.0941 2.44444 19.25V14.9722C2.44444 14.9379 2.44444 14.8997 2.44826 14.8653V12.207H1.22222C0.534722 12.207 0 11.6722 0 10.9809C0 10.6372 0.114583 10.3316 0.381944 10.0642L10.175 1.52778C10.4424 1.26042 10.7479 1.22223 11.0153 1.22223C11.2826 1.22223 11.5882 1.29862 11.8174 1.48959L21.5722 10.0642C21.8778 10.3316 22.0306 10.6372 21.9924 10.9809Z" fill="#9A9DB2"/>
</g>
</g>
<defs>
<clipPath id="clip0_20_139">
<rect width="22" height="22" fill="white"/>
</clipPath>
<clipPath id="clip1_20_139">
<rect width="22" height="22" fill="white"/>
</clipPath>
</defs>
</svg>
