<svg preserveAspectRatio="none" width="100%" height="100%" overflow="visible" style="display: block;" viewBox="0 0 19.25 22" fill="none" xmlns="http://www.w3.org/2000/svg">
<path id="Vector" d="M9.625 11C11.0837 11 12.4826 10.4205 13.5141 9.38909C14.5455 8.35764 15.125 6.95869 15.125 5.5C15.125 4.04131 14.5455 2.64236 13.5141 1.61091C12.4826 0.579463 11.0837 0 9.625 0C8.16631 0 6.76736 0.579463 5.73591 1.61091C4.70446 2.64236 4.125 4.04131 4.125 5.5C4.125 6.95869 4.70446 8.35764 5.73591 9.38909C6.76736 10.4205 8.16631 11 9.625 11ZM7.66133 13.0625C3.42891 13.0625 0 16.4914 0 20.7238C0 21.4285 0.571484 22 1.27617 22H17.9738C18.6785 22 19.25 21.4285 19.25 20.7238C19.25 16.4914 15.8211 13.0625 11.5887 13.0625H7.66133Z" fill="var(--fill-0, #9A9DB2)"/>
</svg>
